<svg width="247" height="52" viewBox="0 0 247 52" fill="none" xmlns="http://www.w3.org/2000/svg">
<path d="M163.193 22.5732C163.901 22.7302 164.57 22.9265 165.121 23.1621C165.711 23.3976 166.183 23.6331 166.576 23.9472C166.97 24.2613 167.284 24.6146 167.481 25.0464C167.678 25.4783 167.796 25.9493 167.796 26.5382V26.5775C167.796 27.2449 167.678 27.7945 167.402 28.3048C167.127 28.8152 166.773 29.247 166.301 29.5611C165.829 29.9144 165.278 30.1892 164.609 30.3462C163.98 30.5425 163.232 30.621 162.485 30.621C160.321 30.621 158.354 29.9144 156.623 28.5404L158.511 26.499C159.14 27.0093 159.77 27.3626 160.399 27.6767C161.029 27.9515 161.737 28.1085 162.524 28.1085C163.193 28.1085 163.704 27.9907 164.058 27.7945C164.412 27.5589 164.609 27.2841 164.609 26.8915V26.8523C164.609 26.656 164.57 26.499 164.53 26.3419C164.491 26.1849 164.373 26.0671 164.176 25.9493C163.98 25.8316 163.744 25.6745 163.389 25.5568C163.035 25.439 162.563 25.3212 161.973 25.1642C161.226 25.0072 160.596 24.8109 160.006 24.6146C159.416 24.4183 158.904 24.1828 158.511 23.8687C158.078 23.5546 157.763 23.2013 157.527 22.7695C157.291 22.3376 157.173 21.788 157.173 21.1207V21.0814C157.173 20.4925 157.291 19.9429 157.527 19.4718C157.763 19.0007 158.118 18.5689 158.55 18.2156C158.983 17.8623 159.534 17.6267 160.163 17.4304C160.793 17.2342 161.462 17.1556 162.209 17.1556C162.642 17.1556 163.075 17.1949 163.468 17.2734C163.901 17.3519 164.255 17.4304 164.53 17.509V20.257C164.255 20.1392 163.901 20.0214 163.429 19.9037C162.996 19.7859 162.563 19.7074 162.131 19.7074C161.54 19.7074 161.068 19.8252 160.754 20.0214C160.439 20.257 160.281 20.4925 160.281 20.8459V20.8851C160.281 21.1207 160.321 21.2777 160.36 21.4347C160.439 21.5918 160.557 21.7095 160.754 21.8273C160.95 21.9451 161.226 22.0628 161.619 22.1806C162.091 22.2984 162.563 22.4162 163.193 22.5732Z" fill="#044B8D"/>
<path d="M168.308 20.4925H171.494V30.3461H168.308V20.4925ZM171.534 19.0007H168.347V16.8022H171.534V19.0007Z" fill="#044B8D"/>
<path d="M183.14 30.3462H179.914V24.8501C179.914 24.6146 179.874 24.3398 179.835 24.1042C179.756 23.8294 179.678 23.5939 179.52 23.3976C179.363 23.2013 179.166 23.005 178.93 22.8872C178.694 22.7694 178.379 22.6909 177.986 22.6909C177.632 22.6909 177.317 22.7694 177.081 22.8872C176.845 23.005 176.648 23.2013 176.491 23.3976C176.334 23.5939 176.255 23.8294 176.176 24.1042C176.097 24.379 176.097 24.6146 176.097 24.8501V30.3462H172.832V25.0464C172.832 24.379 172.95 23.7509 173.147 23.162C173.343 22.5732 173.658 22.0628 174.091 21.631C174.524 21.1991 175.075 20.8458 175.704 20.6103C176.334 20.3747 177.12 20.257 177.986 20.257C178.851 20.257 179.599 20.3747 180.268 20.6103C180.937 20.8458 181.448 21.1991 181.881 21.631C182.314 22.0628 182.628 22.5732 182.825 23.162C183.022 23.7509 183.14 24.379 183.14 25.0464V30.3462Z" fill="#044B8D"/>
<path d="M189.041 28.344C189.513 28.344 189.906 28.2655 190.182 28.1085C190.496 27.9515 190.733 27.7552 190.89 27.4804C191.047 27.2056 191.165 26.9308 191.244 26.5774C191.323 26.2241 191.323 25.8708 191.323 25.4782C191.323 25.0857 191.283 24.6931 191.244 24.379C191.165 24.0257 191.087 23.7509 190.89 23.4761C190.733 23.2405 190.496 23.005 190.182 22.8872C189.867 22.7302 189.513 22.6517 189.041 22.6517C188.569 22.6517 188.175 22.7302 187.861 22.8872C187.546 23.0443 187.349 23.2405 187.152 23.4761C186.995 23.7116 186.877 24.0257 186.798 24.379C186.72 24.7323 186.72 25.0857 186.72 25.4782C186.72 25.8708 186.759 26.2241 186.798 26.5774C186.877 26.9308 186.995 27.2056 187.152 27.4804C187.31 27.7552 187.546 27.9515 187.861 28.1085C188.175 28.2655 188.569 28.344 189.041 28.344ZM188.608 20.414C189.119 20.414 189.631 20.4925 190.064 20.6495C190.496 20.8066 190.929 21.0029 191.323 21.2777V16.8416H194.549V30.3854H191.323V29.7966C190.929 30.0714 190.496 30.2677 190.064 30.3854C189.631 30.5425 189.119 30.5817 188.608 30.5817C187.939 30.5817 187.27 30.464 186.68 30.1891C186.09 29.9143 185.539 29.561 185.107 29.0899C184.634 28.6188 184.28 28.0692 184.044 27.4804C183.769 26.8522 183.651 26.2241 183.651 25.5175C183.651 24.8108 183.769 24.1435 184.044 23.5153C184.32 22.8872 184.674 22.3376 185.107 21.9058C185.539 21.4347 186.09 21.0814 186.68 20.8066C187.31 20.5318 187.939 20.414 188.608 20.414Z" fill="#044B8D"/>
<path d="M196.949 20.4925H200.135V30.3461H196.949V20.4925ZM200.135 19.0007H196.949V16.8022H200.135V19.0007Z" fill="#044B8D"/>
<path d="M200.529 25.3604C200.529 24.536 200.686 23.8294 200.962 23.2405C201.237 22.6517 201.591 22.1413 202.024 21.7487C202.457 21.3561 202.968 21.0421 203.519 20.8065C204.07 20.571 204.62 20.414 205.171 20.2962C205.722 20.1784 206.233 20.1392 206.706 20.1392C207.178 20.1392 207.571 20.1784 207.886 20.2569V22.3376C207.571 22.2983 207.138 22.2983 206.666 22.3376C206.194 22.4161 205.722 22.5339 205.25 22.7694C204.778 23.005 204.384 23.319 204.07 23.7116C203.755 24.1042 203.598 24.6538 203.598 25.2819C203.598 25.91 203.755 26.4596 204.07 26.8522C204.384 27.2841 204.778 27.5981 205.25 27.7944C205.722 28.0299 206.155 28.1477 206.666 28.2262C207.138 28.2655 207.571 28.2655 207.886 28.187V30.3461C207.571 30.4247 207.178 30.4639 206.706 30.4639C206.233 30.4639 205.722 30.4247 205.171 30.3069C204.62 30.1891 204.07 30.0321 203.519 29.7965C202.968 29.561 202.457 29.2469 202.024 28.8544C201.591 28.4618 201.237 27.9514 200.962 27.3626C200.647 26.8915 200.529 26.1848 200.529 25.3604Z" fill="#044B8D"/>
<path d="M215.755 26.3419C215.479 26.2241 215.164 26.1456 214.81 26.0671C214.456 25.9886 214.102 25.9493 213.709 25.9493C213.001 25.9493 212.45 26.0671 212.056 26.3026C211.663 26.5382 211.466 26.8915 211.466 27.3233V27.3626C211.466 27.7552 211.624 28.03 211.978 28.2655C212.292 28.4618 212.725 28.5796 213.237 28.5796C213.984 28.5796 214.574 28.4225 215.046 28.1085C215.518 27.7944 215.755 27.3626 215.755 26.8522V26.3419ZM213.748 20.257C215.479 20.257 216.777 20.6495 217.564 21.3954C218.351 22.1413 218.784 23.2013 218.784 24.5753V30.3854H215.676V29.2862C215.282 29.6788 214.81 29.9928 214.26 30.2284C213.709 30.4639 213.04 30.5817 212.253 30.5817C211.702 30.5817 211.23 30.5032 210.758 30.3854C210.286 30.2677 209.892 30.0714 209.538 29.7966C209.184 29.5218 208.909 29.2077 208.712 28.8544C208.515 28.4618 208.397 28.03 208.397 27.5589V27.5196C208.397 26.97 208.515 26.4989 208.752 26.1063C208.988 25.7138 209.302 25.3604 209.696 25.1249C210.089 24.8501 210.561 24.6538 211.151 24.536C211.702 24.4183 212.332 24.3397 213.001 24.3397C213.591 24.3397 214.063 24.379 214.496 24.4575C214.928 24.536 215.361 24.6146 215.755 24.7323V24.5753C215.755 23.3583 214.968 22.7302 213.355 22.7302C212.646 22.7302 212.056 22.8087 211.545 22.9265V20.4532C211.899 20.3747 212.253 20.3355 212.607 20.2962C212.883 20.257 213.315 20.257 213.748 20.257Z" fill="#044B8D"/>
<path d="M225.59 20.414V22.1806V22.4554H222.6V26.3026C222.6 26.6559 222.679 26.97 222.797 27.2448C222.915 27.5589 223.23 27.7944 223.662 27.9514C223.977 28.0692 224.292 28.1477 224.646 28.2262C224.961 28.2655 225.275 28.3048 225.59 28.3048V30.5032H225C223.072 30.5032 221.656 30.1499 220.751 29.404C219.846 28.6581 219.374 27.6374 219.374 26.3026V18.7259H222.561V20.414H225.59Z" fill="#044B8D"/>
<path d="M231.019 28.2655C231.491 28.2655 231.885 28.187 232.2 28.03C232.514 27.873 232.75 27.6767 232.908 27.4019C233.065 27.1271 233.183 26.8523 233.262 26.4989C233.341 26.1456 233.341 25.753 233.341 25.3605C233.341 24.9679 233.301 24.5753 233.262 24.222C233.183 23.8687 233.065 23.5546 232.908 23.3191C232.75 23.0443 232.514 22.848 232.2 22.691C231.885 22.5339 231.491 22.4554 231.019 22.4554C230.547 22.4554 230.154 22.5339 229.839 22.691C229.524 22.848 229.288 23.0443 229.131 23.3191C228.974 23.5939 228.856 23.8687 228.777 24.222C228.698 24.5753 228.698 24.9679 228.698 25.3605C228.698 25.753 228.738 26.1456 228.777 26.4989C228.856 26.8523 228.974 27.1663 229.131 27.4019C229.288 27.6767 229.524 27.873 229.839 28.03C230.154 28.187 230.547 28.2655 231.019 28.2655ZM231.019 20.1785C231.767 20.1785 232.475 20.2962 233.144 20.571C233.813 20.8458 234.403 21.1992 234.875 21.6703C235.386 22.1413 235.78 22.691 236.055 23.3191C236.331 23.9472 236.488 24.6146 236.488 25.3605C236.488 26.1064 236.331 26.7345 236.055 27.3626C235.78 27.9907 235.386 28.5403 234.875 29.0114C234.363 29.4825 233.813 29.8358 233.144 30.1106C232.475 30.3855 231.767 30.5032 231.019 30.5032C230.272 30.5032 229.564 30.3855 228.895 30.1106C228.226 29.8358 227.636 29.4825 227.164 29.0114C226.652 28.5403 226.259 27.9907 225.984 27.3626C225.708 26.7345 225.551 26.0671 225.551 25.3605C225.551 24.6538 225.708 23.9865 225.984 23.3191C226.259 22.691 226.652 22.1413 227.164 21.6703C227.675 21.1992 228.226 20.8458 228.895 20.571C229.564 20.2962 230.272 20.1785 231.019 20.1785Z" fill="#044B8D"/>
<path d="M242.508 23.9472C243.098 24.065 243.609 24.222 244.081 24.4183C244.553 24.6146 244.947 24.8109 245.262 25.0464C245.576 25.282 245.812 25.596 246.009 25.9101C246.167 26.2634 246.245 26.656 246.245 27.0878C246.245 27.5196 246.127 27.9515 245.891 28.3833C245.655 28.8151 245.34 29.1685 244.908 29.4825C244.475 29.7966 243.963 30.0714 243.373 30.2677C242.783 30.464 242.154 30.5425 241.445 30.5425C240.855 30.5425 240.186 30.464 239.478 30.3069C238.77 30.1499 238.101 29.9536 237.511 29.6788V27.2056C238.101 27.5589 238.77 27.7944 239.439 27.9907C240.147 28.187 240.816 28.2655 241.445 28.3048C241.76 28.3048 241.996 28.3048 242.193 28.2263C242.39 28.1478 242.547 28.0692 242.626 27.9907C242.744 27.873 242.822 27.7944 242.822 27.6767C242.862 27.5589 242.862 27.4804 242.862 27.4019V27.1663C242.862 27.0486 242.822 26.97 242.704 26.8523C242.586 26.7345 242.429 26.6167 242.154 26.4989C241.878 26.3812 241.485 26.2634 240.973 26.1456C240.344 26.0279 239.793 25.8708 239.282 25.753C238.77 25.596 238.377 25.439 238.023 25.2427C237.669 25.0464 237.432 24.7716 237.275 24.4575C237.118 24.1435 237.039 23.7509 237.078 23.2406C237.118 22.8087 237.236 22.3769 237.472 22.0236C237.708 21.6703 238.023 21.3169 238.455 21.0421C238.849 20.7673 239.36 20.571 239.911 20.414C240.462 20.257 241.091 20.1785 241.76 20.1785C241.957 20.1785 242.114 20.1785 242.311 20.1785C242.508 20.1785 242.665 20.2177 242.822 20.2177V22.2591C242.665 22.2199 242.508 22.2199 242.35 22.2199C242.193 22.2199 242.036 22.2199 241.918 22.2199C241.367 22.2199 241.013 22.2984 240.777 22.4947C240.58 22.6517 240.462 22.848 240.462 23.0835C240.462 23.162 240.462 23.2406 240.501 23.3191C240.541 23.3976 240.619 23.4761 240.777 23.5154C240.895 23.5939 241.131 23.6724 241.367 23.7509C241.681 23.7902 242.036 23.8687 242.508 23.9472Z" fill="#044B8D"/>
<path d="M144.545 24.0648C144.545 23.2797 143.915 22.6123 143.089 22.6123C142.302 22.6123 141.633 23.2404 141.633 24.0648C141.633 24.85 142.263 25.5174 143.089 25.5174C143.876 25.5174 144.545 24.85 144.545 24.0648Z" fill="#044B8D"/>
<path d="M18.2155 28.1477C17.1533 28.4618 16.6812 28.5011 16.0517 28.4618C14.7927 28.3833 13.7698 27.6767 13.4551 26.4597H21.0482C21.0875 26.2241 21.0875 26.0278 21.0875 25.7923V25.753C21.0875 23.005 19.5532 20.4532 15.855 20.4532C12.6682 20.4532 10.5044 22.7694 10.5044 25.5567C10.5044 28.5011 12.6682 30.621 15.855 30.621C16.3271 30.621 17.0353 30.621 18.1762 30.3069V28.1477H18.2155ZM15.9337 22.6909C17.3107 22.6909 18.1368 23.5153 18.3336 24.7323H13.4944C13.7305 23.5153 14.596 22.6909 15.9337 22.6909Z" fill="#044B8D"/>
<path d="M53.2701 20.414C51.775 20.414 50.5948 20.8066 49.7686 21.474C48.9424 20.8066 47.8014 20.414 46.2671 20.414C42.8049 20.414 41.1919 22.4947 41.1919 25.1642V30.3854H44.3786V24.9679C44.418 23.9864 44.8114 22.8087 46.2671 22.8087C47.7228 22.8087 48.1162 23.9864 48.1949 24.9679V30.3854H51.3423H51.3816V24.9679C51.421 23.9864 51.8144 22.8087 53.2701 22.8087C54.6864 22.8087 55.1192 23.9864 55.1978 24.9679V30.3854H58.3452V25.1642C58.3452 22.4947 56.7322 20.414 53.2701 20.414Z" fill="#044B8D"/>
<path d="M3.77708 19.7074V22.2984H9.52109V24.9679H3.77708V30.3854H0.590332V17.0378H10.9374V19.7074H3.77708Z" fill="#044B8D"/>
<path d="M88.5993 20.6495H85.4126V30.3854H88.5993V20.6495Z" fill="#044B8D"/>
<path d="M88.5993 17.0378H85.4126V19.197H88.5993V17.0378Z" fill="#044B8D"/>
<path d="M29.2314 28.4225C28.9953 28.4617 28.7593 28.501 28.5232 28.501C26.5561 28.501 24.943 27.1662 24.943 25.5567C24.943 23.9078 26.5561 22.6123 28.5232 22.6123C28.7593 22.6123 28.9953 22.6123 29.2314 22.6516V20.5709C28.7986 20.4924 28.3658 20.4924 27.8544 20.4924C24.4316 20.4924 21.835 22.6909 21.835 25.5959C21.835 27.6373 23.0939 29.1684 24.6283 29.9535C25.6905 30.5031 26.7921 30.6602 27.7363 30.6602C28.2871 30.6602 28.7593 30.6209 29.192 30.5424V28.4225H29.2314Z" fill="#044B8D"/>
<path d="M34.9363 20.3747C31.9856 20.3747 29.5464 22.6516 29.5464 25.4782C29.5464 28.3047 31.9463 30.5817 34.9363 30.5817C37.887 30.5817 40.3262 28.3047 40.3262 25.4782C40.3262 22.6909 37.9264 20.3747 34.9363 20.3747ZM34.9363 28.344C33.0479 28.344 32.6544 27.0877 32.6544 25.5174C32.6544 23.9471 33.0479 22.6909 34.9363 22.6909C36.8248 22.6909 37.2182 23.9471 37.2182 25.5174C37.2182 27.0485 36.8248 28.344 34.9363 28.344Z" fill="#044B8D"/>
<path d="M83.9965 28.4225C83.7604 28.4617 83.5244 28.501 83.2883 28.501C81.3212 28.501 79.7082 27.1662 79.7082 25.5567C79.7082 23.9078 81.3212 22.6123 83.2883 22.6123C83.5244 22.6123 83.7604 22.6123 83.9965 22.6516V20.5709C83.5637 20.4924 83.131 20.4924 82.6195 20.4924C79.1967 20.4924 76.6001 22.6909 76.6001 25.5959C76.6001 27.6373 77.8591 29.1684 79.3934 29.9535C80.4557 30.5031 81.5573 30.6602 82.5015 30.6602C83.0523 30.6602 83.5244 30.6209 83.9572 30.5424V28.4225H83.9965Z" fill="#044B8D"/>
<path d="M94.7371 20.3747C91.7864 20.3747 89.3472 22.6516 89.3472 25.4782C89.3472 28.3047 91.7471 30.5817 94.7371 30.5817C97.6878 30.5817 100.127 28.3047 100.127 25.4782C100.127 22.6909 97.7271 20.3747 94.7371 20.3747ZM94.7371 28.344C92.8487 28.344 92.4552 27.0877 92.4552 25.5174C92.4552 23.9471 92.8487 22.6909 94.7371 22.6909C96.6255 22.6909 97.019 23.9471 97.019 25.5174C97.0583 27.0485 96.6649 28.344 94.7371 28.344Z" fill="#044B8D"/>
<path d="M76.7576 20.3355C76.7576 20.3355 76.2854 20.2962 75.9314 20.2962C72.6266 20.2962 70.6201 22.1021 70.6201 24.4968V30.3462H73.8462V24.6538C73.8462 23.4368 74.279 23.0835 74.9478 22.8087C75.3806 22.6124 76.0494 22.4946 76.7969 22.4554V20.3355H76.7576Z" fill="#044B8D"/>
<path d="M66.7644 28.1477C65.7021 28.4618 65.23 28.5011 64.6005 28.4618C63.3416 28.3833 62.3187 27.6767 62.0039 26.4597H69.597C69.6364 26.2241 69.6364 26.0278 69.6364 25.7923V25.753C69.6364 23.005 68.102 20.4532 64.4038 20.4532C61.2171 20.4532 59.0532 22.7694 59.0532 25.5567C59.0532 28.5011 61.2171 30.621 64.4038 30.621C64.8759 30.621 65.5841 30.621 66.725 30.3069V28.1477H66.7644ZM64.4825 22.6909C65.8595 22.6909 66.6857 23.5153 66.8824 24.7323H62.0433C62.2793 23.5153 63.1842 22.6909 64.4825 22.6909Z" fill="#044B8D"/>
<path d="M63.0659 19.2363L65.3084 15.8994L67.9051 16.9594L65.3478 19.2363H63.0659Z" fill="#044B8D"/>
<path d="M132.899 0H118.539C115.392 0 112.166 1.68808 110.71 2.74803C103.55 7.85153 100.009 18.2155 100.009 18.2155C100.992 16.4882 108.31 3.10135 118.264 3.10135H128.768C128.768 3.10135 128.808 4.82869 127.863 6.04568C133.529 4.08279 132.899 0 132.899 0Z" fill="#044B8D"/>
<path d="M120.31 7.06635C120.31 7.41967 120.231 8.40111 119.759 9.26478C124.441 8.8722 126.722 7.45893 127.785 6.04565C125.975 6.67378 123.575 7.06635 120.31 7.06635Z" fill="#044B8D"/>
<path d="M116.926 9.42184C116.926 9.42184 115.903 9.42184 114.015 9.38258C106.5 9.22555 102.92 14.6824 101.189 17.3519C102.92 15.546 106.343 12.1699 112.52 12.2876C117.319 12.3662 119.09 10.8351 119.798 9.34332C118.932 9.34332 117.988 9.42184 116.926 9.42184Z" fill="#044B8D"/>
<path d="M116.218 27.3233L116.1 26.97C115.943 26.4596 115.628 26.0278 115.274 25.6745L114.92 25.3604L115.313 25.1249C116.651 24.3397 117.359 23.0835 117.359 21.4739V21.4347C117.359 18.7259 115.235 16.9593 111.89 16.9593H106.776V30.2284H109.412V26.3419V25.9885H109.766H110.592C112.126 25.9885 113.149 26.5774 113.543 27.5981L114.566 30.1499H117.359L116.218 27.3233ZM114.684 21.4739C114.684 22.8872 113.543 24.3005 111.654 24.3005H109.727H109.372V23.9471V18.9614V18.6081H109.727H111.576C113.346 18.6081 114.644 19.7858 114.644 21.4347V21.4739H114.684Z" fill="#044B8D"/>
<path d="M124.48 22.4161C121.883 21.8273 121.214 21.5132 121.214 20.2962V20.257C121.214 19.5896 121.804 18.7652 123.496 18.7652C124.322 18.7652 125.227 19.04 125.778 19.2363V16.9201C125.699 16.9201 125.66 16.8808 125.581 16.8808C124.991 16.7631 124.244 16.606 123.535 16.606C120.427 16.606 118.342 18.1763 118.342 20.571V20.6103C118.342 23.0443 119.955 23.8687 123.299 24.6146C125.581 25.1249 126.368 25.5175 126.368 26.656V26.6952C126.368 27.6767 125.385 28.2655 123.85 28.2655C122.119 28.2655 120.939 27.6767 119.522 26.656L117.87 28.4618C119.641 29.7966 121.568 30.464 123.771 30.464C127.116 30.464 129.201 28.8937 129.201 26.3812V26.3419C129.201 24.3005 127.902 23.2406 124.48 22.4161Z" fill="#044B8D"/>
<path d="M83.7209 47.6588C84.5471 47.8158 85.1766 48.0513 85.57 48.3654C85.9634 48.6795 86.1602 49.072 86.1602 49.6216C86.1602 49.9357 86.0815 50.2105 85.9634 50.4853C85.8454 50.7601 85.6487 50.9957 85.4126 51.1919C85.1766 51.3882 84.9012 51.5453 84.5865 51.663C84.2717 51.7808 83.9176 51.8201 83.5635 51.8201C82.6193 51.8201 81.7931 51.5845 81.0456 51.1134L81.6358 50.6031C81.9505 50.7994 82.2259 50.9171 82.5406 50.9957C82.8554 51.0742 83.2095 51.1134 83.6029 51.1134C83.8389 51.1134 84.075 51.0742 84.3111 50.9957C84.5078 50.9171 84.7045 50.7994 84.8619 50.6816C85.0192 50.5638 85.1373 50.4068 85.2159 50.2498C85.2946 50.0927 85.334 49.8964 85.334 49.7394C85.334 49.5824 85.2946 49.4254 85.2553 49.3076C85.2159 49.1898 85.0979 49.072 84.9405 48.9543C84.7832 48.8365 84.5865 48.758 84.3504 48.6795C84.1143 48.6009 83.7603 48.5224 83.3668 48.4439C82.9341 48.3654 82.5406 48.2869 82.2259 48.1691C81.9112 48.0906 81.6358 47.9728 81.4391 47.8158C81.2423 47.698 81.085 47.5017 80.9669 47.3054C80.8489 47.1092 80.8096 46.8736 80.8096 46.5595C80.8096 46.2847 80.8883 46.0099 81.0063 45.7744C81.1243 45.5388 81.2817 45.3426 81.5177 45.1855C81.7538 45.0285 81.9898 44.8715 82.3046 44.793C82.6193 44.7144 82.9341 44.6359 83.2882 44.6359C83.6816 44.6359 84.0357 44.6752 84.3897 44.7537C84.7045 44.8322 85.0192 44.95 85.2946 45.107V46.0099C84.9799 45.7744 84.6258 45.6174 84.3111 45.4996C83.9963 45.3818 83.6422 45.3426 83.2882 45.3426C82.7767 45.3426 82.3833 45.4603 82.1079 45.6566C81.8325 45.8529 81.6751 46.1277 81.6751 46.481C81.6751 46.6381 81.7144 46.7951 81.7538 46.9129C81.8325 47.0306 81.9112 47.1092 82.0685 47.2269C82.2259 47.3054 82.4226 47.384 82.698 47.4625C82.9734 47.5017 83.3275 47.5802 83.7209 47.6588Z" fill="#044B8D"/>
<path d="M87.2617 46.5595H88.1273V51.7023H87.2617V46.5595ZM88.1273 45.3033H87.2617V44.6359H88.1273V45.3033Z" fill="#044B8D"/>
<path d="M91.3927 48.7579C91.6288 48.8364 91.8255 48.8757 92.0222 48.9542C92.2189 49.0327 92.4156 49.1112 92.6123 49.229C92.7697 49.3468 92.9271 49.4646 93.0451 49.6216C93.1631 49.7786 93.2025 49.9749 93.2025 50.2104V50.2497C93.2025 50.4852 93.1631 50.7208 93.0451 50.9171C92.9271 51.1134 92.809 51.2704 92.6123 51.3882C92.4156 51.5059 92.2189 51.6237 91.9828 51.7022C91.7468 51.7808 91.4714 51.82 91.196 51.82C90.8812 51.82 90.5272 51.7808 90.2124 51.7022C89.8977 51.6237 89.5829 51.5059 89.2682 51.3489V50.5245C89.5829 50.7208 89.8977 50.8778 90.2124 50.9956C90.5272 51.1134 90.8812 51.1526 91.196 51.1526C91.5501 51.1526 91.8255 51.0741 92.0222 50.9171C92.2582 50.7601 92.3369 50.5638 92.3369 50.3282V50.289C92.3369 50.1712 92.2976 50.0534 92.2189 49.9749C92.1402 49.8964 92.0222 49.8179 91.9042 49.7394C91.7861 49.6608 91.6288 49.6216 91.4714 49.5431C91.314 49.4646 91.1173 49.4253 90.9599 49.386C90.7239 49.3075 90.5272 49.2683 90.2911 49.1897C90.0551 49.1112 89.8583 49.0327 89.701 48.9149C89.5043 48.7972 89.3862 48.6794 89.2682 48.5224C89.1502 48.3653 89.1108 48.169 89.1108 47.9335C89.1108 47.698 89.1502 47.5017 89.2682 47.3446C89.3469 47.1484 89.5043 46.9913 89.6616 46.8735C89.819 46.7558 90.0157 46.638 90.2518 46.5595C90.4878 46.481 90.7239 46.4417 90.9993 46.4417C91.2353 46.4417 91.4321 46.481 91.6681 46.5202C91.9042 46.5595 92.1009 46.638 92.3369 46.7165V47.4624C91.8648 47.2269 91.432 47.1484 90.9599 47.1484C90.6059 47.1484 90.3698 47.2269 90.1731 47.3446C89.9764 47.5017 89.8977 47.6587 89.8977 47.855C89.8977 47.9728 89.937 48.0905 90.0157 48.1691C90.0944 48.2476 90.2124 48.3261 90.3305 48.4046C90.4485 48.4831 90.6059 48.5224 90.8026 48.6009C90.9993 48.6794 91.196 48.7187 91.3927 48.7579Z" fill="#044B8D"/>
<path d="M96.7432 51.7024H96.3105C95.7597 51.7024 95.3269 51.5454 95.0122 51.2706C94.6974 50.9565 94.54 50.5247 94.54 49.9751V45.696H95.4056V46.6382H96.7432V47.3055H95.4056V49.9751C95.4056 50.721 95.7203 51.0743 96.3891 51.0743H96.7039V51.7024H96.7432Z" fill="#044B8D"/>
<path d="M100.206 47.1092C99.9696 47.1092 99.7335 47.1484 99.5368 47.227C99.3401 47.3055 99.1434 47.4233 98.986 47.5803C98.8287 47.7373 98.7106 47.9336 98.5926 48.1299C98.4746 48.3262 98.4352 48.5617 98.3959 48.8365H102.015C101.976 48.601 101.937 48.4047 101.858 48.1692C101.779 47.9729 101.661 47.7766 101.504 47.6195C101.347 47.4625 101.189 47.3447 100.953 47.227C100.717 47.1484 100.481 47.1092 100.206 47.1092ZM101.976 51.3883C101.74 51.506 101.504 51.6238 101.229 51.7023C100.953 51.7809 100.638 51.8201 100.284 51.8201C99.8909 51.8201 99.5368 51.7416 99.1827 51.6238C98.8287 51.506 98.5533 51.3098 98.2779 51.0742C98.0418 50.8387 97.8451 50.5639 97.6877 50.2498C97.5303 49.9357 97.4517 49.5432 97.4517 49.1506C97.4517 48.7973 97.5303 48.444 97.6484 48.1299C97.7664 47.8158 97.9631 47.541 98.1992 47.2662C98.4352 47.0307 98.7106 46.8344 99.0647 46.7166C99.3794 46.5596 99.7335 46.5203 100.127 46.5203C100.56 46.5203 100.914 46.5988 101.229 46.7166C101.543 46.8736 101.819 47.0307 102.055 47.3055C102.291 47.541 102.448 47.8158 102.566 48.1692C102.684 48.4832 102.763 48.8365 102.763 49.2291V49.3469C102.763 49.3861 102.763 49.4254 102.763 49.4646H98.3172C98.3565 49.7395 98.4352 49.975 98.5533 50.2105C98.6713 50.4068 98.8287 50.6031 98.986 50.7602C99.1827 50.9172 99.3795 51.035 99.5762 51.1135C99.8122 51.192 100.048 51.2312 100.284 51.2312C100.638 51.2312 100.953 51.192 101.229 51.0742C101.504 50.9564 101.74 50.8387 101.937 50.6424V51.3883H101.976Z" fill="#044B8D"/>
<path d="M110.199 46.4417C110.553 46.4417 110.868 46.5202 111.143 46.638C111.458 46.7558 111.694 46.9521 111.93 47.1484C112.166 47.3839 112.323 47.6194 112.441 47.9335C112.559 48.2083 112.638 48.5224 112.638 48.8757V51.7022H111.812V50.6815V48.8757C111.812 48.6401 111.772 48.4439 111.694 48.2476C111.615 48.0513 111.536 47.855 111.379 47.698C111.261 47.5409 111.064 47.3839 110.868 47.3054C110.671 47.1876 110.435 47.1484 110.159 47.1484C109.884 47.1484 109.648 47.1876 109.451 47.3054C109.254 47.4232 109.097 47.5409 108.94 47.698C108.782 47.855 108.704 48.0513 108.625 48.2476C108.546 48.4439 108.507 48.6794 108.507 48.8757V51.7022H107.681V48.8757C107.681 48.6401 107.641 48.4439 107.563 48.2476C107.484 48.0513 107.405 47.855 107.248 47.698C107.091 47.5409 106.933 47.3839 106.737 47.3054C106.54 47.1876 106.304 47.1484 106.028 47.1484C105.753 47.1484 105.517 47.1876 105.32 47.3054C105.124 47.4232 104.966 47.5409 104.809 47.698C104.691 47.855 104.573 48.0513 104.494 48.2476C104.415 48.4439 104.376 48.6794 104.376 48.8757V50.6815V51.7022H103.55V48.8757C103.55 48.5224 103.628 48.2083 103.747 47.9335C103.865 47.6587 104.061 47.3839 104.258 47.1484C104.494 46.9128 104.73 46.7558 105.045 46.638C105.36 46.5202 105.674 46.4417 105.989 46.4417C106.422 46.4417 106.815 46.5202 107.169 46.7165C107.523 46.9128 107.799 47.1876 108.035 47.5017C108.271 47.1876 108.546 46.9128 108.9 46.7165C109.373 46.5595 109.766 46.4417 110.199 46.4417Z" fill="#044B8D"/>
<path d="M118.028 49.2683C117.831 49.229 117.555 49.1505 117.201 49.1112C116.887 49.072 116.533 49.0327 116.178 49.0327C115.628 49.0327 115.234 49.1112 114.998 49.3075C114.762 49.5038 114.605 49.7786 114.605 50.0927C114.605 50.446 114.723 50.6815 114.998 50.8778C115.234 51.0741 115.549 51.1526 115.942 51.1526C116.218 51.1526 116.454 51.1134 116.69 51.0349C116.926 50.9563 117.162 50.8778 117.359 50.7601C117.555 50.6423 117.713 50.4853 117.831 50.3282C117.949 50.1712 118.028 49.9749 118.028 49.7394V49.2683ZM116.414 46.4417C117.201 46.4417 117.791 46.5987 118.185 46.9521C118.578 47.3054 118.814 47.8157 118.814 48.5224V51.663H118.028V50.8778C117.91 50.9956 117.791 51.1134 117.634 51.2311C117.477 51.3489 117.319 51.4274 117.123 51.5059C116.926 51.5845 116.729 51.663 116.493 51.7022C116.257 51.7415 116.021 51.7808 115.785 51.7808C115.51 51.7808 115.274 51.7415 115.037 51.663C114.801 51.5845 114.565 51.5059 114.408 51.3489C114.211 51.2311 114.093 51.0349 113.975 50.8386C113.857 50.6423 113.818 50.4067 113.818 50.1319C113.818 49.5823 114.015 49.1505 114.447 48.8757C114.88 48.6009 115.431 48.4439 116.139 48.4439C116.493 48.4439 116.847 48.4831 117.162 48.5224C117.477 48.5616 117.791 48.6009 118.028 48.6794V48.5224C118.028 48.0513 117.87 47.698 117.595 47.4624C117.319 47.2269 116.887 47.1091 116.375 47.1091C116.021 47.1091 115.746 47.1483 115.47 47.2269C115.195 47.3054 114.919 47.3839 114.683 47.5017V46.7558C114.959 46.638 115.234 46.5595 115.51 46.5202C115.746 46.481 116.06 46.4417 116.414 46.4417Z" fill="#044B8D"/>
<path d="M126.998 51.7808C126.801 51.8201 126.604 51.8201 126.408 51.8201C125.857 51.8201 125.345 51.7416 124.873 51.5453C124.401 51.349 124.008 51.1134 123.654 50.7994C123.299 50.4853 123.063 50.0927 122.867 49.6609C122.67 49.2291 122.591 48.758 122.591 48.2476C122.591 47.7373 122.67 47.3054 122.867 46.8343C123.063 46.4025 123.339 46.0099 123.654 45.6959C124.008 45.3818 124.401 45.107 124.873 44.9107C125.345 44.7144 125.857 44.6359 126.408 44.6359C126.604 44.6359 126.801 44.6359 126.958 44.6752V45.3818C126.88 45.3818 126.762 45.3426 126.683 45.3426C126.604 45.3426 126.486 45.3426 126.408 45.3426C125.975 45.3426 125.581 45.4211 125.227 45.5781C124.873 45.7351 124.558 45.9314 124.283 46.167C124.008 46.4418 123.811 46.7166 123.654 47.0699C123.496 47.4232 123.417 47.7765 123.417 48.2084C123.417 48.6402 123.496 48.9935 123.654 49.3468C123.811 49.7002 124.008 50.0142 124.283 50.2498C124.558 50.5246 124.873 50.7209 125.227 50.8386C125.581 50.9957 125.975 51.0742 126.408 51.0742C126.526 51.0742 126.604 51.0742 126.683 51.0742C126.762 51.0742 126.88 51.0742 126.958 51.0349V51.7808H126.998Z" fill="#044B8D"/>
<path d="M130.106 47.1484C129.791 47.1484 129.516 47.1877 129.279 47.3054C129.043 47.4232 128.847 47.541 128.65 47.7373C128.493 47.9335 128.335 48.1298 128.257 48.3654C128.178 48.6009 128.139 48.8757 128.139 49.1505C128.139 49.4253 128.178 49.7001 128.296 49.9357C128.375 50.1712 128.532 50.4068 128.689 50.5638C128.847 50.7601 129.083 50.8779 129.319 50.9956C129.555 51.1134 129.83 51.1527 130.145 51.1527C130.46 51.1527 130.735 51.1134 130.971 50.9956C131.207 50.8779 131.404 50.7601 131.601 50.5638C131.758 50.3675 131.915 50.1712 131.994 49.9357C132.073 49.7001 132.151 49.4253 132.151 49.1505C132.151 48.8757 132.112 48.6009 131.994 48.3654C131.915 48.1298 131.758 47.8943 131.601 47.7373C131.443 47.541 131.207 47.4232 130.971 47.3054C130.696 47.1877 130.42 47.1484 130.106 47.1484ZM130.106 51.8201C129.673 51.8201 129.279 51.7415 128.925 51.6238C128.571 51.4667 128.257 51.3097 128.021 51.0349C127.745 50.7994 127.548 50.5246 127.43 50.1712C127.273 49.8572 127.194 49.5039 127.194 49.1505C127.194 48.7972 127.273 48.4439 127.43 48.1298C127.588 47.8158 127.784 47.5017 128.021 47.2662C128.296 47.0306 128.611 46.8343 128.965 46.6773C129.319 46.5203 129.712 46.481 130.145 46.481C130.578 46.481 130.971 46.5595 131.325 46.6773C131.679 46.8343 131.994 46.9914 132.27 47.2662C132.545 47.5017 132.742 47.7765 132.86 48.1298C133.017 48.4439 133.096 48.7972 133.096 49.1505C133.096 49.5039 133.017 49.8572 132.86 50.1712C132.702 50.4853 132.506 50.7601 132.23 51.0349C131.955 51.2704 131.64 51.4667 131.286 51.6238C130.932 51.7415 130.538 51.8201 130.106 51.8201Z" fill="#044B8D"/>
<path d="M140.295 46.4417C140.649 46.4417 140.964 46.5202 141.24 46.638C141.554 46.7558 141.79 46.9521 142.026 47.1484C142.263 47.3446 142.42 47.6194 142.538 47.9335C142.656 48.2083 142.735 48.5224 142.735 48.8757V51.7022H141.908V50.6815V48.8757C141.908 48.6401 141.869 48.4439 141.79 48.2476C141.712 48.0513 141.633 47.855 141.476 47.698C141.358 47.5409 141.161 47.3839 140.964 47.3054C140.767 47.1876 140.531 47.1484 140.256 47.1484C139.981 47.1484 139.745 47.1876 139.548 47.3054C139.351 47.4232 139.194 47.5409 139.036 47.698C138.879 47.855 138.8 48.0513 138.722 48.2476C138.643 48.4439 138.604 48.6794 138.604 48.8757V51.7022H137.777V48.8757C137.777 48.6401 137.738 48.4439 137.659 48.2476C137.581 48.0513 137.502 47.855 137.345 47.698C137.187 47.5409 137.03 47.3839 136.833 47.3054C136.637 47.1876 136.4 47.1484 136.125 47.1484C135.85 47.1484 135.614 47.1876 135.417 47.3054C135.22 47.4232 135.063 47.5409 134.905 47.698C134.787 47.855 134.669 48.0513 134.591 48.2476C134.512 48.4439 134.473 48.6794 134.473 48.8757V50.6815V51.7022H133.646V48.8757C133.646 48.5224 133.725 48.2083 133.843 47.9335C133.961 47.6587 134.158 47.3839 134.355 47.1484C134.591 46.9128 134.827 46.7558 135.142 46.638C135.456 46.5202 135.771 46.4417 136.086 46.4417C136.518 46.4417 136.912 46.5202 137.266 46.7165C137.62 46.9128 137.895 47.1876 138.132 47.5017C138.368 47.1876 138.643 46.9128 138.997 46.7165C139.469 46.5595 139.863 46.4417 140.295 46.4417Z" fill="#044B8D"/>
<path d="M146.118 45.8137L147.062 44.6359H148.085L146.748 45.8137H146.118ZM146.59 47.1092C146.354 47.1092 146.118 47.1484 145.921 47.2269C145.725 47.3054 145.528 47.4232 145.371 47.5802C145.213 47.7373 145.095 47.9336 144.977 48.1299C144.859 48.3261 144.82 48.5617 144.78 48.8365H148.4C148.361 48.6009 148.321 48.4047 148.243 48.1691C148.164 47.9728 148.046 47.7765 147.888 47.6195C147.731 47.4625 147.574 47.3447 147.338 47.2269C147.141 47.1484 146.866 47.1092 146.59 47.1092ZM148.4 51.3882C148.164 51.506 147.928 51.6238 147.652 51.7023C147.377 51.7808 147.062 51.8201 146.708 51.8201C146.315 51.8201 145.961 51.7416 145.607 51.6238C145.252 51.506 144.977 51.3097 144.702 51.0742C144.466 50.8386 144.269 50.5638 144.112 50.2498C143.954 49.9357 143.875 49.5431 143.875 49.1506C143.875 48.7972 143.954 48.4439 144.072 48.1299C144.19 47.8158 144.387 47.541 144.623 47.2662C144.859 47.0306 145.134 46.8343 145.489 46.7166C145.803 46.5595 146.157 46.5203 146.551 46.5203C146.984 46.5203 147.338 46.5988 147.652 46.7166C147.967 46.8736 148.243 47.0306 148.479 47.3054C148.715 47.541 148.872 47.8158 148.99 48.1691C149.108 48.4832 149.187 48.8365 149.187 49.2291V49.3468C149.187 49.3861 149.187 49.4254 149.187 49.4646H144.741C144.78 49.7394 144.859 49.975 144.977 50.2105C145.095 50.4068 145.252 50.6031 145.41 50.7601C145.607 50.9171 145.803 51.0349 146 51.1134C146.236 51.1919 146.472 51.2312 146.708 51.2312C147.062 51.2312 147.377 51.1919 147.652 51.0742C147.928 50.9564 148.164 50.8386 148.361 50.6423V51.3882H148.4Z" fill="#044B8D"/>
<path d="M152.689 46.4811V47.2269H152.374C152.138 47.2269 151.941 47.2662 151.744 47.3447C151.548 47.4232 151.39 47.541 151.233 47.698C151.075 47.8551 150.957 48.0121 150.879 48.2084C150.8 48.4047 150.761 48.601 150.761 48.8365V50.6424V51.6238H149.935V48.7973C149.935 48.4832 150.013 48.1691 150.131 47.8551C150.249 47.5803 150.446 47.3055 150.643 47.0699C150.879 46.8344 151.115 46.6773 151.43 46.5596C151.744 46.4418 152.059 46.3633 152.374 46.3633H152.689V46.4811Z" fill="#044B8D"/>
<path d="M156.347 51.7808C156.19 51.8201 156.033 51.8201 155.875 51.8201C155.443 51.8201 155.049 51.7415 154.656 51.6238C154.262 51.4667 153.948 51.3097 153.672 51.0349C153.397 50.7994 153.2 50.5246 153.043 50.1712C152.885 49.8572 152.807 49.5039 152.807 49.1505C152.807 48.7972 152.885 48.4439 153.043 48.1298C153.2 47.8158 153.397 47.5017 153.672 47.2662C153.948 47.0306 154.262 46.8343 154.656 46.6773C155.049 46.5203 155.443 46.481 155.875 46.481C156.033 46.481 156.19 46.481 156.347 46.5203V47.1877C156.19 47.1484 156.033 47.1484 155.875 47.1484C155.561 47.1484 155.285 47.1877 155.01 47.3054C154.734 47.4232 154.538 47.541 154.341 47.7373C154.144 47.9335 153.987 48.1298 153.908 48.3654C153.79 48.6009 153.751 48.8757 153.751 49.1505C153.751 49.4253 153.79 49.7001 153.908 49.9357C154.026 50.1712 154.184 50.4068 154.38 50.5638C154.577 50.7601 154.813 50.8779 155.089 50.9956C155.364 51.1134 155.639 51.1527 155.954 51.1527C156.111 51.1527 156.269 51.1527 156.387 51.1134V51.7808H156.347Z" fill="#044B8D"/>
<path d="M157.449 46.5595H158.314V51.7023H157.449V46.5595ZM158.354 45.3033H157.488V44.6359H158.354V45.3033Z" fill="#044B8D"/>
<path d="M162.013 47.1484C161.698 47.1484 161.422 47.1877 161.186 47.3054C160.95 47.4232 160.754 47.541 160.557 47.7373C160.4 47.9335 160.242 48.1298 160.164 48.3654C160.085 48.6009 160.045 48.8757 160.045 49.1505C160.045 49.4253 160.085 49.7001 160.203 49.9357C160.282 50.1712 160.439 50.4068 160.596 50.5638C160.754 50.7601 160.99 50.8779 161.226 50.9956C161.462 51.1134 161.737 51.1527 162.052 51.1527C162.367 51.1527 162.642 51.1134 162.878 50.9956C163.114 50.8779 163.311 50.7601 163.508 50.5638C163.665 50.3675 163.822 50.1712 163.901 49.9357C163.98 49.7001 164.058 49.4253 164.058 49.1505C164.058 48.8757 164.019 48.6009 163.901 48.3654C163.822 48.1298 163.665 47.8943 163.508 47.7373C163.35 47.541 163.114 47.4232 162.878 47.3054C162.603 47.1877 162.327 47.1484 162.013 47.1484ZM162.052 51.8201C161.619 51.8201 161.226 51.7415 160.872 51.6238C160.518 51.4667 160.203 51.3097 159.967 51.0349C159.691 50.7994 159.495 50.5246 159.377 50.1712C159.219 49.8572 159.141 49.5039 159.141 49.1505C159.141 48.7972 159.219 48.4439 159.377 48.1298C159.534 47.8158 159.731 47.5017 159.967 47.2662C160.242 47.0306 160.557 46.8343 160.911 46.6773C161.265 46.5203 161.659 46.481 162.091 46.481C162.524 46.481 162.918 46.5595 163.272 46.6773C163.626 46.8343 163.94 46.9914 164.216 47.2662C164.491 47.5017 164.688 47.7765 164.806 48.1298C164.963 48.4439 165.042 48.7972 165.042 49.1505C165.042 49.5039 164.963 49.8572 164.806 50.1712C164.649 50.4853 164.452 50.7601 164.176 51.0349C163.901 51.2704 163.586 51.4667 163.232 51.6238C162.839 51.7415 162.445 51.8201 162.052 51.8201Z" fill="#044B8D"/>
<path d="M246.206 49.0328H173.068V49.5031H246.206V49.0328Z" fill="#044B8D"/>
<path d="M72.7444 49.0328H0V49.5031H72.7444V49.0328Z" fill="#044B8D"/>
</svg>
