<svg width="26" height="23" viewBox="0 0 26 23" fill="none" xmlns="http://www.w3.org/2000/svg">
<path d="M0 2.14285C0 1.11562 0.829911 0.285706 1.85714 0.285706H24.1429C25.1701 0.285706 26 1.11562 26 2.14285C26 3.17008 25.1701 3.99999 24.1429 3.99999H1.85714C0.829911 3.99999 0 3.17008 0 2.14285ZM0 11.4286C0 10.4013 0.829911 9.57142 1.85714 9.57142H24.1429C25.1701 9.57142 26 10.4013 26 11.4286C26 12.4558 25.1701 13.2857 24.1429 13.2857H1.85714C0.829911 13.2857 0 12.4558 0 11.4286ZM26 20.7143C26 21.7415 25.1701 22.5714 24.1429 22.5714H1.85714C0.829911 22.5714 0 21.7415 0 20.7143C0 19.687 0.829911 18.8571 1.85714 18.8571H24.1429C25.1701 18.8571 26 19.687 26 20.7143Z" fill="white"/>
</svg>
