<svg width="86" height="84" viewBox="0 0 86 84" fill="none" xmlns="http://www.w3.org/2000/svg">
<g clip-path="url(#clip0_157_479)">
<path d="M34.7037 81.2106C13.4091 76.4626 -0.065084 55.2898 4.66146 34.0168C9.39158 12.7402 30.5608 -0.705415 51.8553 4.04619C73.1498 8.7978 86.624 29.967 81.8975 51.24C77.1674 72.5131 55.9982 85.9586 34.7037 81.2106ZM51.7013 4.74801C30.7935 0.085923 10.0075 13.2844 5.36686 34.1708C0.722673 55.0571 13.957 75.8431 34.8612 80.5052C55.769 85.1673 76.5515 71.9688 81.1957 51.0825C85.8399 30.1962 72.6091 9.41011 51.7013 4.74801Z" fill="white"/>
<path d="M62.533 8.11031C59.2674 6.28772 55.6867 4.89841 51.8553 4.04619C30.5608 -0.705415 9.39159 12.7402 4.66147 34.0168C0.783553 51.462 9.1481 68.8392 24.026 77.1465C27.2916 78.9691 30.8723 80.3584 34.7037 81.2106C55.9982 85.9586 77.1674 72.5131 81.8975 51.24C85.7754 33.7948 77.4109 16.4176 62.533 8.11031ZM24.3769 76.5127C9.77115 68.3594 1.56057 51.2973 5.36687 34.1708C10.0075 13.2844 30.7935 0.085923 51.7013 4.74801C55.4647 5.5859 58.9773 6.95016 62.1857 8.74051C76.7914 16.8974 85.002 33.9559 81.1957 51.0825C76.5551 71.9688 55.769 85.1673 34.8612 80.5052C31.0979 79.6673 27.5852 78.3031 24.3769 76.5127Z" fill="white"/>
<path d="M38.0624 66.0965C25.111 63.2068 16.9111 50.327 19.7864 37.3863C22.6618 24.4456 35.5416 16.2672 48.493 19.1569C61.4445 22.0465 69.6443 34.9228 66.769 47.867C63.8937 60.8077 51.0139 68.9861 38.0624 66.0965ZM48.3999 19.5866C35.6848 16.7506 23.0413 24.7786 20.2161 37.483C17.3909 50.1873 25.4404 62.8308 38.1555 65.6668C50.8706 68.5027 63.5141 60.4747 66.3393 47.7704C69.1645 35.066 61.1151 22.4225 48.3999 19.5866Z" fill="white"/>
<path d="M54.992 21.6311C53.0047 20.5211 50.8276 19.6761 48.4966 19.1569C35.5451 16.2672 22.6653 24.4456 19.79 37.3863C17.4303 47.9959 22.5185 58.5662 31.5705 63.6222C33.5578 64.7322 35.7349 65.5737 38.066 66.0965C51.0174 68.9861 63.8972 60.8077 66.7725 47.867C69.1322 37.2538 64.044 26.6871 54.992 21.6311ZM31.7818 63.239C22.8981 58.2798 17.903 47.8993 20.2161 37.483C23.0413 24.7786 35.6848 16.7506 48.3999 19.5866C50.6916 20.0986 52.8257 20.9257 54.7772 22.0143C63.6609 26.9771 68.656 37.3541 66.3393 47.7704C63.5141 60.4747 50.8706 68.5027 38.1555 65.6668C35.8638 65.1547 33.7297 64.3276 31.7782 63.239" fill="white"/>
<path d="M27.7142 39.9143L27.6354 40.2616C27.4098 41.2785 26.9228 42.6678 25.0394 42.2453C23.3887 41.8765 23.2705 40.7701 23.5713 39.413L24.5667 34.9263C24.8711 33.5549 25.6982 32.7815 27.0983 33.093C28.7669 33.4654 28.8421 34.6435 28.5664 35.8752L28.4769 36.2727L27.1019 35.9648L27.2272 35.4062C27.3597 34.8153 27.2952 34.4465 26.8154 34.3391C26.3464 34.2353 26.1243 34.5253 25.9883 35.134L24.9427 39.8391C24.8138 40.4192 24.8281 40.8954 25.3509 41.0136C25.8451 41.1246 26.0635 40.7629 26.2139 40.1005L26.3249 39.6028L27.7142 39.9107V39.9143Z" fill="white"/>
<path d="M33.6688 37.1714L32.745 41.3251C32.3654 43.0295 31.4631 43.674 29.9556 43.3374C28.509 43.0152 28.0399 42.0412 28.4088 40.3833L29.3397 36.1939C29.7193 34.4895 30.7505 33.9058 32.079 34.1994C33.4289 34.5002 34.052 35.4563 33.6724 37.1678M30.7684 36.3801L29.773 40.856C29.6083 41.5972 29.7981 42.0018 30.2922 42.1128C30.8257 42.231 31.1373 41.9624 31.3091 41.1782L32.301 36.7131C32.4585 36.0077 32.3261 35.5673 31.771 35.4455C31.2769 35.3345 30.9332 35.6281 30.7649 36.3837" fill="white"/>
<path d="M38.5064 41.6365C38.843 40.1255 39.2762 38.2456 39.5305 37.2323H39.5161C38.9683 38.729 37.6756 42.2202 36.716 44.7124L35.4198 44.4223C35.6454 42.0483 35.9927 38.1382 36.1503 36.466L36.1252 36.4588C35.9211 37.5008 35.5165 39.5239 35.1763 41.0529L34.4745 44.2075L33.2284 43.9318L35.2049 35.0337L37.2495 35.4884C37.092 37.8267 36.8879 40.4406 36.7303 41.7153H36.7447C37.1708 40.4907 38.2414 37.9484 39.0721 35.8966L41.0487 36.3371L39.0721 45.2352L37.7652 44.9451L38.5028 41.6365H38.5064Z" fill="white"/>
<path d="M44.5077 42.1844L42.5491 41.7475L41.926 44.5477L44.1819 45.0525L43.7271 46.2771L40.2717 45.5073L42.2483 36.6092L45.6893 37.3755L45.4065 38.6502L43.3404 38.1883L42.8284 40.4871L44.787 40.924L44.5077 42.188V42.1844ZM46.6633 35.603L44.6653 36.577L43.3798 36.2905L44.9732 35.2271L46.6633 35.603Z" fill="white"/>
<path d="M46.8208 42.7896L45.9364 46.7677L44.5614 46.4634L46.538 37.5653L48.4393 37.9878C49.7928 38.2886 50.4732 39.0119 50.1187 40.6125L50.0435 40.9527C49.7391 42.3205 49.1017 42.5425 48.7258 42.607C49.1913 42.965 49.4061 43.4055 49.1376 44.6122C48.9693 45.3605 48.6363 46.8036 48.6112 47.3621L47.2863 47.0649C47.2863 46.5028 47.6372 45.0454 47.7805 44.4009C48.0204 43.3159 47.938 43.0366 47.1395 42.8576L46.8208 42.786V42.7896ZM47.0715 41.6581L47.3866 41.7297C48.1135 41.8908 48.4429 41.676 48.6577 40.7092L48.7258 40.4048C48.8797 39.7173 48.8296 39.2661 48.049 39.0943L47.6623 39.0083L47.0715 41.6616V41.6581Z" fill="white"/>
<path d="M54.0969 45.7973L54.0181 46.1446C53.7925 47.1615 53.3055 48.5509 51.4221 48.1283C49.7714 47.7595 49.6532 46.6531 49.954 45.296L50.9494 40.8094C51.2538 39.4344 52.0809 38.6645 53.481 38.976C55.1496 39.3484 55.2248 40.5265 54.9491 41.7582L54.8596 42.1557L53.4846 41.8478L53.6099 41.2892C53.7424 40.6984 53.6779 40.3295 53.1981 40.2257C52.729 40.1219 52.507 40.4119 52.371 41.0206L51.3254 45.7257C51.1965 46.3058 51.2108 46.782 51.7336 46.9002C52.2277 47.0112 52.4462 46.6495 52.5966 45.9871L52.7076 45.4894L54.0969 45.7973Z" fill="white"/>
<path d="M56.2858 39.7368L54.3087 48.6327L55.6824 48.938L57.6595 40.0421L56.2858 39.7368Z" fill="white"/>
<path d="M62.49 43.6023L61.5662 47.756C61.1866 49.4604 60.2843 50.1049 58.7768 49.7683C57.3302 49.4461 56.8611 48.4721 57.2299 46.8142L58.1609 42.6248C58.5405 40.9204 59.5717 40.3367 60.9002 40.6303C62.2501 40.9311 62.8731 41.8872 62.4936 43.5988M59.5896 42.811L58.5942 47.2869C58.4295 48.0281 58.6192 48.4327 59.1134 48.5437C59.6469 48.6619 59.9584 48.3933 60.1303 47.6092L61.1222 43.144C61.2797 42.4386 61.1472 41.9982 60.5922 41.8764C60.0981 41.7654 59.7543 42.059 59.586 42.8146" fill="white"/>
<path d="M8.26013 41.4325L8.3783 39.6171C8.47856 38.0881 9.23051 37.5474 10.5267 37.6298L10.8526 37.6513C12.1058 37.7336 12.4388 38.1919 12.5749 38.5858C12.7575 38.2027 13.1263 37.6333 14.4118 37.7193L15.0814 37.7623C16.5746 37.8589 17.3229 38.5321 17.2227 40.0718L17.0973 42.0054L8.26013 41.4289V41.4325ZM11.9662 40.0074C12.0163 39.2447 11.7943 39.0012 10.917 38.9439L10.5733 38.9224C9.83923 38.8759 9.53845 39.1158 9.49906 39.7675L9.47041 40.19L11.9447 40.3511L11.9662 40.0074ZM16.0697 40.6197L16.0983 40.1649C16.1484 39.3772 15.8154 39.1587 14.9597 39.105L14.3724 39.0656C13.5095 39.0083 13.1263 39.2053 13.069 40.0718L13.0475 40.4227L16.0697 40.6197Z" fill="white"/>
<path d="M14.29 33.2792L13.8531 35.177L16.5709 35.8L17.0722 33.6158L18.2574 34.067L17.4876 37.4149L8.85803 35.4276L9.62789 32.094L10.8597 32.3805L10.4013 34.3821L12.6285 34.8941L13.0654 32.9963L14.29 33.2792Z" fill="white"/>
<path d="M18.3792 33.6158L10.208 30.207L10.8167 28.7496C12.1058 28.9036 16.5459 29.6126 17.0149 29.7093L17.0221 29.6949C15.9909 29.3333 14.8415 28.857 13.4987 28.2949L11.3753 27.4104L11.8623 26.2467L20.0335 29.6555L19.4463 31.0592C18.3613 30.9088 13.4271 30.1246 13.0475 30.0637V30.0745C14.0573 30.429 15.1637 30.8945 16.6318 31.5104L18.8662 32.4413L18.3756 33.6158H18.3792Z" fill="white"/>
<path d="M18.7731 26.7408L19.2314 27.038C19.7865 27.3925 20.2018 27.4283 20.4811 26.9915C20.7712 26.5439 20.4202 26.1536 19.9369 25.8457C19.1384 25.33 18.7767 25.3444 17.6345 25.7347C16.485 26.1285 15.8047 26.2932 14.7054 25.5843C13.7243 24.9541 12.9258 24.0195 13.7923 22.6767C14.6804 21.3053 15.7975 21.7243 16.6032 22.2435L17.0007 22.4977L16.2666 23.6364L15.8978 23.4C15.3786 23.067 15.0098 22.9524 14.7627 23.332C14.5228 23.7044 14.7842 24.0123 15.2748 24.331C15.8011 24.6676 16.1234 24.7356 17.0221 24.3883C18.5654 23.8046 19.2637 23.7724 20.5062 24.5745C21.5625 25.2548 22.3252 26.2682 21.4264 27.6575C20.5384 29.0325 19.4463 28.8033 18.4652 28.1731L18.0247 27.8902L18.766 26.7444L18.7731 26.7408Z" fill="white"/>
<path d="M23.4996 26.619C22.8909 25.5054 22.0459 24.5458 21.4586 24.0481L22.2535 23.092C23.1451 23.8655 23.8792 25.0256 24.1406 25.8456L23.496 26.619H23.4996Z" fill="white"/>
<path d="M25.7447 18.9527L26.067 19.3932C26.4573 19.9231 26.8333 20.1021 27.2522 19.7978C27.6819 19.4827 27.4957 18.9957 27.1555 18.5338C26.5933 17.7675 26.2532 17.6493 25.0429 17.6064C23.829 17.5634 23.1344 17.4775 22.3574 16.4212C21.6663 15.4794 21.2545 14.3229 22.5471 13.3811C23.8648 12.4179 24.76 13.2057 25.3293 13.9791L25.6086 14.3587L24.5165 15.1608L24.2587 14.8098C23.8935 14.3121 23.5891 14.0758 23.2239 14.3408C22.8658 14.6022 23.0019 14.9817 23.3456 15.4579C23.7144 15.9628 23.9937 16.1383 24.957 16.1383C26.6041 16.1454 27.2701 16.3639 28.1474 17.5562C28.8922 18.5696 29.2395 19.787 27.9075 20.7646C26.5862 21.7314 25.648 21.1262 24.957 20.1881L24.6454 19.7656L25.7483 18.9599L25.7447 18.9527Z" fill="white"/>
<path d="M31.0228 14.0757L29.2969 14.9745L30.5823 17.4452L32.5768 16.4104L33.0029 17.6028L29.9521 19.189L25.8594 11.3401L28.8958 9.76099L29.4831 10.8853L27.6569 11.8342L28.7132 13.8609L30.4427 12.9621L31.0228 14.0757Z" fill="white"/>
<path d="M33.5042 13.2271L34.7467 16.9833L33.4505 17.4094L30.6754 9.00545L32.4729 8.41464C33.7548 7.99211 34.6787 8.25709 35.1764 9.76815L35.2838 10.0868C35.7099 11.3795 35.2874 11.8808 35.0045 12.1207C35.5703 12.1887 35.9677 12.4501 36.3437 13.5888C36.5764 14.2942 37.0169 15.6656 37.2747 16.1454L36.0214 16.5572C35.7421 16.0845 35.3089 14.6988 35.1083 14.0865C34.7718 13.0624 34.5605 12.869 33.8085 13.1197L33.5078 13.22L33.5042 13.2271ZM33.1497 12.1565L33.4469 12.0598C34.1344 11.8342 34.3027 11.4905 33.9983 10.5774L33.9016 10.2909C33.6868 9.64282 33.4218 9.29191 32.6878 9.53182L32.319 9.65356L33.1461 12.1601L33.1497 12.1565Z" fill="white"/>
<path d="M38.8931 15.8948L36.093 7.35835L37.5539 7.14709L38.5351 10.6419C38.8573 11.7984 39.2261 13.0087 39.4517 14.0077H39.4768C39.4159 13.0445 39.4374 11.7662 39.4052 10.5452L39.3228 6.89286L40.7694 6.68518L40.5403 15.6549L38.8896 15.8912L38.8931 15.8948Z" fill="white"/>
<path d="M43.6334 6.65681L42.2657 6.6759L42.3892 15.5194L43.7569 15.5003L43.6334 6.65681Z" fill="white"/>
<path d="M48.7974 13.2881L48.758 13.6318C48.6435 14.638 48.3176 16.0273 46.4556 15.816C44.8264 15.6334 44.5937 14.5771 44.7441 13.2343L45.2454 8.80142C45.3993 7.44433 46.1155 6.61718 47.4976 6.77115C49.1483 6.95735 49.3417 8.08528 49.2056 9.30272L49.1627 9.6966L47.802 9.54263L47.8629 8.9912C47.9273 8.40754 47.8306 8.06021 47.358 8.0065C46.8961 7.95279 46.7099 8.25715 46.6418 8.85871L46.1191 13.5065C46.0546 14.0794 46.1191 14.5377 46.6347 14.595C47.1252 14.6487 47.3007 14.2763 47.3723 13.6246L47.4296 13.1341L48.801 13.2881H48.7974ZM47.0644 15.705L46.7528 16.1097C47.1181 16.278 47.5549 16.568 47.4869 17.1875C47.426 17.7425 46.9498 18.1972 46.1012 18.1005C45.7144 18.0576 45.3886 17.9645 45.1379 17.8069L45.4244 17.0693C45.5855 17.1695 45.8219 17.2376 45.9866 17.2555C46.2014 17.2806 46.3303 17.2054 46.3518 17.0406C46.3769 16.8222 46.0904 16.6611 45.6571 16.5429L45.693 16.2242L46.1298 15.6012L47.0679 15.705H47.0644Z" fill="white"/>
<path d="M54.856 10.982L53.6815 14.9423C53.1981 16.5679 52.2815 17.1301 50.842 16.704C49.4599 16.2958 49.0731 15.3219 49.5422 13.7392L50.7274 9.74668C51.2073 8.12104 52.2492 7.62332 53.5132 7.9993C54.8023 8.38243 55.3394 9.34922 54.856 10.9785M52.0953 10.0224L50.8313 14.287C50.6236 14.9924 50.7776 15.3971 51.2502 15.5367C51.7587 15.6871 52.0774 15.4472 52.2994 14.7024L53.5598 10.4449C53.7603 9.77175 53.6636 9.33848 53.1301 9.18093C52.6574 9.04128 52.303 9.30268 52.0917 10.0224" fill="white"/>
<path d="M55.6616 15.5976L55.4181 16.0881C55.1245 16.6789 55.1388 17.0943 55.6043 17.3235C56.0805 17.5598 56.4278 17.1695 56.6857 16.6539C57.1082 15.8017 57.0545 15.4472 56.5353 14.3551C56.0161 13.2594 55.7726 12.6005 56.3562 11.4296C56.8754 10.384 57.7133 9.48886 59.1456 10.2014C60.6101 10.9283 60.3201 12.0849 59.8904 12.9442L59.6791 13.3668L58.4653 12.7652L58.6586 12.3749C58.9308 11.8235 59.006 11.4439 58.5978 11.2398C58.2003 11.0429 57.9246 11.3365 57.6632 11.8629C57.3839 12.4215 57.3553 12.7509 57.7993 13.6067C58.5512 15.0712 58.6622 15.7623 58.0034 17.0871C57.4448 18.2115 56.5209 19.0816 55.0421 18.3475C53.574 17.6207 53.6779 16.5071 54.1971 15.4651L54.4298 14.996L55.6544 15.6011L55.6616 15.5976Z" fill="white"/>
<path d="M65.1934 20.5497L63.754 19.2392L61.8777 21.2981L63.5356 22.8091L62.5616 23.622L60.0193 21.3088L65.9812 14.7668L68.5127 17.0728L67.6605 18.0074L66.1387 16.6252L64.599 18.3118L66.0385 19.6223L65.1934 20.5497Z" fill="white"/>
<path d="M71.8393 23.2495L71.0945 22.0357L72.1759 21.3768L74.3852 24.9683L73.3038 25.6307L72.5555 24.4133L66.0887 28.3735L65.3726 27.2098L71.8393 23.2495Z" fill="white"/>
<path d="M75.6563 27.6252L69.4437 30.2213C68.8457 30.4683 68.5879 30.8085 68.792 31.2955C69.0033 31.7968 69.4509 31.7968 70.0023 31.5676L76.2184 28.9716L76.7484 30.232L70.5573 32.8173C69.2683 33.3544 68.2155 33.1109 67.6426 31.7466C67.0984 30.4468 67.5424 29.5338 68.9353 28.9537L75.1299 26.3684L75.6598 27.6288L75.6563 27.6252Z" fill="white"/>
<path d="M72.9494 34.8583L69.0822 35.7034L68.7886 34.3678L77.4396 32.4807L77.8442 34.3284C78.1307 35.6461 77.7762 36.5377 76.2186 36.8778L75.8891 36.9494C74.5607 37.2395 74.1024 36.7668 73.8911 36.4625C73.7658 37.0175 73.465 37.3863 72.2905 37.6441C71.5636 37.8017 70.1528 38.0953 69.6515 38.303L69.3686 37.0139C69.8664 36.7847 71.2915 36.4983 71.9217 36.3622C72.978 36.133 73.1893 35.9433 73.0174 35.1698L72.9494 34.8583ZM74.0522 34.6184L74.1203 34.9228C74.2742 35.6282 74.5965 35.8323 75.5382 35.6246L75.8354 35.5601C76.505 35.4133 76.881 35.1877 76.7163 34.4322L76.6339 34.0562L74.0558 34.6184H74.0522Z" fill="white"/>
<path d="M78.4816 38.3361L69.6578 39.0367L69.7658 40.3967L78.5896 39.6961L78.4816 38.3361Z" fill="white"/>
<path d="M72.4086 42.4028L71.8608 42.3777C71.2019 42.3491 70.8259 42.5281 70.8045 43.0473C70.7794 43.5773 71.2771 43.7384 71.85 43.7671C72.8025 43.81 73.1069 43.6203 73.8982 42.7072C74.6931 41.7905 75.198 41.3035 76.5085 41.3644C77.6758 41.4181 78.836 41.8263 78.7608 43.4197C78.6856 45.0525 77.5076 45.2495 76.5479 45.2065L76.0753 45.185L76.1361 43.8315L76.573 43.853C77.1889 43.8816 77.5648 43.7957 77.5863 43.341C77.6078 42.897 77.2283 42.7645 76.641 42.7358C76.018 42.7072 75.7065 42.811 75.1013 43.563C74.0629 44.8413 73.4757 45.2208 71.9933 45.1528C70.74 45.0955 69.5691 44.6014 69.6443 42.9507C69.7195 41.3143 70.7794 40.9634 71.9467 41.0171L72.4731 41.0421L72.4122 42.4064L72.4086 42.4028Z" fill="white"/>
<path d="M71.7856 50.66C73.2429 51.0288 75.0584 51.5051 76.0359 51.7808V51.7665C74.6 51.1935 71.2413 49.8365 68.8494 48.8339L69.1681 47.5842C71.4669 47.8706 75.2517 48.3218 76.8738 48.5223L76.8809 48.4973C75.8748 48.2681 73.9233 47.8169 72.4444 47.441L69.4008 46.6711L69.7052 45.4716L78.2882 47.6486L77.7904 49.618C75.5239 49.3996 72.9923 49.1239 71.7569 48.9341V48.9484C72.935 49.396 75.3735 50.5096 77.3429 51.3762L76.8595 53.2811L68.2765 51.104L68.5952 49.8472L71.7892 50.6564L71.7856 50.66Z" fill="white"/>
<path d="M71.9216 58.3514L68.2156 56.5145C66.6938 55.7625 66.2963 54.7599 66.9623 53.4171C67.5997 52.1281 68.6274 51.9132 70.1062 52.6473L73.8409 54.4985C75.3591 55.2505 75.6742 56.3605 75.087 57.5421C74.489 58.7452 73.4434 59.1105 71.9181 58.3514M73.336 55.7983L69.3435 53.8218C68.6847 53.4959 68.255 53.5783 68.0366 54.0187C67.8002 54.4949 67.9829 54.8494 68.6811 55.1968L72.6628 57.1697C73.2931 57.4813 73.7371 57.4634 73.9806 56.9656C74.199 56.5252 74.002 56.1313 73.3289 55.7983" fill="white"/>
<path d="M79.7705 62.7342C79.5664 63.0672 79.8923 63.0887 79.9138 63.1674C80.1608 62.5551 79.6953 62.7127 79.7705 62.7342Z" fill="white"/>
<path d="M81.7937 56.6397L81.8725 56.7865L81.894 55.8054L81.7937 56.6397Z" fill="white"/>
<path d="M83.4301 50.9429C82.7999 51.3761 83.047 53.0591 82.5457 54.0223L82.3845 54.1584L82.6459 54.7348C82.7891 54.1046 82.936 53.3742 83.0398 52.6903C83.1401 52.0028 83.2618 51.3726 83.4265 50.9464" fill="white"/>
<path d="M85.0485 47.9673C84.8229 48.1392 84.9697 47.2512 84.8838 48.7085C84.916 48.6405 84.9303 48.619 84.9518 48.5796C84.9661 48.4507 84.9912 48.2717 85.0485 47.9673Z" fill="white"/>
<path d="M84.9519 48.5796C84.8803 49.2169 85.1739 48.1857 84.9519 48.5796V48.5796Z" fill="white"/>
<path d="M85.1595 45.6291L85.267 46.4849C85.3995 46.3202 85.489 45.5682 85.5498 45.8547C85.5248 44.9774 85.3923 45.1528 85.1595 45.6291Z" fill="white"/>
<path d="M84.8408 44.8126C84.8408 44.8126 84.8551 44.92 84.8695 45.031C84.8802 45.142 84.891 45.2495 84.891 45.2495C84.9447 45.1779 84.9769 45.0633 84.8408 44.8126Z" fill="white"/>
<path d="M84.9733 46.1805L84.891 45.2495C84.7979 45.3677 84.6296 45.3641 84.9124 45.6756C84.7656 45.5897 84.8981 45.7795 84.9733 46.1805Z" fill="white"/>
<path d="M84.8516 46.6925C84.7084 47.1509 84.5508 47.7381 84.4756 46.8895C84.4219 47.6808 84.472 48.0317 84.5723 47.9852C84.6618 47.9386 84.8229 47.4946 84.8516 46.689" fill="white"/>
<path d="M82.9646 50.5418C82.9646 50.5418 82.9001 50.685 82.8357 50.8247C82.7712 50.9679 82.696 51.104 82.696 51.104L82.7426 51.6554C82.7319 51.5193 82.8321 51.24 82.9181 50.9965C82.9968 50.7531 83.047 50.5382 82.9682 50.5418" fill="white"/>
<path d="M85.4854 40.3726C85.3744 40.3261 85.2097 40.6698 85.0736 40.7378C85.0736 40.7378 85.1166 40.8918 85.1524 41.0458C85.1846 41.1997 85.2204 41.3537 85.2204 41.3537C85.3028 41.0315 85.3243 40.4227 85.4854 40.3726Z" fill="white"/>
<path d="M85.0772 40.7378L84.8337 39.8247C84.8624 40.6483 84.9591 40.7951 85.0772 40.7378Z" fill="white"/>
<path d="M84.2787 44.6337C84.2787 44.6337 84.3718 45.0132 84.4291 45.3928C84.4935 45.7759 84.5616 46.1591 84.5616 46.1591C84.5616 46.1591 84.5007 45.7043 84.4398 45.2496C84.4148 45.024 84.3646 44.7984 84.336 44.6265C84.3038 44.4582 84.2858 44.3436 84.2858 44.3436L84.2787 44.6301V44.6337Z" fill="white"/>
<path d="M85.1774 36.8098C85.1774 36.8098 85.2562 36.9351 85.335 37.0568C85.4138 37.1822 85.489 37.3039 85.489 37.3039C85.489 37.3039 85.3672 37.0819 85.2491 36.8563C85.1166 36.6343 84.9877 36.4159 84.9877 36.4159L85.181 36.8062L85.1774 36.8098Z" fill="white"/>
<path d="M84.7442 34.4788C85.0307 34.8261 84.9805 33.8808 85.1918 34.2675C85.0199 33.6373 84.7406 33.1288 84.4685 32.6848C84.6762 33.179 84.7621 33.7375 84.7406 34.4823" fill="white"/>
<path d="M84.0352 31.9329C84.1497 32.1728 84.3037 32.4163 84.472 32.6812C84.3574 32.4198 84.2178 32.1692 84.0352 31.9329Z" fill="white"/>
<path d="M84.7585 38.2528C84.8158 38.174 84.9733 38.02 84.9876 37.4937L84.7227 37.8911C84.7334 38.0021 84.7441 38.1274 84.7585 38.2528Z" fill="white"/>
<path d="M84.7155 37.9054L84.7227 37.8911C84.6869 37.4972 84.6654 37.2251 84.6547 37.1069C84.6618 37.2072 84.6797 37.4471 84.7155 37.9019" fill="white"/>
<path d="M84.7657 38.3459C84.7657 38.3136 84.7585 38.2886 84.7585 38.2563C84.7334 38.2922 84.7263 38.3172 84.7657 38.3459Z" fill="white"/>
<path d="M84.6045 42.2489C84.4255 41.7082 84.2285 40.6089 83.9814 41.6867C84.1963 42.0663 84.3359 41.4432 84.6045 42.2489Z" fill="white"/>
<path d="M84.4326 38.8257C84.4326 38.8257 84.4326 38.8866 84.4398 38.9761C84.4398 39.0656 84.4398 39.191 84.4398 39.3127C84.4398 39.5562 84.4326 39.7997 84.4326 39.7997C84.5114 39.7746 84.6188 39.592 84.7191 39.8534C84.7191 39.8534 84.651 39.5956 84.5794 39.3378C84.5436 39.2089 84.5114 39.08 84.4827 38.9833C84.4541 38.8866 84.4326 38.8221 84.4326 38.8221" fill="white"/>
<path d="M84.2822 38.3638L84.4326 38.8257L84.4183 38.4676L84.2822 38.3638Z" fill="white"/>
<path d="M84.1462 33.6444C84.0388 33.451 83.9564 33.2397 83.8884 33.0177C83.8132 32.7922 83.7416 32.5558 83.6664 32.3052C83.7595 32.8602 83.8418 33.4331 83.9493 33.9738C84.0603 34.0311 84.2787 34.2316 84.1462 33.6444Z" fill="white"/>
<path d="M84.4506 35.714C84.4398 35.6854 84.4291 35.6496 84.4184 35.6245C84.4005 35.6854 84.4005 35.7319 84.4506 35.714Z" fill="white"/>
<path d="M82.1231 27.396C82.1159 27.4282 82.1088 27.4604 82.098 27.4963C82.1159 27.4963 82.1338 27.4963 82.1553 27.4963L82.1231 27.3996V27.396Z" fill="white"/>
<path d="M83.9134 34.0776C83.9385 34.5002 84.0638 34.7329 84.207 34.9513C84.1139 34.647 84.0244 34.3247 83.9492 33.9738C83.8991 33.9487 83.8705 33.9487 83.9134 34.0776Z" fill="white"/>
<path d="M83.5195 30.5721C83.5267 30.8013 83.5446 31.0555 83.5589 31.3241C83.6055 31.0878 83.6234 30.6223 83.5195 30.5721Z" fill="white"/>
<path d="M84.4792 35.467C84.4864 35.4884 84.4972 35.5028 84.5007 35.5278C84.5437 35.3774 84.5151 35.4025 84.4792 35.467Z" fill="white"/>
<path d="M84.4792 35.467C84.4004 35.2593 84.3001 35.1017 84.207 34.9478C84.2715 35.1948 84.3431 35.424 84.4183 35.6209C84.4326 35.5672 84.4541 35.5099 84.4792 35.467Z" fill="white"/>
<path d="M79.7205 26.7229C79.8637 26.7014 80.1 26.9091 80.3077 27.2457C80.4115 27.414 80.5118 27.6109 80.5834 27.8329C80.6479 28.0549 80.6944 28.2949 80.698 28.5383C81.2065 29.3154 81.8939 28.456 82.0981 27.4964C81.9656 27.5143 81.8796 27.5465 81.3497 26.7229C81.3604 27.0881 81.7615 28.832 81.2458 28.1659C80.9701 27.6038 80.8878 27.3603 80.8806 27.1741C80.8699 26.9879 80.9236 26.8626 80.877 26.551C80.8126 26.859 80.5404 26.5403 80.2397 26.2073C79.946 25.8707 79.5808 25.5377 79.4089 25.7669C79.4089 25.7669 79.4483 25.8242 79.5056 25.9065C79.5665 25.9889 79.6453 26.1035 79.7133 26.218C79.8601 26.4472 80.0069 26.6799 80.0069 26.6799C79.9389 26.7301 79.6703 26.4221 79.7169 26.7265" fill="white"/>
<path d="M82.696 29.2365L82.8463 29.6053C82.764 29.1541 82.7604 28.814 82.764 28.173C82.4059 27.5929 82.2591 27.4998 82.1553 27.4927C82.1553 27.4927 82.3128 27.9582 82.4704 28.4201C82.5492 28.6528 82.6279 28.8856 82.6852 29.0574C82.7389 29.2329 82.7712 29.3511 82.7712 29.3511L82.6924 29.2329L82.696 29.2365Z" fill="white"/>
<path d="M83.362 31.3169C82.9968 31.0913 82.5743 30.2356 82.431 30.8801C82.7712 31.9758 82.8894 31.5891 83.2009 32.2193C82.6602 30.4289 83.5017 32.6991 83.3334 31.3384C83.4766 31.6822 83.5769 32.0008 83.6664 32.3052C83.6162 31.965 83.5804 31.6356 83.559 31.3241C83.559 31.342 83.5554 31.3563 83.5518 31.3706V31.3778C83.5339 31.4673 83.5196 31.4995 83.5196 31.4029C83.5124 31.3993 83.5052 31.3742 83.5017 31.3671C83.4551 31.3671 83.4121 31.342 83.3692 31.3133C83.294 30.7691 83.4229 31.2095 83.5017 31.3671C83.5196 31.3671 83.5339 31.3814 83.5518 31.3778C83.5518 31.3778 83.5518 31.3742 83.5518 31.3706C83.5518 31.3706 83.3978 30.923 83.208 30.4826C83.029 30.0422 82.85 29.6053 82.85 29.6053C82.9216 30.0028 83.097 30.4719 83.3656 31.3169" fill="white"/>
<path d="M83.2868 40.7271C83.3119 40.6698 83.3333 40.6734 83.3548 40.6662C83.3119 40.5481 83.2832 40.5087 83.2868 40.7271Z" fill="white"/>
<path d="M83.4301 39.9715C83.4802 40.1004 83.6127 40.2043 83.6055 40.6411C83.5339 41.0207 83.4587 40.6447 83.3549 40.6698C83.4551 40.924 83.6198 41.5721 83.7344 40.7485L83.6843 40.6196C83.7452 39.8784 84.071 38.8901 84.1211 39.0155C83.8562 39.2554 83.67 39.4631 83.4265 39.9715" fill="white"/>
<path d="M83.5375 35.6352C83.5375 35.6352 83.5125 35.5422 83.4766 35.4025C83.4408 35.2629 83.3943 35.0731 83.3334 34.8905C83.2188 34.5216 83.1007 34.1528 83.1007 34.1528L82.9968 34.9692L83.1472 34.9012C83.2439 35.7677 83.3943 35.5529 83.5375 35.6388" fill="white"/>
<path d="M82.2054 27.1705L82.5814 27.2528C82.5814 27.2528 82.3988 27.0774 82.1983 26.9091C82.0049 26.7408 81.808 26.5725 81.808 26.5725L82.2019 27.1705H82.2054Z" fill="white"/>
<path d="M81.3783 25.2906L81.6683 25.2441C81.6683 25.2441 81.5752 25.1366 81.475 25.0328C81.3783 24.929 81.2816 24.8215 81.2816 24.8215L81.3783 25.2906Z" fill="white"/>
<path d="M4.25684 43.4591L4.34277 43.8816C4.31413 43.6811 4.28548 43.5522 4.25684 43.4591Z" fill="white"/>
<path d="M4.31417 40.3833L4.1781 40.3009C4.24971 40.4477 4.30701 40.5086 4.31417 40.3833Z" fill="white"/>
<path d="M40.995 0.397445C40.3111 0.17186 39.5126 -0.189793 39.62 0.12173L39.8528 0.418929C40.3218 0.332992 40.6835 0.347315 40.995 0.393864" fill="white"/>
<path d="M12.2669 16.3137C12.3313 16.2851 12.3922 16.26 12.4567 16.2314C12.4817 16.0452 12.5032 15.8697 12.5247 15.7122C12.4459 15.8948 12.3492 16.0953 12.2633 16.3173" fill="white"/>
<path d="M12.9688 17.4918L12.2885 18.0039C12.4603 17.9036 12.6823 17.7389 12.9688 17.4918Z" fill="white"/>
<path d="M8.56799 59.5079C8.56799 59.5079 8.69332 59.5831 8.81506 59.6583C8.94397 59.7299 9.06929 59.8015 9.06929 59.8015C8.72554 59.1212 8.73629 59.49 8.56799 59.5043" fill="white"/>
<path d="M68.3983 9.06632C68.0044 8.62231 67.6606 8.30721 67.3384 8.05298C67.8039 8.61873 68.0903 9.163 68.3983 9.06632Z" fill="white"/>
<path d="M0.93396 42.231C0.994832 42.5138 1.05928 42.6356 1.12732 42.6248C1.07003 42.3348 1.00915 42.1701 0.93396 42.231Z" fill="white"/>
<path d="M65.9383 7.11133C66.0063 7.19368 66.0815 7.26172 66.1531 7.34407C66.5327 7.54101 66.9266 7.72721 67.3348 8.05306C66.9946 7.63769 66.5291 7.25098 65.9347 7.11133" fill="white"/>
<path d="M60.2771 76.9066C60.3236 76.8994 60.3738 76.878 60.4167 76.8744C60.4096 76.8314 60.3559 76.8565 60.2771 76.9066Z" fill="white"/>
<path d="M76.2544 67.4894C76.1577 67.6541 75.9751 67.9012 75.8068 68.1375C75.907 68.0372 76.0467 67.8439 76.2544 67.4894Z" fill="white"/>
<path d="M77.4109 18.0432C77.4825 18.079 77.6794 18.3905 77.4109 18.0432V18.0432Z" fill="white"/>
<path d="M77.554 20.4674C77.4753 20.4101 77.4001 20.3779 77.332 20.4101C77.4144 20.3994 77.486 20.4209 77.554 20.4674Z" fill="white"/>
<path d="M61.2976 6.65658C61.2976 6.65658 61.2761 6.64583 61.2654 6.63867C61.3477 6.74967 61.3334 6.73177 61.2976 6.65658Z" fill="white"/>
<path d="M77.6651 18.6698C77.6042 18.5122 77.5291 18.3368 77.4324 18.1542C77.4646 18.2437 77.5326 18.4012 77.6651 18.6698Z" fill="white"/>
<path d="M77.7367 18.5123C77.8083 18.6448 77.8692 18.7487 77.9229 18.8489C77.9945 18.8668 77.9981 18.8059 77.7367 18.5123Z" fill="white"/>
<path d="M77.0385 17.567C77.1924 17.764 77.3178 17.9609 77.4323 18.1543C77.4001 18.0719 77.3929 18.0325 77.4144 18.0468C77.3357 17.9466 77.2246 17.8033 77.0385 17.567Z" fill="white"/>
<path d="M28.3551 79.098C28.3766 79.1195 28.4017 79.1338 28.4267 79.1589C28.8528 79.1947 28.6809 79.1446 28.3551 79.098Z" fill="white"/>
<path d="M30.8899 5.49233C30.8899 5.49233 30.9146 5.47469 30.9287 5.46411C30.9111 5.46411 30.8864 5.46764 30.8688 5.47116L30.8899 5.49233Z" fill="white"/>
<path d="M29.6047 6.18387C30.0487 5.61454 30.3961 5.52144 30.8651 5.47131C30.8651 5.47131 30.6825 5.29227 30.4963 5.11324C30.3101 4.93778 30.1239 4.76233 30.1239 4.76233C30.1239 4.76233 29.9915 5.11682 29.859 5.47489C29.7336 5.82938 29.6047 6.18029 29.6047 6.18029" fill="white"/>
<path d="M5.23794 50.7494L5.30955 49.711C6.00063 50.7996 6.02928 51.6589 6.21906 50.6743C5.97199 50.6922 5.79653 50.4701 5.6533 50.1228C5.51365 49.7755 5.38833 49.3064 5.31313 48.8302C5.2272 48.3539 5.13768 47.8813 5.00877 47.5232C4.89777 47.1651 4.7438 46.9217 4.49673 46.9145L4.62922 46.2342C4.63996 46.4239 4.70083 46.449 4.71157 46.6352C5.03384 45.3211 3.91307 45.7508 3.94172 44.0642C3.99185 43.477 4.14224 43.0688 4.25682 43.4627L3.99901 42.17C4.01692 41.7905 4.18521 41.8872 4.17089 42.2596C4.17089 42.2596 4.16372 42.1378 4.15656 41.9516C4.15656 41.7654 4.15656 41.5219 4.15656 41.2749C4.15656 40.7807 4.15298 40.2866 4.15298 40.2866L4.18163 40.3009C4.03482 40.0109 3.86653 39.3556 3.78775 39.0298C3.97037 38.5356 3.87011 39.2947 4.00259 39.173C4.00259 39.173 3.96679 38.8937 3.93098 38.6144C3.91307 38.4748 3.89517 38.3315 3.88085 38.2277C3.87011 38.1238 3.86653 38.0522 3.86653 38.0522C4.02408 37.8445 4.12792 37.9734 4.18521 38.2492C4.24966 38.5213 4.26757 38.9438 4.21744 39.3162C4.74738 38.8471 4.70083 38.6251 4.62564 38.242C4.56835 37.866 4.46809 37.3182 4.90851 36.2762C4.90851 36.2762 4.90493 36.3406 4.89777 36.4373C4.89777 36.534 4.89777 36.6629 4.89419 36.7918C4.89419 37.0496 4.88703 37.3074 4.88703 37.3074C5.20929 37.0174 5.32746 36.6737 5.4671 36.269C5.60675 35.8644 5.7285 35.3989 6.00063 34.8726C5.77863 35.0874 4.7259 36.9744 4.70083 35.7785C4.8369 35.4634 4.94432 35.0408 4.87629 34.3713C5.21645 34.4357 5.27733 33.8162 5.43846 33.0535L5.87173 33.2183C5.90037 32.7957 5.86456 32.5881 5.81085 32.4198C5.75356 32.2479 5.67837 32.1154 5.64972 31.8504C5.95408 30.9588 6.34438 30.8801 6.70603 30.7655C7.26104 29.3833 5.82518 31.564 6.3229 29.8596C6.46612 29.5767 6.58071 29.3117 6.67381 29.0467C6.77765 28.7853 6.87075 28.5275 6.94594 28.2554C7.10349 27.7111 7.20375 27.1096 7.40785 26.3719C7.92348 25.6379 7.59763 26.6297 7.85186 26.397V25.534C7.93422 25.3658 8.00941 25.4696 8.0488 25.5233C8.20993 24.8716 7.6585 25.2727 8.0309 24.288C7.87693 24.048 8.27797 23.647 8.76136 23.16C9.25908 22.6802 9.77829 22.0858 9.88929 21.3947C10.1757 21.2014 10.0433 21.674 10.2474 21.6884C10.5732 20.8576 10.7272 20.5031 10.8418 20.1701C10.9635 19.8407 11.0638 19.5471 11.2929 18.8059C11.2929 18.8059 11.5364 18.6018 11.7835 18.3941C12.0306 18.1936 12.2919 18.0038 12.2919 18.0038C11.4433 18.4944 11.8587 17.3449 12.2669 16.3137C11.9303 16.4605 11.6367 16.5894 11.4612 16.6933C11.4612 16.6933 11.6796 16.328 11.9016 15.9628C12.0091 15.7766 12.1344 15.6047 12.2239 15.4687C12.3134 15.3362 12.3743 15.2466 12.3743 15.2466C12.5677 15.1428 12.5712 15.3791 12.5283 15.7086C12.5748 15.5976 12.6214 15.4937 12.6536 15.4078C13.1835 15.0748 13.1692 15.4866 13.0761 15.97C12.8684 16.0559 12.6608 16.1454 12.4602 16.2278C12.4101 16.7291 12.4101 17.2196 12.6715 17.3235C12.6966 17.2089 12.7932 17.0191 12.915 16.8293C12.9043 16.9582 12.915 17.0549 12.983 17.0477C13.0582 17.0406 13.0797 16.8329 13.1728 16.5608L13.8066 16.6252L13.7135 16.4247C13.7135 16.4247 14.1289 16.0845 14.5442 15.7479C14.7447 15.5761 14.9703 15.4257 15.1279 15.3039C15.289 15.1858 15.3964 15.107 15.3964 15.107C15.5719 14.7489 15.7294 14.3873 15.8941 14.0185C16.0732 13.6604 16.2558 13.2916 16.4706 12.9084C16.6819 12.5217 16.929 12.1243 17.2512 11.7304C17.5699 11.3365 17.928 10.9032 18.3971 10.4915C18.1321 11.1539 18.6692 11.0536 18.9091 11.4296C18.5009 11.4403 18.1715 11.7877 17.8098 12.203C17.6308 12.4143 17.441 12.6363 17.2441 12.8691C17.0507 13.1018 16.8359 13.3274 16.5888 13.5172C17.1044 13.1161 17.1402 13.3739 17.0686 13.5386C17.0686 13.5386 17.1546 13.4241 17.2799 13.2558C17.4052 13.0839 17.5807 12.8619 17.7633 12.647C18.1285 12.2102 18.4902 11.7769 18.4902 11.7769C18.6764 12.092 19.0201 11.6874 19.5823 11.4726C19.192 11.315 19.4498 10.9749 19.8902 10.5774C20.1051 10.3733 20.3736 10.1728 20.6314 9.983C20.8857 9.78964 21.1256 9.59986 21.2831 9.42799C21.4622 9.59986 21.4156 9.9257 20.4667 10.4915C21.1292 10.3769 21.3297 9.98658 21.5374 9.58196C21.7379 9.17017 21.9599 8.77629 22.5972 8.66171C22.3681 8.80852 22.2213 8.85149 22.1926 9.00904C22.4075 8.75481 22.873 8.46477 23.2561 8.28216C23.6428 8.10312 23.9543 8.06015 23.8433 8.23203L23.607 8.36451C24.0152 8.17115 24.5165 7.91334 25.0465 7.62688C25.58 7.34759 26.1493 7.06829 26.6614 6.77467C27.7033 6.22683 28.5556 5.68972 28.577 5.36029C28.62 5.42833 28.62 6.12656 28.5663 6.2877C28.5663 6.2877 28.7024 6.09076 28.9172 5.81146C29.1356 5.525 29.4293 5.14545 29.7229 4.76947C30.0201 4.37918 30.3352 4.01752 30.5751 3.74181C30.8186 3.46609 30.9797 3.2799 30.9797 3.2799C30.8651 3.86713 32.258 4.74441 30.9296 5.46413C31.3628 5.42116 31.8749 5.31732 32.6913 4.91628C32.3941 4.91628 31.7818 4.37201 32.1578 4.22162C33.3824 4.51524 32.9849 4.31472 34.41 4.49376C33.9589 4.47227 34.2489 3.57352 34.9471 3.45177C34.8648 3.595 35.1656 4.23595 34.9364 4.37201C34.9364 4.37201 35.3195 4.08556 35.6991 3.80268C36.0858 3.52338 36.4868 3.26199 36.4868 3.26199C36.0786 3.47325 36.5262 3.94949 36.938 4.1142C36.8377 4.04975 37.203 3.99604 37.647 3.93875C38.091 3.8922 38.6209 3.86713 38.843 3.7991L38.1017 3.69168C39.0721 3.65229 39.5161 3.2978 39.978 2.98628C40.2072 2.82515 40.4399 2.66043 40.7407 2.53153C41.0379 2.4062 41.4067 2.29878 41.9009 2.3131C41.661 2.4814 41.353 3.34793 42.3306 3.43745C42.549 3.23335 43.0431 2.70698 43.727 2.24507C44.4074 1.79032 45.2811 1.31408 46.1942 1.25321L46.5164 1.51818C46.5164 1.51818 46.8638 1.48238 47.2147 1.44299C47.3901 1.4215 47.5656 1.41434 47.6945 1.4036C47.827 1.39644 47.9129 1.39286 47.9129 1.39286C47.451 1.62919 46.588 2.05529 45.7108 2.44917C45.2703 2.63537 44.8263 2.86811 44.411 3.05431C43.9992 3.24409 43.6196 3.40522 43.3081 3.52697C44.0278 3.73465 43.505 3.80984 44.5793 3.82775C44.9481 4.06049 43.9813 4.14285 43.6698 4.14285L44.9051 4.25743C45.2166 4.27892 45.521 4.33263 45.7502 4.36485C45.9793 4.39708 46.1333 4.41856 46.1333 4.41856C46.0975 4.17149 46.5809 4.09272 47.0714 4.02469C47.5584 3.97456 48.0525 3.94233 48.0311 3.73465C48.0311 3.73465 47.8592 3.74181 47.5978 3.75255C47.4689 3.75971 47.3149 3.76687 47.1538 3.77403C46.9927 3.78836 46.8172 3.80626 46.6453 3.82417C45.9578 3.8922 45.2703 3.95665 45.2703 3.95665C45.2309 3.71316 45.6427 3.40522 46.3052 3.1868C46.6346 3.08296 47.0285 2.9827 47.451 2.96121C47.8735 2.93973 48.3247 2.96121 48.7759 3.03999C49.2055 3.29064 48.3068 3.84565 48.3247 4.01036C48.45 3.94949 48.8833 3.9101 49.3022 3.94591C49.7176 3.97814 50.1222 4.04617 50.1902 4.11778L49.3989 4.23595C49.8716 4.41498 50.2941 4.32905 50.7452 4.28608C51.1928 4.24669 51.6583 4.27534 52.1883 4.63341C52.5893 4.74799 53.2124 5.54291 53.3556 5.29226C52.8686 4.57612 53.1515 2.88244 53.7208 2.61746C53.7889 2.65685 54.3081 2.94331 54.8452 3.26915C55.3894 3.58426 55.9373 4.0032 56.1235 4.20372C56.6355 4.83751 54.8022 4.83751 55.2462 5.38536C55.3107 5.26719 55.7224 5.23497 55.8872 5.23855C56.2631 5.4892 55.5828 5.56439 56.4959 5.81862C56.8146 5.41758 58.2719 6.57774 57.058 5.6002C57.5164 5.70762 57.7384 5.82579 57.9711 5.96185C58.2039 6.1015 58.4545 6.24831 58.9522 6.47389C58.8591 6.25547 59.1886 6.11224 59.6684 6.06211C60.1446 6.01556 60.7784 6.03705 61.2332 6.2125C61.1257 6.29844 61.2439 6.54193 61.3012 6.65651C61.7273 6.89284 62.0997 7.11484 62.4399 7.32252C62.7729 7.54453 63.0736 7.76295 63.3744 7.9778C63.6716 8.18906 63.9688 8.39674 64.2803 8.61874C64.5883 8.84791 64.9177 9.08424 65.2937 9.33489C65.3689 9.52108 66.0027 10.1262 65.5801 10.0904C65.8344 10.1692 66.1244 10.1764 66.5756 10.495C67.1843 11.469 65.5479 9.81828 65.9024 10.7135C66.1173 10.5308 67.2917 11.2219 68.0007 11.6051C68.0401 11.3616 67.7107 11.0393 67.2523 10.7708C66.794 10.5022 66.2354 10.2551 65.8666 10.094C66.0385 9.84693 66.4968 9.7968 67.1306 9.92929C67.4457 10.0009 67.8145 10.1012 68.1977 10.2695C68.5772 10.4413 68.9854 10.6562 69.4079 10.9104C70.0596 11.3365 70.1026 11.5442 70.0453 11.623C69.9808 11.7089 69.7946 11.691 69.9236 11.7483C70.4392 12.2532 70.8545 12.5575 71.2162 12.7652C71.5635 12.9872 71.8536 13.109 72.1329 13.2271C72.4086 13.3453 72.67 13.4635 72.9493 13.6783C73.2286 13.8931 73.5007 14.2261 73.8301 14.7489C74.1846 15.7193 73.2823 15.2896 73.2178 15.6334C72.7452 15.2252 72.4802 14.8277 72.2439 14.4661C72.0004 14.1116 71.7999 13.7786 71.4955 13.4849L72.0971 14.3479C71.7247 14.1581 71.0765 13.6461 70.8366 13.2486C70.9154 13.4491 71.1661 13.7678 71.5134 14.1545C71.6889 14.3443 71.8894 14.5592 72.1006 14.7847C72.3083 15.0175 72.5267 15.2681 72.7523 15.5259C72.9779 15.7838 73.2178 16.0451 73.4434 16.3173C73.6618 16.5966 73.8802 16.8795 74.0951 17.1516C74.5284 17.6959 74.8793 18.258 75.1371 18.7414C75.4701 18.9742 75.9785 19.4397 75.9177 19.0923L75.4593 18.566C75.3269 17.8642 76.5908 19.3752 76.1826 18.5731C76.5622 18.8811 76.9382 19.2356 77.3285 19.6438C77.5183 19.8479 77.708 20.0699 77.8871 20.3205C78.0554 20.5748 78.2093 20.8576 78.3418 21.1692L78.0912 21.6096C78.1878 21.5201 77.8692 20.7251 77.5612 20.4745C77.7904 20.6607 77.9265 21.1799 78.1019 21.674C78.1914 21.9211 78.2917 22.161 78.417 22.3579C78.5352 22.5585 78.6856 22.7089 78.8825 22.7769C78.8825 22.7769 78.8395 22.5334 78.7966 22.2899C78.7787 22.1682 78.7536 22.0464 78.7285 21.9569C78.707 21.8674 78.6927 21.8065 78.6927 21.8065C79.0401 22.161 79.4268 22.5585 79.8135 23.0025C80.2038 23.4393 80.5368 23.9514 80.7302 24.5279C80.8841 23.8439 80.569 24.3023 80.6478 23.2961C80.4401 24.2414 79.2012 20.5461 79.1869 21.9247C79.2227 21.4019 79.0759 21.0402 78.9076 20.6571C78.7357 20.274 78.5495 19.8622 78.4277 19.2463C78.3239 19.3573 78.4242 19.7404 77.9157 18.8488C77.8548 18.8345 77.751 18.7737 77.6865 18.7343C77.6722 18.7056 77.6686 18.6949 77.6579 18.6698C77.6651 18.6913 77.6686 18.7056 77.6758 18.7271C77.6328 18.702 77.6292 18.702 77.683 18.7486C77.7653 18.9849 77.8083 19.1926 77.7868 19.3C77.5075 19.1854 77.1566 18.788 76.7985 18.3941C76.4333 18.0038 76.086 17.5956 75.8568 17.4345C75.556 16.9153 76.1361 17.5347 76.0681 17.1767C76.0681 17.1767 75.8962 17.0549 75.7243 16.9296C75.5453 16.8114 75.3698 16.6968 75.3698 16.6968C75.5739 16.439 74.7754 15.1213 75.8246 16.106L75.0225 15.1034C74.668 14.4159 74.0127 13.5888 73.4756 13.2128C73.0961 12.733 72.14 12.3821 72.6914 12.5754C72.6914 12.5754 72.2976 12.2568 71.9073 11.9381C71.5027 11.6373 71.0945 11.3365 71.0945 11.3365L71.1338 11.2649C70.4249 10.5667 69.5333 10.0439 68.6846 9.42799C67.7966 8.85865 66.948 8.19264 66.1531 7.34401C65.8523 7.19362 65.5443 7.04323 65.2006 6.84987C64.8497 6.66725 64.463 6.44167 64.0046 6.1194L63.9545 5.76849C63.5678 5.5823 63.0235 5.22781 62.5294 4.9127C62.0317 4.60118 61.5769 4.33263 61.3442 4.3935C61.2153 4.12853 60.9145 3.8743 60.517 3.63081C60.3165 3.50906 60.0945 3.3909 59.8546 3.27632C59.6147 3.16531 59.3533 3.07221 59.0883 2.97195C58.5548 2.78218 58.0105 2.58166 57.4949 2.43127C56.9793 2.2773 56.5138 2.13049 56.1629 1.97294L55.9946 2.29878C55.5112 2.109 55.0063 2.01232 54.4763 1.89058C54.2114 1.83687 53.9357 1.78316 53.6492 1.72945C53.3627 1.6829 53.0548 1.65067 52.7361 1.61128V1.94429C52.1704 1.95145 51.5044 1.71154 50.7417 1.4967C50.3621 1.38212 49.9646 1.25679 49.5529 1.14221C49.1411 1.04195 48.7078 0.963173 48.2746 0.913043C48.407 0.809202 48.8439 0.89872 49.1447 1.0133C48.6541 0.762653 48.1242 0.633747 47.5871 0.569295C47.0464 0.519165 46.4914 0.551391 45.9507 0.583617C45.4064 0.605102 44.8729 0.687458 44.3573 0.69462C43.8416 0.708943 43.3439 0.662393 42.8713 0.54423C42.3986 0.665974 42.062 0.630167 41.7254 0.554972C41.7684 0.554972 41.8078 0.54781 41.84 0.537068C41.7935 0.537068 41.7218 0.537068 41.6466 0.537068C41.4354 0.479777 41.217 0.426066 40.9842 0.390259C41.1883 0.458292 41.3781 0.504842 41.5428 0.537068C41.1776 0.54781 40.6297 0.633747 40.0962 0.74475L39.842 0.415324C39.799 0.422485 39.7632 0.426066 39.7166 0.433227C39.1724 0.340129 39.3049 0.623005 39.6056 0.866494C39.3407 0.934528 39.1008 1.03837 38.9181 1.13863C38.6782 0.884398 38.3309 0.970335 37.9657 1.05269C37.6004 1.13147 37.2173 1.2174 36.8843 0.973915C36.7267 1.14579 36.0643 1.30692 35.4234 1.50386C34.7896 1.72945 34.1773 1.998 34.1021 2.32385C34.0663 2.24865 33.9051 2.24507 34.1844 2.18062C33.5865 2.22 32.9956 2.30952 32.523 2.6103L32.1685 2.24865C32.1685 2.24865 31.8928 2.47424 31.6171 2.69624C31.3485 2.93257 31.08 3.16889 31.08 3.16889C30.2564 3.14383 29.884 3.0937 30.5393 2.53869C30.1203 2.80366 29.8267 2.97554 29.5975 3.10444C29.372 3.24051 29.2072 3.32645 29.0497 3.4088C28.7382 3.57352 28.4553 3.72032 27.8 4.24669L27.7678 3.94949C27.2379 4.18224 26.5432 4.88764 26.1314 4.8017C25.7841 4.80886 25.2506 4.9879 24.5917 5.25645C24.2587 5.38536 23.9042 5.55723 23.5318 5.75059C23.1594 5.94395 22.762 6.15163 22.3538 6.36289C20.746 7.27956 18.9807 8.41822 17.5091 9.24179C18.0211 9.38502 17.6523 9.53183 17.1975 9.73593C16.7535 9.95077 16.2093 10.2122 16.3668 10.5022C16.0911 10.47 15.6578 10.6812 15.9658 10.205C15.357 10.8101 14.8522 11.2076 14.3938 11.5621C13.9355 11.9166 13.581 12.2926 13.359 12.9013C13.0797 12.9013 13.4127 12.4358 13.2086 12.4752C13.1406 12.6041 12.9436 12.9836 12.7324 13.0266C12.5247 13.0696 12.7897 12.733 12.9257 12.4788C12.6178 12.7974 12.4101 13.0696 12.2705 13.3059C12.1451 13.553 12.0843 13.7607 12.0771 13.9397C12.0592 14.3013 12.2275 14.5556 12.3958 14.7955C12.0055 15.0246 11.7405 15.2287 11.5579 15.4651C11.3896 15.7086 11.2965 15.9843 11.2428 16.3423C10.9098 16.4569 10.4336 16.7291 11.0602 15.8554C10.9563 15.9664 10.7522 16.192 10.498 16.4713C10.3727 16.6109 10.2366 16.7649 10.0934 16.9224C9.9609 17.0871 9.82842 17.259 9.69951 17.4309C9.18389 18.1148 8.75778 18.7772 8.9404 18.9384C8.73988 19.0315 8.44626 19.6187 8.40329 19.7798C8.01657 20.3313 7.80173 20.632 7.61553 20.9436C7.42217 21.2515 7.23956 21.563 6.92088 22.1431L7.17153 21.8638C7.37563 22.58 6.74542 22.8772 6.30857 23.8511L6.27277 23.7974C5.89321 24.288 5.71417 24.6138 5.59959 24.8358C5.48859 25.0614 5.45278 25.1903 5.41698 25.3156C5.38117 25.4409 5.34536 25.5663 5.2272 25.7847C5.16991 25.8921 5.08755 26.0246 4.98371 26.1929C4.88345 26.3648 4.75454 26.5725 4.58983 26.8303L4.95864 26.841C5.25942 27.0881 4.96222 27.5321 4.55402 28.0978C4.1673 28.6743 3.69107 29.3869 3.59797 30.0923L3.9453 29.6769C3.93098 30.0708 3.55142 30.5041 3.11816 30.9373C2.68847 31.3706 2.19433 31.8039 2.07259 32.1763C1.97233 32.3267 2.02962 31.8862 2.04752 31.6463C1.13802 33.5405 2.41992 32.0187 2.16927 33.5155C1.87207 33.7375 1.63574 33.0249 1.37793 34.0275C1.2347 34.2603 1.28483 35.0408 1.29915 35.9074C1.32422 36.3442 1.33496 36.8061 1.29915 37.2394C1.28125 37.4578 1.2526 37.6691 1.20963 37.866C1.17383 38.0666 1.1237 38.2528 1.0485 38.421C1.26335 38.131 1.47461 37.8517 1.55338 38.5607C1.55338 39.0978 1.28125 39.8032 1.1595 40.5158C1.02702 41.2247 0.93392 41.9337 1.2526 42.4207C1.20247 42.5568 1.15592 42.6105 1.10937 42.6141C1.19889 43.0258 1.24544 43.6954 1.37077 44.3149C1.49251 44.9344 1.63216 45.5109 1.80761 45.7436C1.514 45.9549 1.46028 46.3774 1.49251 46.8894C1.5319 47.4015 1.66439 48.0066 1.84342 48.576C2.0153 49.1453 2.16927 49.6896 2.24804 50.0942C2.32682 50.5024 2.28743 50.7817 2.0153 50.8318C2.0153 50.8318 2.0511 50.9858 2.10481 51.2185C2.1621 51.4477 2.22298 51.7592 2.30891 52.0636C2.48079 52.6723 2.65266 53.281 2.65266 53.281L2.52734 53.2452C2.68131 54.0437 2.92122 54.5486 3.11816 54.921C3.32942 55.2898 3.52994 55.5225 3.75194 55.7481C3.80565 56.1205 3.61946 55.9021 3.55142 55.8878C3.84862 57.03 4.0205 57.6674 4.31053 58.1973C4.60057 58.7273 4.91926 59.1964 5.59959 59.9626L5.36326 60.2992C5.4671 60.3995 5.57811 60.6537 5.71059 61.0118C5.8395 61.3734 6.02212 61.821 6.22264 62.3259C6.32648 62.5765 6.4339 62.8415 6.55564 63.1065C6.68813 63.3679 6.82778 63.6329 6.98175 63.8943C7.28253 64.4206 7.6227 64.9362 8.04164 65.3552C7.99509 65.3588 7.90915 65.3552 7.76592 65.2299C8.65394 66.211 9.35218 67.6218 10.1113 68.7712C10.8525 69.9313 11.6367 70.805 12.428 70.7155C12.428 70.7155 12.7682 70.9876 13.1334 71.2276C13.4915 71.4746 13.8496 71.7181 13.8496 71.7181C12.3707 70.0925 14.4798 71.5534 13.9964 70.7656C14.3222 71.0378 14.6409 71.4961 14.7841 71.8041C14.9345 72.0977 14.8951 72.2552 14.4941 71.9115L14.4225 71.7468C13.649 71.9831 16.2594 73.777 15.93 74.0635C17.5986 75.4707 19.3173 76.7777 21.0754 77.9844C21.5195 78.2744 21.967 78.568 22.4075 78.8545C22.8586 79.1302 23.317 79.388 23.7717 79.6494C24.2229 79.918 24.6884 80.1543 25.1575 80.3835C25.6265 80.6055 26.0849 80.8525 26.5647 81.0459C26.5647 81.0459 26.5074 80.8812 26.4465 80.7165C26.3892 80.5553 26.3355 80.3799 26.3355 80.3799C26.3355 80.3799 26.4143 80.4228 26.536 80.473C26.6578 80.5267 26.8225 80.5947 26.9872 80.6663C27.313 80.806 27.6425 80.9456 27.6425 80.9456C27.9433 81.1999 27.9612 81.5185 27.0194 81.1139C27.4097 81.5973 28.7059 81.5221 28.7704 81.4075C30.5894 82.2597 27.8251 81.7298 28.398 81.9411L29.2072 82.1774L29.0497 82.0592C29.4078 82.07 29.6154 82.0234 29.8804 82.0306C30.0129 82.0306 30.1561 82.0521 30.3423 82.0879C30.5285 82.1201 30.7577 82.1774 31.0477 82.2705C31.7639 82.5856 31.3414 82.693 31.6278 82.7969C31.6171 82.8327 31.7102 82.8792 32.079 82.9437C32.079 82.9437 32.1864 82.983 32.3511 83.0224C32.5158 83.0654 32.7342 83.1227 32.9527 83.18C33.3931 83.2946 33.83 83.4127 33.83 83.4127L33.2212 82.8398C34.0412 82.8291 34.8576 83.2409 34.1522 82.5999C34.6643 83.0797 36.3006 83.4736 37.9084 83.6634C38.7105 83.7708 39.5054 83.7994 40.1392 83.8603C40.7765 83.8997 41.2599 83.9176 41.4425 83.9856C41.7254 83.9212 42.0011 83.8746 42.284 83.8424C42.5669 83.803 42.8498 83.7672 43.1398 83.7493C43.7199 83.7099 44.3358 83.7243 45.0125 83.6884C44.6724 83.624 44.4539 83.1692 45.6105 83.1549C45.4279 83.6419 45.9722 83.7386 46.6847 83.7278C47.3973 83.7135 48.2817 83.6813 48.8045 83.9319C48.3497 83.7708 49.1769 83.6133 49.936 83.4414C50.6951 83.2623 51.3719 83.0224 50.6629 82.8434C51.6333 82.7217 50.7882 83.1836 51.5652 83.2552C52.1238 83.0547 52.7111 82.8685 53.3305 82.7109C53.6385 82.6321 53.9607 82.5641 54.283 82.4889C54.6053 82.4101 54.9311 82.3314 55.2605 82.249C55.5935 82.1666 55.9337 82.0986 56.2703 82.0019C56.6069 81.9017 56.9435 81.8014 57.2872 81.7011C57.9747 81.5042 58.6443 81.2321 59.3032 80.9206C59.2924 80.7881 58.7732 80.7952 59.2709 80.3835C59.2709 80.3835 59.3748 80.3835 59.5287 80.3835C59.6863 80.3835 59.8904 80.3834 60.0945 80.3691C60.5099 80.3476 60.9216 80.3262 60.9216 80.3262C61.1687 80.1758 61.2081 79.9538 61.3298 79.764C61.4516 79.5778 61.6449 79.4167 62.2071 79.3629C62.0281 79.3379 61.7595 79.2985 62.0782 79.0836C64.7244 78.0452 67.1055 76.3193 69.3005 74.4287C71.5026 72.5274 73.5258 70.4756 75.7816 68.5599C75.0905 69.0183 75.4056 68.5957 75.7744 68.1267C75.4844 68.3916 75.5345 67.9261 75.3519 67.8832C75.3519 67.8832 75.4665 67.7829 75.6348 67.6289C75.8031 67.475 76.0287 67.2673 76.2578 67.0632C76.4834 66.8555 76.7126 66.6478 76.8809 66.4903C77.0528 66.3327 77.1566 66.2217 77.1566 66.2217C77.0814 65.903 77.4323 65.3623 77.7689 64.8396C78.1126 64.3239 78.3919 63.7904 78.2666 63.572L77.9515 64.2666C77.9802 63.6902 77.5469 63.8477 77.042 64.059C76.5228 64.2666 75.9427 64.5388 75.6957 64.2881C75.6742 64.5961 75.5166 64.8718 75.291 65.1368C75.0583 65.3946 74.7432 65.6345 74.4317 65.8995C73.8194 66.4366 73.139 66.9987 72.9135 67.9619C72.559 68.1732 72.9528 67.5609 72.6986 67.6218C72.6521 68.1625 72.3226 68.5993 71.5564 69.251L71.5778 69.1185C71.1338 69.6592 70.6791 70.0602 70.2816 70.4434C69.8806 70.8301 69.476 71.1416 69.057 71.4567C68.6417 71.7754 68.2191 72.0941 67.7178 72.4199C67.2237 72.7565 66.6866 73.1397 66.0242 73.555L66.4145 73.6911C65.8451 74.0563 65.6697 74.0527 65.3653 74.1709C65.043 75.0518 66.9014 73.0716 66.6758 73.9453C66.3894 73.9417 66.0062 74.1136 65.5801 74.375C65.154 74.6328 64.6527 74.9408 64.1729 75.2594C63.6967 75.5853 63.1882 75.8467 62.7693 76.04C62.3432 76.2262 61.9923 76.3229 61.7595 76.2155C60.85 76.6989 62.2179 76.416 61.3012 76.903L60.9574 76.8421L60.8536 77.2074C60.2341 77.4938 59.7973 77.3756 59.697 77.2324C59.8546 77.1823 60.0945 76.9889 60.2449 76.8994C59.7937 76.9746 59.253 77.2539 58.7804 77.526C58.3077 77.7946 57.8924 78.0202 57.7384 78.0452C57.7384 78.0452 57.9783 77.9808 58.2182 77.9163C58.4581 77.8519 58.698 77.7838 58.698 77.7838C58.0714 78.1025 57.3982 78.4176 56.6928 78.6969C55.9803 78.9547 55.2569 79.2448 54.5122 79.4596C54.1433 79.5778 53.7745 79.6959 53.4093 79.8141C53.0405 79.918 52.6753 80.0254 52.3172 80.1364C51.6046 80.3763 50.9028 80.5625 50.2547 80.8131L50.4874 80.9277C50.2368 81.0172 50.0255 81.0889 49.8357 81.139C49.646 81.1855 49.4848 81.2178 49.338 81.2392C49.048 81.2822 48.8331 81.2894 48.6076 81.2929C48.1564 81.3109 47.6837 81.2786 46.5451 81.4684L46.6238 81.4219C46.1834 81.6439 45.5711 81.7513 44.9373 81.7728C45.5067 81.5508 43.8309 81.4756 44.5793 81.2178C43.4621 81.4254 43.1792 81.4684 42.9966 81.5758C42.8104 81.6689 42.728 81.8265 41.9653 82.0986L41.6252 81.8193C41.3638 81.9303 41.2205 82.0163 40.9985 82.0807C40.7765 82.1416 40.4686 82.1917 39.8849 82.1702C40.8482 82.0234 39.1831 81.7011 40.2573 81.4899C39.6665 81.293 39.1545 81.2142 38.689 81.1891C38.2271 81.1533 37.8224 81.1569 37.4501 81.1676C36.7124 81.1963 36.1324 81.1605 35.6704 80.6413C35.0617 80.9027 35.5487 81.0996 36.1216 81.2357C36.6909 81.386 37.3391 81.4075 37.0168 81.4505C37.2567 81.6045 37.0132 81.7083 36.605 81.7549C36.204 81.7871 35.6418 81.7405 35.273 81.6331C34.8898 81.5543 34.607 81.2679 34.1952 80.9241C33.9875 80.7558 33.7476 80.5804 33.4468 80.4193C33.2928 80.3405 33.1245 80.2653 32.9384 80.1937C32.7522 80.1149 32.5445 80.0397 32.3153 79.9753C32.4979 80.0325 32.5266 79.9824 32.7092 80.0361C32.3905 79.8463 32.036 79.8105 31.66 79.7497C31.4738 79.721 31.2841 79.6888 31.0907 79.6279C30.9009 79.5599 30.7147 79.4596 30.5285 79.3164C29.9162 79.5778 29.4543 78.9189 29.1213 79.4059L30.8508 79.8642C30.3495 79.7711 29.8231 79.8034 29.2252 79.7497C28.6308 79.696 27.9898 79.5062 27.2665 79.0514C27.4348 78.9941 27.954 79.0407 28.3013 79.0908C27.9146 78.7471 27.3811 78.8545 26.9908 78.4821C27.1662 78.2601 27.6747 78.4391 28.2906 78.6647C28.5985 78.7793 28.9279 78.9118 29.2538 79.012C29.5868 79.0944 29.9126 79.1517 30.2027 79.1374C29.9986 78.9368 29.4865 78.8831 29.1177 78.7936C28.7489 78.7077 28.5233 78.6253 28.8814 78.4355C28.3837 78.6575 27.9468 78.457 27.467 78.21C26.9944 77.9414 26.4787 77.6227 25.7554 77.6191L25.981 77.3506C25.7662 77.3184 25.3186 77.2646 24.9856 77.0784L25.7912 77.0033C24.692 76.8457 24.1549 75.793 23.2131 75.4456C24.1119 75.9756 24.1656 76.1224 24.0725 76.2227C23.9758 76.3265 23.7288 76.3838 24.0653 76.7025C21.566 75.7751 23.1916 75.2165 20.7174 73.7591C21.0611 73.9453 21.8238 74.7438 21.2223 74.5397C21.0146 74.3535 20.7675 74.1458 20.567 73.9167C20.37 73.6911 20.1982 73.4691 20.1158 73.2972C18.5367 72.2194 20.1445 73.752 19.3603 73.4369C19.0774 72.7243 18.5117 72.9893 17.7597 72.5524L17.9781 72.2839C17.7848 72.0869 17.6236 71.9437 17.4876 71.8399C17.3587 71.7289 17.2548 71.6572 17.1653 71.6143C16.9898 71.5248 16.8824 71.5462 16.7786 71.5749C16.5745 71.625 16.3919 71.6895 15.7402 70.916L16.6926 71.1309C16.6926 71.1309 16.4814 70.9805 16.2665 70.8301C16.1591 70.7549 16.0553 70.6797 15.9729 70.6224C15.8977 70.5615 15.8476 70.5222 15.8476 70.5222L16.2701 70.3861C15.7724 70.1032 15.4752 69.874 15.2138 69.6198C14.9524 69.3656 14.7268 69.0791 14.4046 68.628C14.3974 68.986 13.846 68.9466 13.1764 68.2233C12.8935 67.5824 13.6598 68.3021 12.7395 67.2601C13.1119 67.3604 13.5094 67.4606 13.6813 68.1088C13.8066 68.0801 14.0501 68.1911 14.1754 68.1625C13.8603 67.4965 13.0618 66.7731 12.7395 66.3936C12.8505 66.5476 12.9794 66.7373 13.0153 66.8591C13.0153 66.8591 12.607 66.5476 12.1988 66.236C11.805 65.9066 11.4111 65.5736 11.4111 65.5736C11.3287 65.2406 11.5615 65.3838 11.7906 65.5199C11.5257 65.212 11.2142 65.0938 10.8561 64.614C11.1748 64.5817 11.3824 64.3956 11.9876 64.9828C11.9876 64.9828 11.9016 64.9004 11.7727 64.7751C11.6438 64.6498 11.472 64.4851 11.3108 64.3096C10.985 63.9587 10.6591 63.6114 10.6591 63.6114C10.6878 63.4395 10.4085 62.6195 10.6341 62.7699C10.4407 62.2794 9.99313 61.8103 9.5348 61.2839C9.10869 60.7432 8.62888 60.1667 8.43194 59.49C8.35316 59.447 8.24216 59.3396 8.08103 59.0889C7.9557 58.7846 7.84828 58.4874 7.74444 58.183C7.65134 57.8787 7.56898 57.5707 7.46514 57.2663C7.36488 56.9584 7.23956 56.654 7.09275 56.3389C6.95668 56.0203 6.78481 55.698 6.5628 55.3686C6.5628 55.3686 6.60935 55.1215 6.65232 54.8744C6.69171 54.6309 6.75258 54.3803 6.75258 54.3803C6.28709 53.2595 6.49835 55.7195 5.72134 53.8396C5.14126 52.504 5.97199 53.2058 5.97199 52.6866C5.76072 52.3787 5.45278 51.9561 5.20571 51.4334C4.9658 50.9106 4.82258 50.2768 4.88345 49.5929C5.06606 50.0011 5.06248 50.352 5.18065 50.7423M4.6328 35.8035C4.63996 35.9539 4.67577 36.1795 4.67577 36.3908C4.68651 36.6056 4.66502 36.799 4.55044 36.8921C4.19953 36.5054 4.42154 36.2726 4.6328 35.8035ZM14.2399 15.0569C14.1647 15.2932 13.8997 15.5116 13.5416 15.7086C13.7135 15.483 13.9319 15.2466 14.2399 15.0569ZM74.1631 14.4875C74.1631 14.4875 74.1416 14.4768 74.1273 14.4732C73.7513 13.8573 73.8838 14.0793 74.1631 14.4875ZM75.0046 15.6942C75.1335 15.7766 75.1657 15.7408 75.1621 15.6584C75.0297 15.6334 74.8184 15.3827 74.5964 15.0784C74.5964 15.2144 74.6644 15.4042 75.0046 15.6907M31.7961 82.7252L31.549 82.5605C32.19 82.6429 31.993 82.6787 31.7961 82.7252Z" fill="white"/>
<path d="M12.8935 17.3485C12.7968 17.3772 12.7324 17.3521 12.6679 17.327C12.6393 17.4559 12.6894 17.4989 12.8935 17.3485Z" fill="white"/>
<path d="M8.47498 59.4506L8.4893 59.4935C8.51794 59.5079 8.54301 59.5079 8.56449 59.5079L8.47498 59.4506Z" fill="white"/>
<path d="M55.6974 5.73266C55.4503 5.59302 55.3214 5.48201 55.2426 5.38892C55.1996 5.46411 55.2999 5.57153 55.6974 5.73266Z" fill="white"/>
<path d="M79.9532 21.7959C79.9532 21.7959 79.921 21.7457 79.8708 21.6705C79.8207 21.5953 79.7563 21.4951 79.6811 21.402C79.5414 21.2086 79.3982 21.0153 79.3982 21.0153C79.6488 21.402 79.6703 21.5774 79.7276 21.8102C79.7885 21.7529 79.8064 21.5345 79.9496 21.7923" fill="white"/>
<path d="M81.2028 30.0028C81.2816 30.1174 81.2888 30.2678 81.3676 30.3788L81.5108 30.2964C81.3353 29.7593 81.0954 29.4263 81.2028 30.0028Z" fill="white"/>
<path d="M79.3516 23.1099C79.1189 23.314 79.5056 23.7616 79.8207 24.3273C79.8028 24.2915 79.7849 24.2593 79.7706 24.2235C79.9926 24.2199 80.0033 24.0767 79.8995 23.8619C79.7956 23.6506 79.57 23.3785 79.348 23.1063" fill="white"/>
<path d="M79.8923 24.4563C79.989 24.6318 80.0821 24.8108 80.1537 24.9934C80.3328 24.9934 80.0785 24.7607 79.8923 24.4563Z" fill="white"/>
<path d="M76.3689 17.0334C76.4942 17.3306 76.7842 16.969 76.795 17.1803C77.0492 17.2125 76.6446 16.8544 76.3295 16.6539C76.1719 16.5536 76.0287 16.4963 76.0072 16.5357C75.9857 16.5751 76.0788 16.7183 76.3689 17.0334Z" fill="white"/>
<path d="M78.7429 24.0123L78.9541 23.6435L78.5316 23.4645L78.7429 24.0123Z" fill="white"/>
<path d="M76.4082 19.5757L76.888 20.4745C76.931 20.4279 77.0312 20.5175 77.1423 20.6356C76.8057 20.1093 76.4834 19.497 76.4082 19.5757Z" fill="white"/>
<path d="M77.1423 20.6356C77.3142 20.9149 77.4718 21.1799 77.6186 21.3052C77.5219 21.1584 77.325 20.8326 77.1423 20.6356Z" fill="white"/>
<path d="M77.998 22.8449L77.9228 22.5477L77.5791 21.9247C77.5791 21.9247 77.6865 22.1538 77.7939 22.383C77.9049 22.6086 77.998 22.8485 77.998 22.8485" fill="white"/>
<path d="M69.1538 11.4297L68.23 10.8066C68.0652 10.8317 68.2514 11.0824 68.6024 11.3044C68.8602 11.4046 69.2111 11.6302 69.1574 11.4297" fill="white"/>
<path d="M70.9298 14.4052C70.7758 14.1438 70.8188 14.0722 70.783 13.8717L70.45 14.1689L70.9333 14.4088L70.9298 14.4052Z" fill="white"/>
<path d="M68.5414 12.3392C68.3767 12.3642 67.1056 11.623 68.1762 12.4645C68.3409 12.4323 69.2325 13.0589 68.5414 12.3392Z" fill="white"/>
<path d="M54.4907 4.04984L54.7593 4.12146L54.9383 3.41248L54.4907 4.04984Z" fill="white"/>
<path d="M40.2108 4.18233C41.4605 4.28617 40.4794 3.7061 41.6216 3.86723C41.9116 3.67387 40.687 3.73474 40.9807 3.57361C40.2323 3.80277 39.8312 3.724 40.2108 4.18233Z" fill="white"/>
<path d="M40.9807 3.57357C41.1025 3.53776 41.2278 3.49479 41.3639 3.4375C41.1454 3.49837 41.0452 3.53776 40.9807 3.57357Z" fill="white"/>
<path d="M78.3955 65.0867C78.3955 65.0867 78.5531 64.9291 78.6927 64.7572C78.8359 64.5889 78.9827 64.4207 78.9827 64.4207L78.485 64.7787C78.485 64.7787 78.4671 64.8575 78.4421 64.9327C78.417 65.0115 78.3955 65.0867 78.3955 65.0867Z" fill="white"/>
<path d="M78.7966 63.3715L79.3051 63.4287L79.2048 62.7699C79.1225 62.9489 78.9649 63.2963 78.7966 63.3715Z" fill="white"/>
<path d="M6.05444 33.827L5.95776 33.7446C5.81095 33.8341 5.76082 34.0132 5.65698 34.3713L6.05444 33.827Z" fill="white"/>
<path d="M4.75456 44.4474V44.2612L4.35352 44.6336L4.75456 44.4474Z" fill="white"/>
<path d="M6.80277 53.1951C6.70251 52.8442 6.50557 52.4539 6.43396 52.0923C6.69177 52.8442 6.33012 53.4351 6.80277 53.1951Z" fill="white"/>
</g>
<defs>
<clipPath id="clip0_157_479">
<rect width="84.6159" height="84" fill="white" transform="translate(0.93396)"/>
</clipPath>
</defs>
</svg>
