<svg width="209" height="49" viewBox="0 0 209 49" fill="none" xmlns="http://www.w3.org/2000/svg">
<path d="M0 5.21484H140.559V21.6633H0V5.21484Z" fill="#C89633" fill-opacity="0.5"/>
<path d="M0 32.1304H206.353V48.5789H0V32.1304Z" fill="#C89633" fill-opacity="0.5"/>
<path d="M201.576 45.0522C200.278 45.0522 199.035 44.8823 197.845 44.5423C196.655 44.1869 195.697 43.7311 194.971 43.1749L196.246 40.3472C196.941 40.8417 197.76 41.2512 198.702 41.5756C199.66 41.8847 200.626 42.0392 201.599 42.0392C202.341 42.0392 202.936 41.9697 203.384 41.8306C203.848 41.6761 204.188 41.4675 204.404 41.2048C204.62 40.9421 204.728 40.6408 204.728 40.3009C204.728 39.8682 204.558 39.5283 204.219 39.2811C203.879 39.0184 203.43 38.8098 202.874 38.6553C202.318 38.4853 201.7 38.3308 201.02 38.1917C200.356 38.0372 199.683 37.8518 199.004 37.6355C198.339 37.4192 197.729 37.141 197.173 36.8011C196.616 36.4612 196.161 36.0131 195.805 35.4568C195.465 34.9006 195.295 34.1898 195.295 33.3245C195.295 32.3974 195.542 31.5553 196.037 30.7982C196.547 30.0256 197.304 29.4153 198.308 28.9672C199.328 28.5036 200.603 28.2719 202.133 28.2719C203.152 28.2719 204.157 28.3955 205.146 28.6427C206.134 28.8745 207.008 29.2298 207.765 29.7088L206.606 32.5597C205.849 32.127 205.092 31.8103 204.334 31.6094C203.577 31.3931 202.836 31.2849 202.109 31.2849C201.383 31.2849 200.788 31.3699 200.325 31.5399C199.861 31.7098 199.529 31.9339 199.328 32.212C199.127 32.4747 199.027 32.7837 199.027 33.1391C199.027 33.5563 199.197 33.8962 199.537 34.1589C199.877 34.4061 200.325 34.607 200.881 34.7615C201.437 34.916 202.048 35.0705 202.712 35.225C203.392 35.3796 204.064 35.5573 204.728 35.7581C205.408 35.959 206.026 36.2294 206.583 36.5693C207.139 36.9093 207.587 37.3574 207.927 37.9136C208.282 38.4699 208.46 39.1729 208.46 40.0228C208.46 40.9344 208.205 41.7688 207.695 42.5259C207.185 43.283 206.42 43.8934 205.401 44.3569C204.396 44.8205 203.121 45.0522 201.576 45.0522Z" fill="#325E86"/>
<path d="M179.202 44.7741V28.5499H186.225C187.677 28.5499 188.929 28.7894 189.979 29.2684C191.03 29.732 191.841 30.4041 192.413 31.2849C192.985 32.1656 193.271 33.2163 193.271 34.437C193.271 35.6422 192.985 36.6852 192.413 37.5659C191.841 38.4312 191.03 39.0956 189.979 39.5592C188.929 40.0227 187.677 40.2545 186.225 40.2545H181.288L182.957 38.6089V44.7741H179.202ZM189.516 44.7741L185.46 38.887H189.47L193.572 44.7741H189.516ZM182.957 39.0261L181.288 37.2646H186.016C187.175 37.2646 188.04 37.0174 188.612 36.5229C189.184 36.013 189.47 35.3177 189.47 34.437C189.47 33.5408 189.184 32.8455 188.612 32.351C188.04 31.8566 187.175 31.6093 186.016 31.6093H181.288L182.957 29.8247V39.0261Z" fill="#325E86"/>
<path d="M169.543 39.6983V36.8011H176.102V39.6983H169.543Z" fill="#325E86"/>
<path d="M158.518 45.0522C157.236 45.0522 156.046 44.8436 154.949 44.4265C153.867 44.0093 152.925 43.4221 152.121 42.665C151.333 41.9078 150.715 41.0194 150.267 39.9996C149.834 38.9798 149.618 37.8673 149.618 36.662C149.618 35.4568 149.834 34.3443 150.267 33.3245C150.715 32.3047 151.341 31.4162 152.144 30.6591C152.948 29.902 153.89 29.3148 154.972 28.8976C156.053 28.4804 157.228 28.2719 158.495 28.2719C159.777 28.2719 160.952 28.4804 162.018 28.8976C163.099 29.3148 164.034 29.902 164.822 30.6591C165.626 31.4162 166.252 32.3047 166.7 33.3245C167.148 34.3289 167.372 35.4414 167.372 36.662C167.372 37.8673 167.148 38.9875 166.7 40.0228C166.252 41.0426 165.626 41.931 164.822 42.6881C164.034 43.4298 163.099 44.0093 162.018 44.4265C160.952 44.8436 159.785 45.0522 158.518 45.0522ZM158.495 41.8538C159.221 41.8538 159.885 41.7302 160.488 41.4829C161.106 41.2357 161.647 40.8803 162.11 40.4168C162.574 39.9532 162.929 39.4047 163.177 38.7712C163.439 38.1377 163.571 37.4346 163.571 36.662C163.571 35.8895 163.439 35.1864 163.177 34.5529C162.929 33.9194 162.574 33.3709 162.11 32.9073C161.662 32.4438 161.129 32.0884 160.511 31.8412C159.893 31.5939 159.221 31.4703 158.495 31.4703C157.769 31.4703 157.096 31.5939 156.478 31.8412C155.876 32.0884 155.343 32.4438 154.879 32.9073C154.416 33.3709 154.053 33.9194 153.79 34.5529C153.543 35.1864 153.419 35.8895 153.419 36.662C153.419 37.4192 153.543 38.1222 153.79 38.7712C154.053 39.4047 154.408 39.9532 154.856 40.4168C155.32 40.8803 155.86 41.2357 156.478 41.4829C157.096 41.7302 157.769 41.8538 158.495 41.8538Z" fill="#325E86"/>
<path d="M143.033 44.7741V28.5499H146.787V44.7741H143.033Z" fill="#325E86"/>
<path d="M133.799 45.0522C132.547 45.0522 131.381 44.8514 130.299 44.4496C129.233 44.0324 128.306 43.4453 127.518 42.6881C126.73 41.931 126.112 41.0426 125.664 40.0228C125.231 39.003 125.015 37.8827 125.015 36.662C125.015 35.4414 125.231 34.3211 125.664 33.3013C126.112 32.2815 126.73 31.3931 127.518 30.6359C128.321 29.8788 129.256 29.2994 130.322 28.8976C131.388 28.4804 132.555 28.2719 133.822 28.2719C135.228 28.2719 136.495 28.5191 137.623 29.0135C138.767 29.4925 139.725 30.2033 140.497 31.1458L138.087 33.3709C137.53 32.7373 136.912 32.2661 136.232 31.957C135.553 31.6326 134.811 31.4703 134.007 31.4703C133.25 31.4703 132.555 31.5939 131.921 31.8412C131.288 32.0884 130.739 32.4438 130.276 32.9073C129.812 33.3709 129.449 33.9194 129.187 34.5529C128.939 35.1864 128.816 35.8895 128.816 36.662C128.816 37.4346 128.939 38.1377 129.187 38.7712C129.449 39.4047 129.812 39.9532 130.276 40.4168C130.739 40.8803 131.288 41.2357 131.921 41.4829C132.555 41.7302 133.25 41.8538 134.007 41.8538C134.811 41.8538 135.553 41.6992 136.232 41.3902C136.912 41.0657 137.53 40.579 138.087 39.93L140.497 42.1551C139.725 43.0976 138.767 43.8161 137.623 44.3106C136.495 44.805 135.22 45.0522 133.799 45.0522Z" fill="#325E86"/>
<path d="M108.991 44.7741V28.5499H116.014C117.466 28.5499 118.718 28.7894 119.768 29.2684C120.819 29.732 121.63 30.4041 122.202 31.2849C122.774 32.1656 123.06 33.2163 123.06 34.437C123.06 35.6422 122.774 36.6852 122.202 37.5659C121.63 38.4312 120.819 39.0956 119.768 39.5592C118.718 40.0227 117.466 40.2545 116.014 40.2545H111.077L112.746 38.6089V44.7741H108.991ZM119.305 44.7741L115.249 38.887H119.259L123.361 44.7741H119.305ZM112.746 39.0261L111.077 37.2646H115.805C116.964 37.2646 117.829 37.0174 118.401 36.5229C118.973 36.013 119.259 35.3177 119.259 34.437C119.259 33.5408 118.973 32.8455 118.401 32.351C117.829 31.8566 116.964 31.6093 115.805 31.6093H111.077L112.746 29.8247V39.0261Z" fill="#325E86"/>
<path d="M96.8948 35.086H104.706V38.0063H96.8948V35.086ZM97.1729 41.7611H106.003V44.7741H93.4413V28.55H105.702V31.5631H97.1729V41.7611ZM97.4742 27.2289L100.603 23.8914H104.497L100.302 27.2289H97.4742Z" fill="#325E86"/>
<path d="M71.3052 44.7741V28.5499H74.4109L81.3178 39.9995H79.6722L86.4632 28.5499H89.5457L89.5921 44.7741H86.0691L86.046 33.9502H86.6949L81.2714 43.0589H79.5795L74.0401 33.9502H74.8281V44.7741H71.3052Z" fill="#325E86"/>
<path d="M59.6296 45.0522C58.3471 45.0522 57.1573 44.8436 56.0603 44.4265C54.9787 44.0093 54.0361 43.4221 53.2326 42.665C52.4446 41.9078 51.8266 41.0194 51.3785 39.9996C50.9458 38.9798 50.7295 37.8673 50.7295 36.662C50.7295 35.4568 50.9458 34.3443 51.3785 33.3245C51.8266 32.3047 52.4523 31.4162 53.2558 30.6591C54.0593 29.902 55.0018 29.3148 56.0835 28.8976C57.1651 28.4804 58.3394 28.2719 59.6064 28.2719C60.8889 28.2719 62.0632 28.4804 63.1294 28.8976C64.211 29.3148 65.1458 29.902 65.9338 30.6591C66.7373 31.4162 67.3631 32.3047 67.8112 33.3245C68.2593 34.3289 68.4833 35.4414 68.4833 36.662C68.4833 37.8673 68.2593 38.9875 67.8112 40.0228C67.3631 41.0426 66.7373 41.931 65.9338 42.6881C65.1458 43.4298 64.211 44.0093 63.1294 44.4265C62.0632 44.8436 60.8966 45.0522 59.6296 45.0522ZM59.6064 41.8538C60.3326 41.8538 60.997 41.7302 61.5997 41.4829C62.2177 41.2357 62.7585 40.8803 63.2221 40.4168C63.6856 39.9532 64.041 39.4047 64.2882 38.7712C64.5509 38.1377 64.6822 37.4346 64.6822 36.662C64.6822 35.8895 64.5509 35.1864 64.2882 34.5529C64.041 33.9194 63.6856 33.3709 63.2221 32.9073C62.774 32.4438 62.2409 32.0884 61.6228 31.8412C61.0048 31.5939 60.3326 31.4703 59.6064 31.4703C58.8802 31.4703 58.208 31.5939 57.59 31.8412C56.9874 32.0884 56.4543 32.4438 55.9907 32.9073C55.5272 33.3709 55.1641 33.9194 54.9014 34.5529C54.6542 35.1864 54.5306 35.8895 54.5306 36.662C54.5306 37.4192 54.6542 38.1222 54.9014 38.7712C55.1641 39.4047 55.5195 39.9532 55.9676 40.4168C56.4311 40.8803 56.9719 41.2357 57.59 41.4829C58.208 41.7302 58.8802 41.8538 59.6064 41.8538Z" fill="#325E86"/>
<path d="M42.855 45.0522C41.6034 45.0522 40.4368 44.8514 39.3552 44.4496C38.2891 44.0324 37.362 43.4453 36.574 42.6881C35.7859 41.931 35.1679 41.0426 34.7198 40.0228C34.2871 39.003 34.0708 37.8827 34.0708 36.662C34.0708 35.4414 34.2871 34.3211 34.7198 33.3013C35.1679 32.2815 35.7859 31.3931 36.574 30.6359C37.3774 29.8788 38.3123 29.2994 39.3784 28.8976C40.4446 28.4804 41.6112 28.2719 42.8782 28.2719C44.2843 28.2719 45.5513 28.5191 46.6793 29.0135C47.8227 29.4925 48.7807 30.2033 49.5533 31.1458L47.1428 33.3709C46.5866 32.7373 45.9685 32.2661 45.2886 31.957C44.6088 31.6326 43.8671 31.4703 43.0636 31.4703C42.3065 31.4703 41.6112 31.5939 40.9776 31.8412C40.3441 32.0884 39.7956 32.4438 39.3321 32.9073C38.8685 33.3709 38.5054 33.9194 38.2427 34.5529C37.9955 35.1864 37.8719 35.8895 37.8719 36.662C37.8719 37.4346 37.9955 38.1377 38.2427 38.7712C38.5054 39.4047 38.8685 39.9532 39.3321 40.4168C39.7956 40.8803 40.3441 41.2357 40.9776 41.4829C41.6112 41.7302 42.3065 41.8538 43.0636 41.8538C43.8671 41.8538 44.6088 41.6992 45.2886 41.3902C45.9685 41.0657 46.5866 40.579 47.1428 39.93L49.5533 42.1551C48.7807 43.0976 47.8227 43.8161 46.6793 44.3106C45.5513 44.805 44.2766 45.0522 42.855 45.0522Z" fill="#325E86"/>
<path d="M22.9944 35.0859H30.8052V38.0063H22.9944V35.0859ZM23.2726 41.761H32.1031V44.7741H19.541V28.5499H31.8018V31.563H23.2726V41.761Z" fill="#325E86"/>
<path d="M8.21488 35.8508H16.0025V38.8638H8.21488V35.8508ZM8.49301 44.7741H4.73828V28.5499H16.9991V31.563H8.49301V44.7741Z" fill="#325E86"/>
<path d="M137.722 16.5023C136.517 16.5023 135.358 16.3091 134.246 15.9228C133.149 15.5211 132.299 15.0112 131.696 14.3931L132.368 13.072C132.94 13.6283 133.705 14.0995 134.663 14.4858C135.636 14.8567 136.656 15.0421 137.722 15.0421C138.742 15.0421 139.569 14.9185 140.202 14.6712C140.851 14.4086 141.322 14.0609 141.616 13.6283C141.925 13.1956 142.08 12.7166 142.08 12.1913C142.08 11.5578 141.894 11.0479 141.523 10.6616C141.168 10.2753 140.697 9.97398 140.109 9.75765C139.522 9.52588 138.873 9.32501 138.163 9.15504C137.452 8.98508 136.741 8.80738 136.03 8.62197C135.319 8.4211 134.663 8.15842 134.06 7.83394C133.473 7.50945 132.994 7.08454 132.623 6.55918C132.268 6.01838 132.09 5.31533 132.09 4.45005C132.09 3.64657 132.299 2.91262 132.716 2.2482C133.149 1.56833 133.805 1.02753 134.686 0.625788C135.567 0.208596 136.695 0 138.07 0C138.982 0 139.885 0.131338 140.782 0.394015C141.678 0.641239 142.45 0.988899 143.099 1.43699L142.52 2.80446C141.825 2.34091 141.083 2.00098 140.295 1.78465C139.522 1.56833 138.773 1.46017 138.047 1.46017C137.073 1.46017 136.27 1.59151 135.636 1.85419C135.003 2.11686 134.531 2.47225 134.222 2.92034C133.929 3.35299 133.782 3.84744 133.782 4.40369C133.782 5.03721 133.96 5.54711 134.315 5.9334C134.686 6.31968 135.165 6.62099 135.752 6.83731C136.355 7.05363 137.011 7.24678 137.722 7.41675C138.433 7.58671 139.136 7.77213 139.831 7.973C140.542 8.17387 141.191 8.43655 141.778 8.76103C142.381 9.07006 142.86 9.48725 143.215 10.0126C143.586 10.538 143.771 11.2256 143.771 12.0754C143.771 12.8634 143.555 13.5974 143.123 14.2772C142.69 14.9417 142.025 15.4825 141.129 15.8996C140.249 16.3014 139.113 16.5023 137.722 16.5023Z" fill="#325E86"/>
<path d="M114.04 16.3632L121.456 0.139038H123.148L130.565 16.3632H128.757L121.943 1.13566H122.638L115.824 16.3632H114.04ZM116.96 12.029L117.47 10.6384H126.903L127.413 12.029H116.96Z" fill="#325E86"/>
<path d="M97.7134 16.3632V0.139038H104.319C106.049 0.139038 107.564 0.486698 108.862 1.18202C110.175 1.86189 111.195 2.81216 111.921 4.03283C112.647 5.2535 113.01 6.65959 113.01 8.2511C113.01 9.84261 112.647 11.2487 111.921 12.4694C111.195 13.6901 110.175 14.648 108.862 15.3434C107.564 16.0232 106.049 16.3632 104.319 16.3632H97.7134ZM99.4285 14.8798H104.226C105.663 14.8798 106.907 14.6017 107.958 14.0454C109.024 13.4737 109.851 12.6934 110.438 11.7045C111.025 10.7002 111.318 9.54904 111.318 8.2511C111.318 6.93772 111.025 5.78658 110.438 4.79768C109.851 3.80878 109.024 3.0362 107.958 2.47995C106.907 1.90824 105.663 1.62239 104.226 1.62239H99.4285V14.8798Z" fill="#325E86"/>
<path d="M78.8592 16.3632V0.139038H80.273L91.4677 14.2309H90.726V0.139038H92.4179V16.3632H91.0041L79.8326 2.27135H80.5743V16.3632H78.8592Z" fill="#325E86"/>
<path d="M59.6499 16.3632L67.0667 0.139038H68.7586L76.1753 16.3632H74.3675L67.5534 1.13566H68.2487L61.4346 16.3632H59.6499ZM62.5703 12.029L63.0802 10.6384H72.5133L73.0232 12.029H62.5703Z" fill="#325E86"/>
<path d="M40.1096 16.3632V0.139038H41.5234L48.9402 12.7939H48.1985L55.5457 0.139038H56.9595V16.3632H55.3139V2.71172H55.708L48.9402 14.3004H48.129L41.3148 2.71172H41.7552V16.3632H40.1096Z" fill="#325E86"/>
<path d="M26.1349 7.39354H34.7105V8.85371H26.1349V7.39354ZM26.3203 14.8798H36.078V16.3632H24.6052V0.139038H35.7303V1.62239H26.3203V14.8798Z" fill="#325E86"/>
<path d="M5.45679 16.3632V0.139038H12.0623C13.7929 0.139038 15.3072 0.486698 16.6051 1.18202C17.9185 1.86189 18.9383 2.81216 19.6645 4.03283C20.3907 5.2535 20.7538 6.65959 20.7538 8.2511C20.7538 9.84261 20.3907 11.2487 19.6645 12.4694C18.9383 13.6901 17.9185 14.648 16.6051 15.3434C15.3072 16.0232 13.7929 16.3632 12.0623 16.3632H5.45679ZM7.17191 14.8798H11.9696C13.4066 14.8798 14.6505 14.6017 15.7012 14.0454C16.7673 13.4737 17.594 12.6934 18.1811 11.7045C18.7683 10.7002 19.0619 9.54904 19.0619 8.2511C19.0619 6.93772 18.7683 5.78658 18.1811 4.79768C17.594 3.80878 16.7673 3.0362 15.7012 2.47995C14.6505 1.90824 13.4066 1.62239 11.9696 1.62239H7.17191V14.8798Z" fill="#325E86"/>
</svg>
