<svg width="62" height="54" viewBox="0 0 62 54" fill="none" xmlns="http://www.w3.org/2000/svg">
<path d="M49.8948 14.1303C48.5546 13.1352 46.7338 13.5937 45.257 13.9538L42.8643 2.80665C42.6653 1.88848 42.1115 1.08617 41.3236 0.574491C40.5357 0.0628145 39.5775 -0.116758 38.6578 0.0748966C38.1669 0.186107 37.7047 0.398593 37.3007 0.698747C36.8966 0.998902 36.5598 1.38011 36.3116 1.81797C36.0634 2.25583 35.9094 2.74069 35.8594 3.24151C35.8094 3.74232 35.8645 4.24806 36.0213 4.72634L16.1867 14.4644L4.99549 16.8664C3.35647 17.22 1.92469 18.2094 1.01434 19.6175C0.103987 21.0255 -0.210572 22.7373 0.139691 24.377L1.47434 30.5965C1.80564 32.1118 2.68002 33.4534 3.9325 34.3682C5.18498 35.2831 6.72898 35.7079 8.27319 35.5627L11.5701 50.9551C11.7967 51.9588 12.4102 52.8325 13.2775 53.3863C14.1447 53.94 15.1955 54.1291 16.2013 53.9124C17.2072 53.6957 18.0869 53.0907 18.6491 52.229C19.2114 51.3672 19.4108 50.3184 19.204 49.3104L18.3155 45.165C19.0127 45.1348 19.695 44.953 20.3147 44.632C20.9344 44.3111 21.4766 43.8588 21.9035 43.3067C22.3304 42.7546 22.6318 42.116 22.7865 41.4355C22.9412 40.755 22.9456 40.0489 22.7993 39.3665C22.653 38.6842 22.3597 38.0419 21.9396 37.4846C21.5196 36.9272 20.983 36.4682 20.3673 36.1396C19.7517 35.811 19.0717 35.6207 18.3749 35.5819C17.6781 35.5431 16.9812 35.6569 16.3329 35.9151L15.915 33.9653L20.1751 33.051L42.26 33.7924L42.3525 34.2232C42.5569 35.1359 43.1135 35.931 43.9012 36.4354C44.6889 36.9398 45.644 37.1126 46.5585 36.9162C47.473 36.7198 48.273 36.1701 48.7842 35.3868C49.2954 34.6035 49.4765 33.65 49.2881 32.7338L46.8955 21.5872L48.5963 21.2222C49.3437 21.0504 50.0243 20.6635 50.5543 20.1093C51.0842 19.555 51.4403 18.8577 51.5784 18.1034C51.7165 17.3491 51.6307 16.5709 51.3315 15.8648C51.0323 15.1587 50.5328 14.5557 49.8948 14.1303ZM17.6447 37.8904C18.2948 37.7607 18.9699 37.8921 19.524 38.2562C20.0781 38.6202 20.4666 39.1877 20.6057 39.8359C20.7448 40.4841 20.6232 41.161 20.2672 41.7203C19.9112 42.2796 19.3495 42.6764 18.7033 42.8248L17.853 43.0073L16.7954 38.0726L17.6447 37.8904ZM14.424 37.5378C14.4211 37.5457 15.9033 44.4476 15.9074 44.4588L17.0477 49.7788C17.1349 50.2164 17.0463 50.6708 16.8011 51.0437C16.5559 51.4165 16.1737 51.6778 15.7373 51.771C15.3009 51.8642 14.8453 51.7818 14.4692 51.5416C14.0931 51.3015 13.8266 50.9229 13.7275 50.4878L10.4402 35.1404L13.7575 34.4284L14.424 37.5378ZM8.92997 33.2077C8.38013 33.3759 7.80149 33.4289 7.23026 33.3632C6.65902 33.2976 6.10749 33.1147 5.61017 32.8261C5.11285 32.5375 4.68045 32.1493 4.34003 31.6859C3.99961 31.2225 3.75849 30.6939 3.63177 30.133L2.29711 23.9136C2.06935 22.846 2.27432 21.7317 2.86704 20.815C3.45976 19.8983 4.39185 19.2542 5.45886 19.0238L15.7039 16.8249L18.767 31.0959L8.92997 33.2077ZM41.7825 31.568L20.9756 30.8696L17.8112 16.1255L36.4986 6.95019C38.1089 14.4506 40.1698 24.0551 41.7825 31.568ZM46.1097 34.7944C45.7604 34.8682 45.3962 34.8008 45.0965 34.607C44.7967 34.4132 44.5859 34.1086 44.5099 33.7599L44.2367 32.4866L41.8859 21.5336C40.929 17.0882 39.3294 9.61285 38.3591 5.10343L38.0862 3.83196C38.0156 3.48594 38.0845 3.12604 38.2777 2.83048C38.471 2.53493 38.7732 2.3276 39.1185 2.25357C39.4638 2.17953 39.8243 2.24477 40.1218 2.43511C40.4193 2.62544 40.6296 2.92549 40.707 3.27003C42.2283 10.3572 45.5849 25.9956 47.1308 33.1973C47.2065 33.5444 47.1416 33.9075 46.9502 34.2068C46.7588 34.5062 46.4566 34.7175 46.1097 34.7944ZM49.1863 18.3352C48.7761 19.1711 47.2011 19.2085 46.4324 19.4298L45.7202 16.1112L47.4206 15.7462C47.7483 15.6804 48.0882 15.7126 48.3978 15.8388C48.7073 15.965 48.9729 16.1796 49.1612 16.4557C49.3496 16.7319 49.4524 17.0574 49.4568 17.3917C49.4613 17.726 49.3672 18.0541 49.1863 18.3352Z" fill="#BCBABA"/>
<path d="M61.8348 14.3879C61.8045 14.2461 61.7466 14.1117 61.6643 13.9924C61.5821 13.8731 61.4771 13.7712 61.3553 13.6925C61.2336 13.6138 61.0976 13.5599 60.955 13.5339C60.8124 13.5079 60.6661 13.5102 60.5244 13.5409L55.0479 14.7166C54.7618 14.778 54.5118 14.9506 54.353 15.1963C54.1941 15.4421 54.1394 15.7409 54.2009 16.027C54.2623 16.313 54.4349 16.563 54.6806 16.7219C54.9264 16.8807 55.2252 16.9354 55.5113 16.874L60.9878 15.6983C61.1295 15.6679 61.2638 15.6099 61.3831 15.5276C61.5023 15.4453 61.6042 15.3403 61.6829 15.2186C61.7615 15.0969 61.8154 14.9609 61.8415 14.8184C61.8676 14.6758 61.8653 14.5295 61.8348 14.3879Z" fill="#BCBABA"/>
<path d="M56.5202 7.73942C56.6723 7.4937 56.722 7.19812 56.6586 6.91618C56.5951 6.63423 56.4236 6.38841 56.1809 6.23152C55.9383 6.07463 55.6437 6.01917 55.3606 6.07707C55.0774 6.13497 54.8283 6.3016 54.6667 6.54117L51.6251 11.2444C51.4728 11.4901 51.4229 11.7858 51.4863 12.0679C51.5497 12.35 51.7212 12.596 51.964 12.7529C52.2068 12.9099 52.5015 12.9653 52.7847 12.9073C53.068 12.8493 53.3171 12.6825 53.4787 12.4427L56.5202 7.73942Z" fill="#BCBABA"/>
<path d="M59.7163 22.6325L55.013 19.5914C54.7673 19.4395 54.4718 19.3899 54.1899 19.4534C53.908 19.5168 53.6623 19.6883 53.5054 19.9309C53.3486 20.1736 53.2931 20.468 53.351 20.7511C53.4088 21.0342 53.5753 21.2833 53.8148 21.445C54.1217 21.5657 58.87 24.9197 59.1161 24.6628C59.352 24.6584 59.5803 24.5789 59.768 24.4359C59.9557 24.2929 60.093 24.0938 60.1599 23.8675C60.2268 23.6413 60.2198 23.3996 60.1401 23.1775C60.0603 22.9554 59.9119 22.7645 59.7163 22.6325Z" fill="#BCBABA"/>
</svg>
