<svg width="88" height="88" viewBox="0 0 88 88" fill="none" xmlns="http://www.w3.org/2000/svg">
<path d="M88 44C88 19.6995 68.3005 0 44 0C19.6995 0 0 19.6995 0 44C0 68.3005 19.6995 88 44 88C68.3005 88 88 68.3005 88 44Z" fill="#004A8D"/>
<path d="M48.3337 21.3438V22.3691C48.9559 22.4863 49.5587 22.6328 50.1031 22.7793C51.3476 23.1113 52.0865 24.4004 51.7559 25.6504C51.4254 26.9004 50.142 27.6426 48.8976 27.3105C47.8378 27.0273 46.8461 26.832 45.9614 26.8223C45.2517 26.8125 44.5322 26.9883 44.0753 27.252C43.8711 27.3789 43.7739 27.4863 43.735 27.5449C43.7058 27.5938 43.6669 27.6621 43.6669 27.8184C43.6669 27.8477 43.6669 27.8672 43.6669 27.877C43.6864 27.8965 43.7544 27.9941 43.9878 28.1309C44.5517 28.4727 45.3878 28.7363 46.6517 29.1172L46.7392 29.1465C47.8184 29.4688 49.2573 29.9082 50.424 30.6406C51.7559 31.4805 52.9615 32.877 52.9907 35.0254C53.0198 37.2227 51.8823 38.8242 50.3948 39.7617C49.7434 40.1621 49.0434 40.4453 48.3239 40.6211V41.6562C48.3239 42.9551 47.2837 44 45.9906 44C44.6975 44 43.6572 42.9551 43.6572 41.6562V40.543C42.7336 40.3184 41.8878 40.0254 41.1683 39.7813C40.9641 39.7129 40.7697 39.6445 40.585 39.5859C39.36 39.1758 38.6988 37.8477 39.1072 36.6172C39.5155 35.3867 40.8377 34.7227 42.0628 35.1328C42.3155 35.2207 42.5489 35.2988 42.7725 35.377C44.0947 35.8262 45.0475 36.1484 46.0684 36.1875C46.8461 36.2168 47.5364 36.0312 47.935 35.7871C48.1198 35.6699 48.2073 35.5723 48.2462 35.5039C48.2851 35.4453 48.3337 35.3281 48.3239 35.1035V35.084C48.3239 34.9863 48.3239 34.8789 47.935 34.6348C47.3809 34.2832 46.5448 34.0098 45.3003 33.6289L45.1156 33.5703C44.0656 33.2578 42.685 32.8379 41.5766 32.1641C40.2641 31.373 39.0002 30.0156 38.9905 27.8574C38.9808 25.6211 40.2447 24.0879 41.6836 23.2285C42.3058 22.8574 42.9767 22.6035 43.6475 22.4277V21.3438C43.6475 20.0449 44.6878 19 45.9809 19C47.2739 19 48.3142 20.0449 48.3142 21.3438H48.3337ZM73.2423 51.8418C74.5159 53.5801 74.1464 56.0215 72.4159 57.3008L60.1074 66.4121C57.8324 68.0918 55.0907 69 52.2615 69H36.6669H21.1111C19.3903 69 18 67.6035 18 65.875V59.625C18 57.8965 19.3903 56.5 21.1111 56.5H24.689L29.0543 52.9844C31.2613 51.207 34.003 50.25 36.8321 50.25H44.4447H46.0003H52.2226C53.9434 50.25 55.3337 51.6465 55.3337 53.375C55.3337 55.1035 53.9434 56.5 52.2226 56.5H46.0003H44.4447C43.5892 56.5 42.8892 57.2031 42.8892 58.0625C42.8892 58.9219 43.5892 59.625 44.4447 59.625H56.1699L67.8075 51.0117C69.5381 49.7324 71.9686 50.1035 73.2423 51.8418ZM36.8224 56.5H36.7349C36.7641 56.5 36.7933 56.5 36.8224 56.5Z" fill="white"/>
</svg>
