<svg width="47" height="54" viewBox="0 0 47 54" fill="none" xmlns="http://www.w3.org/2000/svg">
<path d="M14.1888 0.736203C12.4468 0.334018 10.6715 1.42281 10.2678 3.17168C9.864 4.92055 10.9823 6.67738 12.7244 7.07956L13.5216 7.26361L12.673 10.9392C11.7491 14.9409 14.4441 19.0287 17.1514 22.1202C18.7263 23.92 20.3991 25.4302 21.4887 26.3686C20.098 26.7344 17.9325 27.3585 15.728 28.2857C11.9099 29.8708 7.72525 32.3703 6.8014 36.3719L5.95282 40.0475L5.15561 39.8635C3.41355 39.4613 1.63828 40.5501 1.23452 42.2989C0.830761 44.0478 1.94907 45.8046 3.69113 46.2068L32.3908 52.8327C34.1328 53.2348 35.9081 52.146 36.3118 50.3972C36.7156 48.6483 35.5973 46.8915 33.8552 46.4893L33.058 46.3052L33.9066 42.6297C34.8305 38.628 32.1355 34.5402 29.4282 31.4487C27.8533 29.6489 26.1805 28.1387 25.0909 27.2002C26.4816 26.8344 28.6471 26.2104 30.8516 25.2831C34.6697 23.6981 38.8543 21.1986 39.7782 17.1969L40.6268 13.5213L41.424 13.7054C43.1661 14.1076 44.9413 13.0188 45.3451 11.2699C45.7488 9.52105 44.6305 7.76422 42.8885 7.36203L14.1888 0.736203ZM13.8261 2.30722L42.5258 8.93305C43.4411 9.14437 43.9855 10.0194 43.7802 10.9086C43.5749 11.7979 42.702 12.3457 41.7867 12.1344L40.2218 11.7731L14.6815 5.87665L13.1166 5.51536C12.2013 5.30404 11.6569 4.42904 11.8622 3.53978C12.0675 2.65053 12.9404 2.10272 13.8557 2.31404L13.8261 2.30722ZM15.0796 7.65454L39.055 13.1897L38.2065 16.8653C37.5016 19.9184 33.8441 22.2898 30.2237 23.8269C27.1215 25.1401 24.3017 25.7692 23.4814 25.9545C22.8185 25.458 20.5667 23.6268 18.3541 21.0866C15.7444 18.1112 13.5262 14.3832 14.2311 11.3301L15.0796 7.65454ZM18.046 12.9914C17.6031 12.8892 17.1962 13.1699 17.1004 13.5849C17.0662 13.7331 17.0615 13.8881 17.1227 14.0271C17.671 15.5587 18.771 17.5298 20.3685 19.3661C22.041 21.2821 23.0013 21.9721 23.8957 22.6782C24.075 22.8444 24.3408 22.9058 24.5748 22.8349C25.6587 22.5856 26.8606 22.3636 29.1969 21.4043C31.4378 20.4542 33.32 19.1716 34.4547 18.0285C34.773 17.7274 34.7713 17.1962 34.4717 16.8773C34.3741 16.7611 34.2333 16.6973 34.0857 16.6633L18.0529 12.9618L18.046 12.9914ZM19.2482 14.9237L32.1513 17.9026C31.2078 18.6215 29.9485 19.3611 28.5759 19.9184C26.5828 20.7383 25.6012 20.9488 24.5832 21.1821C23.7705 20.5262 22.9805 19.9067 21.5486 18.296C20.566 17.1637 19.7879 15.9538 19.2187 14.9169L19.2482 14.9237ZM23.114 27.6805C23.7769 28.177 26.0288 30.0082 28.2413 32.5484C30.851 35.5237 33.0693 39.2517 32.3644 42.3048L31.5158 45.9804L27.9431 45.1556C27.3516 43.6765 26.2992 41.9037 24.8445 40.2565C23.1721 38.3405 22.1822 37.6437 21.3174 36.9445C21.213 36.8579 21.1017 36.801 20.9541 36.7669C20.836 36.7397 20.7405 36.7488 20.6087 36.7809C19.5249 37.0302 18.3229 37.2522 15.9866 38.2115C13.9503 39.0839 12.2272 40.216 11.054 41.2564L7.48135 40.4316L8.32992 36.756C9.03479 33.7029 12.6923 31.3315 16.3127 29.7944C19.4148 28.4812 22.2347 27.8522 23.055 27.6669L23.114 27.6805ZM20.6367 38.4109C21.4494 39.0668 22.2394 39.6863 23.6713 41.297C24.6539 42.4293 25.432 43.6392 26.0012 44.6761L13.0687 41.6903C14.0121 40.9715 15.2714 40.2319 16.6441 39.6746C18.6076 38.8478 19.6188 38.6442 20.6367 38.4109ZM4.82244 41.4413L6.38733 41.8026L31.9276 47.699L33.4925 48.0603C34.4079 48.2716 34.9522 49.1466 34.7469 50.0359C34.5416 50.9251 33.6688 51.473 32.7535 51.2616L4.05383 44.6358C3.13851 44.4245 2.59412 43.5495 2.79942 42.6602C3.00472 41.771 3.87759 41.2232 4.79291 41.4345L4.82244 41.4413Z" fill="#BCBABA"/>
</svg>
