<svg width="247" height="53" viewBox="0 0 247 53" fill="none" xmlns="http://www.w3.org/2000/svg">
<path d="M163.193 23.4278C163.901 23.5848 164.57 23.7811 165.121 24.0167C165.711 24.2522 166.183 24.4878 166.576 24.8018C166.97 25.1159 167.285 25.4692 167.481 25.901C167.678 26.3329 167.796 26.804 167.796 27.3928V27.4321C167.796 28.0995 167.678 28.6491 167.403 29.1594C167.127 29.6698 166.773 30.1016 166.301 30.4157C165.829 30.769 165.278 31.0438 164.609 31.2008C163.98 31.3971 163.232 31.4756 162.485 31.4756C160.321 31.4756 158.354 30.769 156.623 29.395L158.511 27.3536C159.141 27.8639 159.77 28.2172 160.4 28.5313C161.029 28.8061 161.737 28.9631 162.524 28.9631C163.193 28.9631 163.704 28.8454 164.058 28.6491C164.413 28.4135 164.609 28.1387 164.609 27.7461V27.7069C164.609 27.5106 164.57 27.3536 164.531 27.1965C164.491 27.0395 164.373 26.9217 164.176 26.804C163.98 26.6862 163.744 26.5292 163.39 26.4114C163.036 26.2936 162.563 26.1758 161.973 26.0188C161.226 25.8618 160.596 25.6655 160.006 25.4692C159.416 25.2729 158.905 25.0374 158.511 24.7233C158.078 24.4092 157.764 24.0559 157.528 23.6241C157.291 23.1923 157.173 22.6427 157.173 21.9753V21.936C157.173 21.3472 157.291 20.7975 157.528 20.3265C157.764 19.8554 158.118 19.4235 158.55 19.0702C158.983 18.7169 159.534 18.4813 160.164 18.2851C160.793 18.0888 161.462 18.0103 162.209 18.0103C162.642 18.0103 163.075 18.0495 163.468 18.128C163.901 18.2065 164.255 18.2851 164.531 18.3636V21.1116C164.255 20.9938 163.901 20.8761 163.429 20.7583C162.996 20.6405 162.563 20.562 162.131 20.562C161.54 20.562 161.068 20.6798 160.754 20.8761C160.439 21.1116 160.282 21.3472 160.282 21.7005V21.7397C160.282 21.9753 160.321 22.1323 160.36 22.2893C160.439 22.4464 160.557 22.5641 160.754 22.6819C160.95 22.7997 161.226 22.9175 161.619 23.0352C162.091 23.153 162.563 23.2708 163.193 23.4278Z" fill="white"/>
<path d="M168.307 21.3471H171.494V31.2007H168.307V21.3471ZM171.534 19.8553H168.347V17.6569H171.534V19.8553Z" fill="white"/>
<path d="M183.14 31.2008H179.914V25.7047C179.914 25.4692 179.874 25.1944 179.835 24.9588C179.756 24.684 179.677 24.4485 179.52 24.2522C179.363 24.0559 179.166 23.8596 178.93 23.7418C178.694 23.6241 178.379 23.5455 177.986 23.5455C177.632 23.5455 177.317 23.6241 177.081 23.7418C176.845 23.8596 176.648 24.0559 176.491 24.2522C176.333 24.4485 176.255 24.684 176.176 24.9588C176.097 25.2336 176.097 25.4692 176.097 25.7047V31.2008H172.832V25.901C172.832 25.2336 172.95 24.6055 173.147 24.0166C173.343 23.4278 173.658 22.9174 174.091 22.4856C174.524 22.0538 175.074 21.7004 175.704 21.4649C176.333 21.2293 177.12 21.1116 177.986 21.1116C178.851 21.1116 179.599 21.2293 180.268 21.4649C180.936 21.7004 181.448 22.0538 181.881 22.4856C182.313 22.9174 182.628 23.4278 182.825 24.0166C183.022 24.6055 183.14 25.2336 183.14 25.901V31.2008Z" fill="white"/>
<path d="M189.041 29.1987C189.513 29.1987 189.907 29.1201 190.182 28.9631C190.497 28.8061 190.733 28.6098 190.89 28.335C191.047 28.0602 191.165 27.7854 191.244 27.4321C191.323 27.0787 191.323 26.7254 191.323 26.3328C191.323 25.9403 191.284 25.5477 191.244 25.2336C191.165 24.8803 191.087 24.6055 190.89 24.3307C190.733 24.0952 190.497 23.8596 190.182 23.7418C189.867 23.5848 189.513 23.5063 189.041 23.5063C188.569 23.5063 188.175 23.5848 187.861 23.7418C187.546 23.8989 187.349 24.0952 187.153 24.3307C186.995 24.5662 186.877 24.8803 186.798 25.2336C186.72 25.5869 186.72 25.9403 186.72 26.3328C186.72 26.7254 186.759 27.0787 186.798 27.4321C186.877 27.7854 186.995 28.0602 187.153 28.335C187.31 28.6098 187.546 28.8061 187.861 28.9631C188.175 29.1201 188.569 29.1987 189.041 29.1987ZM188.608 21.2686C189.12 21.2686 189.631 21.3471 190.064 21.5042C190.497 21.6612 190.929 21.8575 191.323 22.1323V17.6962H194.549V31.24H191.323V30.6512C190.929 30.926 190.497 31.1223 190.064 31.24C189.631 31.3971 189.12 31.4363 188.608 31.4363C187.939 31.4363 187.271 31.3186 186.68 31.0438C186.09 30.769 185.54 30.4156 185.107 29.9445C184.635 29.4735 184.281 28.9238 184.044 28.335C183.769 27.7069 183.651 27.0787 183.651 26.3721C183.651 25.6655 183.769 24.9981 184.044 24.37C184.32 23.7418 184.674 23.1922 185.107 22.7604C185.54 22.2893 186.09 21.936 186.68 21.6612C187.31 21.3864 187.939 21.2686 188.608 21.2686Z" fill="white"/>
<path d="M196.949 21.3471H200.136V31.2007H196.949V21.3471ZM200.136 19.8553H196.949V17.6569H200.136V19.8553Z" fill="white"/>
<path d="M200.529 26.215C200.529 25.3906 200.686 24.684 200.962 24.0951C201.237 23.5063 201.591 22.9959 202.024 22.6033C202.457 22.2108 202.968 21.8967 203.519 21.6612C204.07 21.4256 204.621 21.2686 205.171 21.1508C205.722 21.033 206.234 20.9938 206.706 20.9938C207.178 20.9938 207.571 21.033 207.886 21.1115V23.1922C207.571 23.1529 207.139 23.1529 206.666 23.1922C206.194 23.2707 205.722 23.3885 205.25 23.624C204.778 23.8596 204.385 24.1736 204.07 24.5662C203.755 24.9588 203.598 25.5084 203.598 26.1365C203.598 26.7646 203.755 27.3143 204.07 27.7068C204.385 28.1387 204.778 28.4527 205.25 28.649C205.722 28.8846 206.155 29.0023 206.666 29.0808C207.139 29.1201 207.571 29.1201 207.886 29.0416V31.2008C207.571 31.2793 207.178 31.3185 206.706 31.3185C206.234 31.3185 205.722 31.2793 205.171 31.1615C204.621 31.0437 204.07 30.8867 203.519 30.6512C202.968 30.4156 202.457 30.1015 202.024 29.709C201.591 29.3164 201.237 28.806 200.962 28.2172C200.647 27.7461 200.529 27.0395 200.529 26.215Z" fill="white"/>
<path d="M215.755 27.1965C215.479 27.0787 215.164 27.0002 214.81 26.9217C214.456 26.8432 214.102 26.8039 213.709 26.8039C213.001 26.8039 212.45 26.9217 212.056 27.1572C211.663 27.3928 211.466 27.7461 211.466 28.1779V28.2172C211.466 28.6098 211.624 28.8846 211.978 29.1201C212.292 29.3164 212.725 29.4342 213.237 29.4342C213.984 29.4342 214.574 29.2772 215.046 28.9631C215.519 28.649 215.755 28.2172 215.755 27.7069V27.1965ZM213.748 21.1116C215.479 21.1116 216.777 21.5041 217.564 22.25C218.351 22.9959 218.784 24.0559 218.784 25.4299V31.24H215.676V30.1408C215.282 30.5334 214.81 30.8475 214.26 31.083C213.709 31.3186 213.04 31.4363 212.253 31.4363C211.702 31.4363 211.23 31.3578 210.758 31.24C210.286 31.1223 209.893 30.926 209.538 30.6512C209.184 30.3764 208.909 30.0623 208.712 29.709C208.516 29.3164 208.398 28.8846 208.398 28.4135V28.3742C208.398 27.8246 208.516 27.3535 208.752 26.961C208.988 26.5684 209.302 26.2151 209.696 25.9795C210.089 25.7047 210.561 25.5084 211.152 25.3907C211.702 25.2729 212.332 25.1944 213.001 25.1944C213.591 25.1944 214.063 25.2336 214.496 25.3121C214.928 25.3907 215.361 25.4692 215.755 25.5869V25.4299C215.755 24.2129 214.968 23.5848 213.355 23.5848C212.647 23.5848 212.056 23.6633 211.545 23.7811V21.3079C211.899 21.2293 212.253 21.1901 212.607 21.1508C212.883 21.1116 213.315 21.1116 213.748 21.1116Z" fill="white"/>
<path d="M225.59 21.2686V23.0352V23.31H222.6V27.1573C222.6 27.5106 222.679 27.8247 222.797 28.0995C222.915 28.4135 223.23 28.6491 223.662 28.8061C223.977 28.9239 224.292 29.0024 224.646 29.0809C224.961 29.1202 225.275 29.1594 225.59 29.1594V31.3579H225C223.072 31.3579 221.656 31.0045 220.751 30.2586C219.846 29.5127 219.374 28.492 219.374 27.1573V19.5806H222.561V21.2686H225.59Z" fill="white"/>
<path d="M231.019 29.1201C231.492 29.1201 231.885 29.0416 232.2 28.8846C232.514 28.7276 232.751 28.5313 232.908 28.2565C233.065 27.9817 233.183 27.7069 233.262 27.3536C233.341 27.0002 233.341 26.6077 233.341 26.2151C233.341 25.8225 233.301 25.4299 233.262 25.0766C233.183 24.7233 233.065 24.4092 232.908 24.1737C232.751 23.8989 232.514 23.7026 232.2 23.5456C231.885 23.3885 231.492 23.31 231.019 23.31C230.547 23.31 230.154 23.3885 229.839 23.5456C229.524 23.7026 229.288 23.8989 229.131 24.1737C228.974 24.4485 228.856 24.7233 228.777 25.0766C228.698 25.4299 228.698 25.8225 228.698 26.2151C228.698 26.6077 228.738 27.0002 228.777 27.3536C228.856 27.7069 228.974 28.0209 229.131 28.2565C229.288 28.5313 229.524 28.7276 229.839 28.8846C230.154 29.0416 230.547 29.1201 231.019 29.1201ZM231.019 21.0331C231.767 21.0331 232.475 21.1509 233.144 21.4257C233.813 21.7005 234.403 22.0538 234.875 22.5249C235.386 22.996 235.78 23.5456 236.055 24.1737C236.331 24.8018 236.488 25.4692 236.488 26.2151C236.488 26.961 236.331 27.5891 236.055 28.2172C235.78 28.8454 235.386 29.395 234.875 29.866C234.364 30.3371 233.813 30.6905 233.144 30.9653C232.475 31.2401 231.767 31.3578 231.019 31.3578C230.272 31.3578 229.564 31.2401 228.895 30.9653C228.226 30.6905 227.636 30.3371 227.164 29.866C226.652 29.395 226.259 28.8454 225.984 28.2172C225.708 27.5891 225.551 26.9217 225.551 26.2151C225.551 25.5084 225.708 24.8411 225.984 24.1737C226.259 23.5456 226.652 22.996 227.164 22.5249C227.675 22.0538 228.226 21.7005 228.895 21.4257C229.564 21.1509 230.272 21.0331 231.019 21.0331Z" fill="white"/>
<path d="M242.507 24.8018C243.098 24.9196 243.609 25.0766 244.081 25.2729C244.553 25.4692 244.947 25.6655 245.261 25.901C245.576 26.1366 245.812 26.4506 246.009 26.7647C246.166 27.118 246.245 27.5106 246.245 27.9424C246.245 28.3743 246.127 28.8061 245.891 29.2379C245.655 29.6698 245.34 30.0231 244.907 30.3371C244.475 30.6512 243.963 30.926 243.373 31.1223C242.783 31.3186 242.153 31.3971 241.445 31.3971C240.855 31.3971 240.186 31.3186 239.478 31.1616C238.77 31.0045 238.101 30.8082 237.511 30.5334V28.0602C238.101 28.4135 238.77 28.6491 239.439 28.8453C240.147 29.0416 240.816 29.1202 241.445 29.1594C241.76 29.1594 241.996 29.1594 242.193 29.0809C242.389 29.0024 242.547 28.9239 242.625 28.8453C242.744 28.7276 242.822 28.6491 242.822 28.5313C242.862 28.4135 242.862 28.335 242.862 28.2565V28.0209C242.862 27.9032 242.822 27.8247 242.704 27.7069C242.586 27.5891 242.429 27.4713 242.153 27.3536C241.878 27.2358 241.485 27.118 240.973 27.0002C240.344 26.8825 239.793 26.7254 239.281 26.6077C238.77 26.4506 238.376 26.2936 238.022 26.0973C237.668 25.901 237.432 25.6262 237.275 25.3122C237.118 24.9981 237.039 24.6055 237.078 24.0952C237.118 23.6633 237.236 23.2315 237.472 22.8782C237.708 22.5249 238.022 22.1716 238.455 21.8967C238.849 21.6219 239.36 21.4257 239.911 21.2686C240.462 21.1116 241.091 21.0331 241.76 21.0331C241.957 21.0331 242.114 21.0331 242.311 21.0331C242.507 21.0331 242.665 21.0723 242.822 21.0723V23.1137C242.665 23.0745 242.507 23.0745 242.35 23.0745C242.193 23.0745 242.035 23.0745 241.917 23.0745C241.367 23.0745 241.012 23.153 240.776 23.3493C240.58 23.5063 240.462 23.7026 240.462 23.9381C240.462 24.0167 240.462 24.0952 240.501 24.1737C240.54 24.2522 240.619 24.3307 240.776 24.37C240.894 24.4485 241.13 24.527 241.367 24.6055C241.681 24.6448 242.035 24.7233 242.507 24.8018Z" fill="white"/>
<path d="M144.545 24.9195C144.545 24.1343 143.915 23.4669 143.089 23.4669C142.302 23.4669 141.633 24.095 141.633 24.9195C141.633 25.7046 142.263 26.372 143.089 26.372C143.876 26.372 144.545 25.7046 144.545 24.9195Z" fill="white"/>
<path d="M18.2156 29.0024C17.1533 29.3164 16.6812 29.3557 16.0518 29.3164C14.7928 29.2379 13.7699 28.5313 13.4551 27.3143H21.0483C21.0876 27.0787 21.0876 26.8824 21.0876 26.6469V26.6076C21.0876 23.8596 19.5532 21.3079 15.855 21.3079C12.6683 21.3079 10.5045 23.6241 10.5045 26.4114C10.5045 29.3557 12.6683 31.4756 15.855 31.4756C16.3272 31.4756 17.0353 31.4756 18.1763 31.1615V29.0024H18.2156ZM15.9337 23.5455C17.3107 23.5455 18.1369 24.37 18.3336 25.5869H13.4945C13.7305 24.37 14.5961 23.5455 15.9337 23.5455Z" fill="white"/>
<path d="M53.2698 21.2687C51.7748 21.2687 50.5945 21.6613 49.7683 22.3286C48.9421 21.6613 47.8012 21.2687 46.2668 21.2687C42.8047 21.2687 41.1917 23.3493 41.1917 26.0189V31.2401H44.3784V25.8226C44.4177 24.8411 44.8112 23.6634 46.2668 23.6634C47.7225 23.6634 48.1159 24.8411 48.1946 25.8226V31.2401H51.342H51.3814V25.8226C51.4207 24.8411 51.8141 23.6634 53.2698 23.6634C54.6861 23.6634 55.1189 24.8411 55.1976 25.8226V31.2401H58.345V26.0189C58.345 23.3493 56.732 21.2687 53.2698 21.2687Z" fill="white"/>
<path d="M3.7769 20.562V23.153H9.52091V25.8225H3.7769V31.2401H0.590149V17.8925H10.9372V20.562H3.7769Z" fill="white"/>
<path d="M88.5995 21.5042H85.4127V31.24H88.5995V21.5042Z" fill="white"/>
<path d="M88.5995 17.8925H85.4127V20.0516H88.5995V17.8925Z" fill="white"/>
<path d="M29.2315 29.2771C28.9954 29.3163 28.7594 29.3556 28.5233 29.3556C26.5562 29.3556 24.9431 28.0208 24.9431 26.4113C24.9431 24.7625 26.5562 23.467 28.5233 23.467C28.7594 23.467 28.9954 23.467 29.2315 23.5062V21.4256C28.7987 21.347 28.3659 21.347 27.8545 21.347C24.4317 21.347 21.8351 23.5455 21.8351 26.4505C21.8351 28.4919 23.094 30.023 24.6284 30.8081C25.6907 31.3577 26.7922 31.5148 27.7365 31.5148C28.2873 31.5148 28.7594 31.4755 29.1921 31.397V29.2771H29.2315Z" fill="white"/>
<path d="M34.9362 21.2294C31.9855 21.2294 29.5463 23.5063 29.5463 26.3329C29.5463 29.1594 31.9462 31.4364 34.9362 31.4364C37.8869 31.4364 40.3261 29.1594 40.3261 26.3329C40.3261 23.5456 37.9262 21.2294 34.9362 21.2294ZM34.9362 29.1987C33.0478 29.1987 32.6543 27.9424 32.6543 26.3721C32.6543 24.8018 33.0478 23.5456 34.9362 23.5456C36.8246 23.5456 37.2181 24.8018 37.2181 26.3721C37.2181 27.9032 36.8246 29.1987 34.9362 29.1987Z" fill="white"/>
<path d="M83.9964 29.2771C83.7603 29.3163 83.5243 29.3556 83.2882 29.3556C81.3211 29.3556 79.708 28.0208 79.708 26.4113C79.708 24.7625 81.3211 23.467 83.2882 23.467C83.5243 23.467 83.7603 23.467 83.9964 23.5062V21.4256C83.5636 21.347 83.1308 21.347 82.6194 21.347C79.1966 21.347 76.6 23.5455 76.6 26.4505C76.6 28.4919 77.8589 30.023 79.3933 30.8081C80.4555 31.3577 81.5571 31.5148 82.5014 31.5148C83.0522 31.5148 83.5243 31.4755 83.957 31.397V29.2771H83.9964Z" fill="white"/>
<path d="M94.7369 21.2294C91.7862 21.2294 89.3469 23.5063 89.3469 26.3329C89.3469 29.1594 91.7468 31.4364 94.7369 31.4364C97.6875 31.4364 100.127 29.1594 100.127 26.3329C100.127 23.5456 97.7269 21.2294 94.7369 21.2294ZM94.7369 29.1987C92.8484 29.1987 92.455 27.9424 92.455 26.3721C92.455 24.8018 92.8484 23.5456 94.7369 23.5456C96.6253 23.5456 97.0187 24.8018 97.0187 26.3721C97.0581 27.9032 96.6646 29.1987 94.7369 29.1987Z" fill="white"/>
<path d="M76.7573 21.19C76.7573 21.19 76.2852 21.1508 75.9311 21.1508C72.6263 21.1508 70.6199 22.9566 70.6199 25.3513V31.2007H73.846V25.5084C73.846 24.2914 74.2787 23.938 74.9476 23.6632C75.3803 23.467 76.0491 23.3492 76.7967 23.3099V21.19H76.7573Z" fill="white"/>
<path d="M66.7643 29.0024C65.7021 29.3164 65.2299 29.3557 64.6005 29.3164C63.3415 29.2379 62.3186 28.5313 62.0039 27.3143H69.597C69.6363 27.0787 69.6363 26.8824 69.6363 26.6469V26.6076C69.6363 23.8596 68.102 21.3079 64.4038 21.3079C61.217 21.3079 59.0532 23.6241 59.0532 26.4114C59.0532 29.3557 61.217 31.4756 64.4038 31.4756C64.8759 31.4756 65.584 31.4756 66.725 31.1615V29.0024H66.7643ZM64.4824 23.5455C65.8594 23.5455 66.6856 24.37 66.8823 25.5869H62.0432C62.2793 24.37 63.1841 23.5455 64.4824 23.5455Z" fill="white"/>
<path d="M63.0661 20.0909L65.3086 16.754L67.9052 17.814L65.348 20.0909H63.0661Z" fill="white"/>
<path d="M132.899 0.854614H118.539C115.392 0.854614 112.166 2.54269 110.71 3.60265C103.55 8.70614 100.009 19.0702 100.009 19.0702C100.992 17.3428 108.31 3.95597 118.264 3.95597H128.768C128.768 3.95597 128.808 5.6833 127.863 6.90029C133.529 4.93741 132.899 0.854614 132.899 0.854614Z" fill="white"/>
<path d="M120.31 7.92097C120.31 8.27428 120.231 9.25572 119.759 10.1194C124.44 9.72682 126.722 8.31354 127.785 6.90027C125.975 7.52839 123.575 7.92097 120.31 7.92097Z" fill="white"/>
<path d="M116.926 10.2764C116.926 10.2764 115.903 10.2764 114.015 10.2371C106.5 10.0801 102.92 15.5369 101.189 18.2064C102.92 16.4006 106.343 13.0244 112.52 13.1422C117.319 13.2207 119.09 11.6897 119.798 10.1979C118.933 10.1979 117.988 10.2764 116.926 10.2764Z" fill="white"/>
<path d="M116.218 28.1779L116.1 27.8245C115.943 27.3142 115.628 26.8824 115.274 26.529L114.92 26.215L115.313 25.9794C116.651 25.1943 117.359 23.938 117.359 22.3285V22.2892C117.359 19.5804 115.234 17.8138 111.89 17.8138H106.776V31.0829H109.412V27.1964V26.8431H109.766H110.592C112.126 26.8431 113.149 27.432 113.543 28.4527L114.566 31.0044H117.359L116.218 28.1779ZM114.684 22.3285C114.684 23.7417 113.543 25.155 111.654 25.155H109.726H109.372V24.8017V19.816V19.4627H109.726H111.575C113.346 19.4627 114.644 20.6404 114.644 22.2892V22.3285H114.684Z" fill="white"/>
<path d="M124.48 23.2708C121.883 22.682 121.214 22.3679 121.214 21.1509V21.1117C121.214 20.4443 121.804 19.6199 123.496 19.6199C124.322 19.6199 125.227 19.8947 125.778 20.091V17.7748C125.699 17.7748 125.66 17.7355 125.581 17.7355C124.991 17.6177 124.244 17.4607 123.536 17.4607C120.428 17.4607 118.342 19.031 118.342 21.4257V21.465C118.342 23.8989 119.955 24.7234 123.3 25.4693C125.581 25.9796 126.368 26.3722 126.368 27.5106V27.5499C126.368 28.5313 125.385 29.1202 123.85 29.1202C122.119 29.1202 120.939 28.5313 119.523 27.5106L117.87 29.3165C119.641 30.6513 121.568 31.3186 123.772 31.3186C127.116 31.3186 129.201 29.7483 129.201 27.2358V27.1966C129.201 25.1552 127.903 24.0952 124.48 23.2708Z" fill="white"/>
<path d="M83.7209 48.5134C84.5471 48.6705 85.1766 48.906 85.57 49.2201C85.9634 49.5341 86.1602 49.9267 86.1602 50.4763C86.1602 50.7904 86.0815 51.0652 85.9634 51.34C85.8454 51.6148 85.6487 51.8503 85.4126 52.0466C85.1766 52.2429 84.9012 52.3999 84.5865 52.5177C84.2717 52.6355 83.9176 52.6747 83.5635 52.6747C82.6193 52.6747 81.7931 52.4392 81.0456 51.9681L81.6358 51.4578C81.9505 51.654 82.2259 51.7718 82.5406 51.8503C82.8554 51.9289 83.2095 51.9681 83.6029 51.9681C83.8389 51.9681 84.075 51.9289 84.3111 51.8503C84.5078 51.7718 84.7045 51.654 84.8619 51.5363C85.0192 51.4185 85.1373 51.2615 85.2159 51.1044C85.2946 50.9474 85.334 50.7511 85.334 50.5941C85.334 50.4371 85.2946 50.28 85.2553 50.1623C85.2159 50.0445 85.0979 49.9267 84.9405 49.8089C84.7832 49.6912 84.5865 49.6126 84.3504 49.5341C84.1143 49.4556 83.7603 49.3771 83.3668 49.2986C82.9341 49.2201 82.5406 49.1416 82.2259 49.0238C81.9112 48.9453 81.6358 48.8275 81.4391 48.6705C81.2423 48.5527 81.085 48.3564 80.9669 48.1601C80.8489 47.9638 80.8096 47.7283 80.8096 47.4142C80.8096 47.1394 80.8883 46.8646 81.0063 46.6291C81.1243 46.3935 81.2817 46.1972 81.5177 46.0402C81.7538 45.8832 81.9898 45.7261 82.3046 45.6476C82.6193 45.5691 82.9341 45.4906 83.2882 45.4906C83.6816 45.4906 84.0357 45.5299 84.3897 45.6084C84.7045 45.6869 85.0192 45.8047 85.2946 45.9617V46.8646C84.9799 46.6291 84.6258 46.472 84.3111 46.3543C83.9963 46.2365 83.6422 46.1972 83.2882 46.1972C82.7767 46.1972 82.3833 46.315 82.1079 46.5113C81.8325 46.7076 81.6751 46.9824 81.6751 47.3357C81.6751 47.4927 81.7144 47.6498 81.7538 47.7675C81.8325 47.8853 81.9112 47.9638 82.0685 48.0816C82.2259 48.1601 82.4226 48.2386 82.698 48.3171C82.9734 48.3564 83.3275 48.4349 83.7209 48.5134Z" fill="white"/>
<path d="M87.2617 47.4142H88.1273V52.557H87.2617V47.4142ZM88.1273 46.158H87.2617V45.4906H88.1273V46.158Z" fill="white"/>
<path d="M91.3928 49.6126C91.6288 49.6911 91.8255 49.7304 92.0222 49.8089C92.219 49.8874 92.4157 49.9659 92.6124 50.0837C92.7698 50.2015 92.9271 50.3192 93.0452 50.4763C93.1632 50.6333 93.2025 50.8296 93.2025 51.0651V51.1044C93.2025 51.3399 93.1632 51.5755 93.0452 51.7718C92.9271 51.968 92.8091 52.1251 92.6124 52.2429C92.4157 52.3606 92.219 52.4784 91.9829 52.5569C91.7468 52.6354 91.4714 52.6747 91.1961 52.6747C90.8813 52.6747 90.5272 52.6354 90.2125 52.5569C89.8977 52.4784 89.583 52.3606 89.2683 52.2036V51.3792C89.583 51.5755 89.8977 51.7325 90.2125 51.8503C90.5272 51.968 90.8813 52.0073 91.1961 52.0073C91.5501 52.0073 91.8255 51.9288 92.0222 51.7718C92.2583 51.6147 92.337 51.4184 92.337 51.1829V51.1436C92.337 51.0259 92.2976 50.9081 92.219 50.8296C92.1403 50.7511 92.0223 50.6725 91.9042 50.594C91.7862 50.5155 91.6288 50.4763 91.4715 50.3977C91.3141 50.3192 91.1174 50.28 90.96 50.2407C90.7239 50.1622 90.5272 50.1229 90.2912 50.0444C90.0551 49.9659 89.8584 49.8874 89.701 49.7696C89.5043 49.6518 89.3863 49.5341 89.2683 49.377C89.1502 49.22 89.1109 49.0237 89.1109 48.7882C89.1109 48.5526 89.1502 48.3563 89.2683 48.1993C89.347 48.003 89.5043 47.846 89.6617 47.7282C89.8191 47.6105 90.0158 47.4927 90.2518 47.4142C90.4879 47.3356 90.7239 47.2964 90.9993 47.2964C91.2354 47.2964 91.4321 47.3356 91.6682 47.3749C91.9042 47.4142 92.1009 47.4927 92.337 47.5712V48.3171C91.8649 48.0815 91.4321 48.003 90.96 48.003C90.6059 48.003 90.3699 48.0815 90.1731 48.1993C89.9764 48.3563 89.8978 48.5134 89.8978 48.7097C89.8978 48.8274 89.9371 48.9452 90.0158 49.0237C90.0945 49.1022 90.2125 49.1808 90.3305 49.2593C90.4485 49.3378 90.6059 49.377 90.8026 49.4556C90.9993 49.5341 91.1961 49.5733 91.3928 49.6126Z" fill="white"/>
<path d="M96.7433 52.557H96.3106C95.7598 52.557 95.327 52.3999 95.0123 52.1251C94.6975 51.8111 94.5402 51.3792 94.5402 50.8296V46.5505H95.4057V47.4927H96.7433V48.1601H95.4057V50.8296C95.4057 51.5755 95.7204 51.9288 96.3893 51.9288H96.704V52.557H96.7433Z" fill="white"/>
<path d="M100.206 47.9637C99.9695 47.9637 99.7334 48.003 99.5367 48.0815C99.34 48.16 99.1433 48.2778 98.9859 48.4348C98.8285 48.5919 98.7105 48.7882 98.5925 48.9844C98.4745 49.1807 98.4351 49.4163 98.3958 49.6911H102.015C101.976 49.4555 101.937 49.2592 101.858 49.0237C101.779 48.8274 101.661 48.6311 101.504 48.4741C101.346 48.3171 101.189 48.1993 100.953 48.0815C100.717 48.003 100.481 47.9637 100.206 47.9637ZM101.976 52.2428C101.74 52.3606 101.504 52.4784 101.228 52.5569C100.953 52.6354 100.638 52.6747 100.284 52.6747C99.8908 52.6747 99.5367 52.5961 99.1826 52.4784C98.8285 52.3606 98.5531 52.1643 98.2777 51.9288C98.0417 51.6932 97.845 51.4184 97.6876 51.1044C97.5302 50.7903 97.4515 50.3977 97.4515 50.0051C97.4515 49.6518 97.5302 49.2985 97.6483 48.9844C97.7663 48.6704 97.963 48.3956 98.1991 48.1208C98.4351 47.8852 98.7105 47.6889 99.0646 47.5712C99.3793 47.4141 99.7334 47.3749 100.127 47.3749C100.56 47.3749 100.914 47.4534 101.228 47.5712C101.543 47.7282 101.819 47.8852 102.055 48.16C102.291 48.3956 102.448 48.6704 102.566 49.0237C102.684 49.3378 102.763 49.6911 102.763 50.0837V50.2014C102.763 50.2407 102.763 50.2799 102.763 50.3192H98.3171C98.3564 50.594 98.4351 50.8296 98.5531 51.0651C98.6712 51.2614 98.8285 51.4577 98.9859 51.6147C99.1826 51.7717 99.3793 51.8895 99.576 51.968C99.8121 52.0465 100.048 52.0858 100.284 52.0858C100.638 52.0858 100.953 52.0465 101.228 51.9288C101.504 51.811 101.74 51.6932 101.937 51.4969V52.2428H101.976Z" fill="white"/>
<path d="M110.198 47.2964C110.553 47.2964 110.867 47.3749 111.143 47.4927C111.457 47.6104 111.693 47.8067 111.93 48.003C112.166 48.2386 112.323 48.4741 112.441 48.7882C112.559 49.063 112.638 49.377 112.638 49.7304V52.5569H111.811V51.5362V49.7304C111.811 49.4948 111.772 49.2985 111.693 49.1022C111.615 48.906 111.536 48.7097 111.379 48.5526C111.261 48.3956 111.064 48.2386 110.867 48.1601C110.671 48.0423 110.435 48.003 110.159 48.003C109.884 48.003 109.648 48.0423 109.451 48.1601C109.254 48.2778 109.097 48.3956 108.939 48.5526C108.782 48.7097 108.703 48.906 108.625 49.1022C108.546 49.2985 108.507 49.5341 108.507 49.7304V52.5569H107.681V49.7304C107.681 49.4948 107.641 49.2985 107.563 49.1022C107.484 48.906 107.405 48.7097 107.248 48.5526C107.09 48.3956 106.933 48.2386 106.736 48.1601C106.54 48.0423 106.304 48.003 106.028 48.003C105.753 48.003 105.517 48.0423 105.32 48.1601C105.123 48.2778 104.966 48.3956 104.809 48.5526C104.69 48.7097 104.572 48.906 104.494 49.1022C104.415 49.2985 104.376 49.5341 104.376 49.7304V51.5362V52.5569H103.55V49.7304C103.55 49.377 103.628 49.063 103.746 48.7882C103.864 48.5134 104.061 48.2386 104.258 48.003C104.494 47.7675 104.73 47.6104 105.045 47.4927C105.359 47.3749 105.674 47.2964 105.989 47.2964C106.422 47.2964 106.815 47.3749 107.169 47.5712C107.523 47.7675 107.799 48.0423 108.035 48.3563C108.271 48.0423 108.546 47.7675 108.9 47.5712C109.372 47.4142 109.766 47.2964 110.198 47.2964Z" fill="white"/>
<path d="M118.028 50.1229C117.831 50.0837 117.556 50.0052 117.201 49.9659C116.887 49.9266 116.533 49.8874 116.179 49.8874C115.628 49.8874 115.234 49.9659 114.998 50.1622C114.762 50.3585 114.605 50.6333 114.605 50.9473C114.605 51.3007 114.723 51.5362 114.998 51.7325C115.234 51.9288 115.549 52.0073 115.942 52.0073C116.218 52.0073 116.454 51.968 116.69 51.8895C116.926 51.811 117.162 51.7325 117.359 51.6147C117.556 51.497 117.713 51.3399 117.831 51.1829C117.949 51.0259 118.028 50.8296 118.028 50.594V50.1229ZM116.415 47.2964C117.201 47.2964 117.792 47.4534 118.185 47.8067C118.578 48.1601 118.815 48.6704 118.815 49.377V52.5177H118.028V51.7325C117.91 51.8503 117.792 51.968 117.634 52.0858C117.477 52.2036 117.319 52.2821 117.123 52.3606C116.926 52.4391 116.729 52.5177 116.493 52.5569C116.257 52.5962 116.021 52.6354 115.785 52.6354C115.51 52.6354 115.274 52.5962 115.038 52.5177C114.802 52.4391 114.566 52.3606 114.408 52.2036C114.211 52.0858 114.093 51.8895 113.975 51.6932C113.857 51.497 113.818 51.2614 113.818 50.9866C113.818 50.437 114.015 50.0052 114.447 49.7304C114.88 49.4556 115.431 49.2985 116.139 49.2985C116.493 49.2985 116.847 49.3378 117.162 49.377C117.477 49.4163 117.792 49.4556 118.028 49.5341V49.377C118.028 48.906 117.87 48.5526 117.595 48.3171C117.319 48.0815 116.887 47.9638 116.375 47.9638C116.021 47.9638 115.746 48.003 115.47 48.0815C115.195 48.1601 114.92 48.2386 114.684 48.3563V47.6104C114.959 47.4927 115.234 47.4142 115.51 47.3749C115.746 47.3356 116.061 47.2964 116.415 47.2964Z" fill="white"/>
<path d="M126.998 52.6355C126.801 52.6747 126.604 52.6747 126.408 52.6747C125.857 52.6747 125.345 52.5962 124.873 52.3999C124.401 52.2037 124.008 51.9681 123.654 51.654C123.3 51.34 123.064 50.9474 122.867 50.5156C122.67 50.0837 122.591 49.6127 122.591 49.1023C122.591 48.592 122.67 48.1601 122.867 47.689C123.064 47.2572 123.339 46.8646 123.654 46.5506C124.008 46.2365 124.401 45.9617 124.873 45.7654C125.345 45.5691 125.857 45.4906 126.408 45.4906C126.604 45.4906 126.801 45.4906 126.958 45.5299V46.2365C126.88 46.2365 126.762 46.1972 126.683 46.1972C126.604 46.1972 126.486 46.1972 126.408 46.1972C125.975 46.1972 125.581 46.2758 125.227 46.4328C124.873 46.5898 124.559 46.7861 124.283 47.0216C124.008 47.2964 123.811 47.5713 123.654 47.9246C123.496 48.2779 123.418 48.6312 123.418 49.063C123.418 49.4949 123.496 49.8482 123.654 50.2015C123.811 50.5548 124.008 50.8689 124.283 51.1044C124.559 51.3792 124.873 51.5755 125.227 51.6933C125.581 51.8503 125.975 51.9288 126.408 51.9288C126.526 51.9288 126.604 51.9288 126.683 51.9288C126.762 51.9288 126.88 51.9288 126.958 51.8896V52.6355H126.998Z" fill="white"/>
<path d="M130.106 48.0029C129.791 48.0029 129.516 48.0422 129.28 48.16C129.044 48.2778 128.847 48.3955 128.65 48.5918C128.493 48.7881 128.335 48.9844 128.257 49.2199C128.178 49.4555 128.139 49.7303 128.139 50.0051C128.139 50.2799 128.178 50.5547 128.296 50.7902C128.375 51.0258 128.532 51.2613 128.689 51.4184C128.847 51.6147 129.083 51.7324 129.319 51.8502C129.555 51.968 129.83 52.0072 130.145 52.0072C130.46 52.0072 130.735 51.968 130.971 51.8502C131.207 51.7324 131.404 51.6147 131.601 51.4184C131.758 51.2221 131.916 51.0258 131.994 50.7902C132.073 50.5547 132.152 50.2799 132.152 50.0051C132.152 49.7303 132.112 49.4555 131.994 49.2199C131.916 48.9844 131.758 48.7488 131.601 48.5918C131.443 48.3955 131.207 48.2778 130.971 48.16C130.696 48.0422 130.421 48.0029 130.106 48.0029ZM130.106 52.6746C129.673 52.6746 129.28 52.5961 128.926 52.4783C128.571 52.3213 128.257 52.1643 128.021 51.8895C127.745 51.6539 127.549 51.3791 127.431 51.0258C127.273 50.7117 127.194 50.3584 127.194 50.0051C127.194 49.6518 127.273 49.2985 127.431 48.9844C127.588 48.6703 127.785 48.3563 128.021 48.1207C128.296 47.8852 128.611 47.6889 128.965 47.5319C129.319 47.3748 129.712 47.3356 130.145 47.3356C130.578 47.3356 130.971 47.4141 131.325 47.5319C131.68 47.6889 131.994 47.8459 132.27 48.1207C132.545 48.3563 132.742 48.6311 132.86 48.9844C133.017 49.2985 133.096 49.6518 133.096 50.0051C133.096 50.3584 133.017 50.7117 132.86 51.0258C132.702 51.3398 132.506 51.6146 132.23 51.8895C131.955 52.125 131.64 52.3213 131.286 52.4783C130.932 52.5961 130.539 52.6746 130.106 52.6746Z" fill="white"/>
<path d="M140.296 47.2964C140.65 47.2964 140.964 47.3749 141.24 47.4927C141.554 47.6104 141.791 47.8067 142.027 48.003C142.263 48.1993 142.42 48.4741 142.538 48.7882C142.656 49.063 142.735 49.377 142.735 49.7304V52.5569H141.909V51.5362V49.7304C141.909 49.4948 141.869 49.2985 141.791 49.1022C141.712 48.906 141.633 48.7097 141.476 48.5526C141.358 48.3956 141.161 48.2386 140.964 48.1601C140.768 48.0423 140.532 48.003 140.256 48.003C139.981 48.003 139.745 48.0423 139.548 48.1601C139.351 48.2778 139.194 48.3956 139.037 48.5526C138.879 48.7097 138.8 48.906 138.722 49.1022C138.643 49.2985 138.604 49.5341 138.604 49.7304V52.5569H137.778V49.7304C137.778 49.4948 137.738 49.2985 137.66 49.1022C137.581 48.906 137.502 48.7097 137.345 48.5526C137.187 48.3956 137.03 48.2386 136.833 48.1601C136.637 48.0423 136.401 48.003 136.125 48.003C135.85 48.003 135.614 48.0423 135.417 48.1601C135.22 48.2778 135.063 48.3956 134.906 48.5526C134.788 48.7097 134.67 48.906 134.591 49.1022C134.512 49.2985 134.473 49.5341 134.473 49.7304V51.5362V52.5569H133.647V49.7304C133.647 49.377 133.725 49.063 133.843 48.7882C133.961 48.5134 134.158 48.2386 134.355 48.003C134.591 47.7675 134.827 47.6104 135.142 47.4927C135.456 47.3749 135.771 47.2964 136.086 47.2964C136.519 47.2964 136.912 47.3749 137.266 47.5712C137.62 47.7675 137.896 48.0423 138.132 48.3563C138.368 48.0423 138.643 47.7675 138.997 47.5712C139.469 47.4142 139.863 47.2964 140.296 47.2964Z" fill="white"/>
<path d="M146.118 46.6683L147.062 45.4906H148.085L146.748 46.6683H146.118ZM146.59 47.9638C146.354 47.9638 146.118 48.0031 145.921 48.0816C145.725 48.1601 145.528 48.2779 145.371 48.4349C145.213 48.592 145.095 48.7882 144.977 48.9845C144.859 49.1808 144.82 49.4164 144.781 49.6912H148.4C148.361 49.4556 148.321 49.2593 148.243 49.0238C148.164 48.8275 148.046 48.6312 147.889 48.4742C147.731 48.3171 147.574 48.1994 147.338 48.0816C147.141 48.0031 146.866 47.9638 146.59 47.9638ZM148.4 52.2429C148.164 52.3607 147.928 52.4785 147.653 52.557C147.377 52.6355 147.062 52.6747 146.708 52.6747C146.315 52.6747 145.961 52.5962 145.607 52.4785C145.253 52.3607 144.977 52.1644 144.702 51.9288C144.466 51.6933 144.269 51.4185 144.112 51.1044C143.954 50.7904 143.876 50.3978 143.876 50.0052C143.876 49.6519 143.954 49.2986 144.072 48.9845C144.19 48.6705 144.387 48.3957 144.623 48.1209C144.859 47.8853 145.135 47.689 145.489 47.5712C145.803 47.4142 146.158 47.375 146.551 47.375C146.984 47.375 147.338 47.4535 147.653 47.5712C147.967 47.7283 148.243 47.8853 148.479 48.1601C148.715 48.3957 148.872 48.6705 148.99 49.0238C149.108 49.3378 149.187 49.6912 149.187 50.0837V50.2015C149.187 50.2408 149.187 50.28 149.187 50.3193H144.741C144.781 50.5941 144.859 50.8296 144.977 51.0652C145.095 51.2615 145.253 51.4578 145.41 51.6148C145.607 51.7718 145.803 51.8896 146 51.9681C146.236 52.0466 146.472 52.0859 146.708 52.0859C147.062 52.0859 147.377 52.0466 147.653 51.9288C147.928 51.8111 148.164 51.6933 148.361 51.497V52.2429H148.4Z" fill="white"/>
<path d="M152.688 47.3357V48.0816H152.374C152.138 48.0816 151.941 48.1208 151.744 48.1993C151.547 48.2779 151.39 48.3956 151.233 48.5527C151.075 48.7097 150.957 48.8667 150.879 49.063C150.8 49.2593 150.761 49.4556 150.761 49.6911V51.497V52.4784H149.934V49.6519C149.934 49.3378 150.013 49.0237 150.131 48.7097C150.249 48.4349 150.446 48.1601 150.643 47.9245C150.879 47.689 151.115 47.532 151.429 47.4142C151.744 47.2964 152.059 47.2179 152.374 47.2179H152.688V47.3357Z" fill="white"/>
<path d="M156.347 52.6354C156.19 52.6746 156.033 52.6746 155.875 52.6746C155.442 52.6746 155.049 52.5961 154.656 52.4783C154.262 52.3213 153.947 52.1643 153.672 51.8895C153.397 51.6539 153.2 51.3791 153.043 51.0258C152.885 50.7117 152.806 50.3584 152.806 50.0051C152.806 49.6518 152.885 49.2985 153.043 48.9844C153.2 48.6703 153.397 48.3563 153.672 48.1207C153.947 47.8852 154.262 47.6889 154.656 47.5319C155.049 47.3748 155.442 47.3356 155.875 47.3356C156.033 47.3356 156.19 47.3356 156.347 47.3748V48.0422C156.19 48.003 156.033 48.0029 155.875 48.0029C155.56 48.0029 155.285 48.0422 155.01 48.16C154.734 48.2778 154.538 48.3955 154.341 48.5918C154.144 48.7881 153.987 48.9844 153.908 49.2199C153.79 49.4555 153.751 49.7303 153.751 50.0051C153.751 50.2799 153.79 50.5547 153.908 50.7902C154.026 51.0258 154.183 51.2613 154.38 51.4184C154.577 51.6147 154.813 51.7324 155.088 51.8502C155.364 51.968 155.639 52.0072 155.954 52.0072C156.111 52.0072 156.269 52.0072 156.387 51.968V52.6354H156.347Z" fill="white"/>
<path d="M157.449 47.4142H158.314V52.557H157.449V47.4142ZM158.354 46.158H157.488V45.4906H158.354V46.158Z" fill="white"/>
<path d="M162.013 48.0029C161.698 48.0029 161.422 48.0422 161.186 48.16C160.95 48.2778 160.754 48.3955 160.557 48.5918C160.4 48.7881 160.242 48.9844 160.164 49.2199C160.085 49.4555 160.045 49.7303 160.045 50.0051C160.045 50.2799 160.085 50.5547 160.203 50.7902C160.282 51.0258 160.439 51.2613 160.596 51.4184C160.754 51.6147 160.99 51.7324 161.226 51.8502C161.462 51.968 161.737 52.0072 162.052 52.0072C162.367 52.0072 162.642 51.968 162.878 51.8502C163.114 51.7324 163.311 51.6147 163.508 51.4184C163.665 51.2221 163.822 51.0258 163.901 50.7902C163.98 50.5547 164.058 50.2799 164.058 50.0051C164.058 49.7303 164.019 49.4555 163.901 49.2199C163.822 48.9844 163.665 48.7488 163.508 48.5918C163.35 48.3955 163.114 48.2778 162.878 48.16C162.603 48.0422 162.327 48.0029 162.013 48.0029ZM162.052 52.6746C161.619 52.6746 161.226 52.5961 160.872 52.4783C160.518 52.3213 160.203 52.1643 159.967 51.8895C159.691 51.6539 159.495 51.3791 159.377 51.0258C159.219 50.7117 159.141 50.3584 159.141 50.0051C159.141 49.6518 159.219 49.2985 159.377 48.9844C159.534 48.6703 159.731 48.3563 159.967 48.1207C160.242 47.8852 160.557 47.6889 160.911 47.5319C161.265 47.3748 161.659 47.3356 162.091 47.3356C162.524 47.3356 162.918 47.4141 163.272 47.5319C163.626 47.6889 163.94 47.8459 164.216 48.1207C164.491 48.3563 164.688 48.6311 164.806 48.9844C164.963 49.2985 165.042 49.6518 165.042 50.0051C165.042 50.3584 164.963 50.7117 164.806 51.0258C164.649 51.3398 164.452 51.6146 164.176 51.8895C163.901 52.125 163.586 52.3213 163.232 52.4783C162.839 52.5961 162.445 52.6746 162.052 52.6746Z" fill="white"/>
<path d="M246.206 49.8875H173.068V50.3578H246.206V49.8875Z" fill="white"/>
<path d="M72.7444 49.8875H0V50.3578H72.7444V49.8875Z" fill="white"/>
</svg>
