<svg width="39" height="46" viewBox="0 0 39 46" fill="none" xmlns="http://www.w3.org/2000/svg">
<path d="M21.7523 0.949805C20.4857 -0.316793 18.4288 -0.316793 17.1622 0.949804L0.949755 17.1622C-0.316843 18.4288 -0.316843 20.4858 0.949755 21.7524C2.21635 23.019 4.2733 23.019 5.5399 21.7524L16.2198 11.0623L16.2198 42.1496C16.2198 43.9431 17.6688 45.3921 19.4623 45.3921C21.2558 45.3921 22.7048 43.9431 22.7048 42.1496L22.7048 11.0724L33.3847 21.7422C34.6513 23.0088 36.7083 23.0088 37.9749 21.7422C39.2415 20.4756 39.2415 18.4187 37.9749 17.1521L21.7624 0.939669L21.7523 0.949805Z" fill="#7784AC"/>
</svg>
